{
.formatVersion = 3;
axes = (
{
name = Weight;
tag = wght;
}
);
classes = (
{

glyphs = (
{
glyphname = .notdef;
layers = (
{
layerId = "2C4CF9A7-491C-47AB-B6C9-58D3194EBCE0";
shapes = (
{
closed = 1;
nodes = (
(10,650,ls),
(10,704,o),
(46,730,o),
(100,730,cs),
(340,730,ls),
(394,730,o),
(430,704,o),
(430,650,cs),
(430,80,ls),
(430,26,o),
(394,0,o),
(340,0,cs),
(100,0,ls),
(46,0,o),
(10,26,o),
(10,80,cs)
);
},
{
closed = 1;
nodes = (
(290,120,ls),
(317,120,o),
(320,123,o),
(320,150,cs),
(320,580,ls),
(320,607,o),
(317,610,o),
(290,610,cs),
(150,610,ls),
(123,610,o),
(120,607,o),
(120,580,cs),
(120,150,ls),
(120,123,o),
(123,120,o),
(150,120,cs)
);
},
{
closed = 1;
nodes = (
(55,52,l),
(285,680,l),
(385,680,l),
(155,52,l)
);
},
{
closed = 1;
nodes = (
(285,52,l),
(55,680,l),
(155,680,l),
(385,52,l)
);
}
);
width = 600;
},
{
layerId = "4F1D95E0-B484-471A-8565-C56541B9E33E";
shapes = (
{
closed = 1;
nodes = (
(20,650,ls),
(20,704,o),
(46,730,o),
(100,730,cs),
(340,730,ls),
(394,730,o),
(420,704,o),
(420,650,cs),
(420,80,ls),
(420,26,o),
(394,0,o),
(340,0,cs),
(100,0,ls),
(46,0,o),
(20,26,o),
(20,80,cs)
);
},
{
closed = 1;
nodes = (
(290,90,ls),
(317,90,o),
(330,103,o),
(330,130,cs),
(330,600,ls),
(330,627,o),
(317,640,o),
(290,640,cs),
(150,640,ls),
(123,640,o),
(110,627,o),
(110,600,cs),
(110,130,ls),
(110,103,o),
(123,90,o),
(150,90,cs)
);
},
{
closed = 1;
nodes = (
(65,52,l),
(295,680,l),
(375,680,l),
(145,52,l)
);
},
{
closed = 1;
nodes = (
(295,52,l),
(65,680,l),
(145,680,l),
(375,52,l)
);
}
);
width = 600;
},
{
layerId = "65670A5D-CCC8-4389-B3B7-F9F0C6F62714";
shapes = (
{
closed = 1;
nodes = (
(30,660,ls),
(30,704,o),
(56,730,o),
(100,730,cs),
(340,730,ls),
(384,730,o),
(410,704,o),
(410,660,cs),
(410,70,ls),
(410,26,o),
(384,0,o),
(340,0,cs),
(100,0,ls),
(56,0,o),
(30,26,o),
(30,70,cs)
);
},
{
closed = 1;
nodes = (
(290,60,ls),
(327,60,o),
(350,83,o),
(350,120,cs),
(350,610,ls),
(350,647,o),
(327,670,o),
(290,670,cs),
(150,670,ls),
(113,670,o),
(90,647,o),
(90,610,cs),
(90,120,ls),
(90,83,o),
(113,60,o),
(150,60,cs)
);
},
{
closed = 1;
nodes = (
(65,42,l),
(315,690,l),
(375,690,l),
(125,42,l)
);
},
{
closed = 1;
nodes = (
(315,42,l),
(65,690,l),
(125,690,l),
(375,42,l)
);
}
);
width = 600;
}
);
},
{
color = (153, 254, 255, 255);
glyphname = A;
layers = (
{
anchors = (
{
name = bottom;
position = "{140, 0}";
},
{
name = ogonek;
position = "{322, 0}";
},
{
name = top;
position = "{398, 730}";
}
);
layerId = "2C4CF9A7-491C-47AB-B6C9-58D3194EBCE0";
shapes = (
{
closed = 1;
nodes = (
(214.485,309,ls),
(207.664,293,o),
(212.253,285,o),
(229.253,285,cs),
(311.253,285,ls),
(328.253,285,o),
(335.664,293,o),
(334.485,309,cs),
(317.748,526,ls),
(317.335,535,o),
(311.335,535,o),
(307.748,526,cs)
);
},
{
closed = 1;
nodes = (
(367.237,-10,o),
(350.058,6,o),
(347.877,39,cs),
(341.862,141,ls),
(340.683,157,o),
(333.094,165,o),
(316.094,165,cs),
(182.094,165,ls),
(165.094,165,o),
(154.683,157,o),
(147.862,141,cs),
(105.877,39,ls),
(91.705,4,o),
(68.237,-10,o),
(33.237,-10,cs),
(-33.763,-10,o),
(-54.121,22,o),
(-25.66,87,cs),
(213.32,637,ls),
(240.429,700,o),
(284.719,730,o),
(348.719,730,cs),
(412.719,730,o),
(446.429,700,o),
(451.32,637,cs),
(496.34,87,ls),
(501.879,22,o),
(467.237,-10,o),
(400.237,-10,cs)
);
}
);
width = 600;
},
{
anchors = (
{
name = bottom;
position = "{220, 0}";
},
{
name = ogonek;
position = "{420, 0}";
},
{
name = top;
position = "{349, 730}";
}
);
layerId = "4F1D95E0-B484-471A-8565-C56541B9E33E";
shapes = (
{
closed = 1;
nodes = (
(179,289,ls),
(173,276,o),
(178,270,o),
(191,270,cs),
(345,270,ls),
(358,270,o),
(365,276,o),
(363,289,cs),
(331,601,ls),
(330,609,o),
(324,609,o),
(321,601,cs)
);
},
{
closed = 1;
nodes = (
(398,-10,o),
(388,0,o),
(386,19,cs),
(372,175,ls),
(371,188,o),
(363,194,o),
(350,194,cs),
(158,194,ls),
(145,194,o),
(135,188,o),
(130,175,cs),
(60,19,ls),
(52,0,o),
(38,-10,o),
(18,-10,cs),
(-22,-10,o),
(-34,9,o),
(-17,48,cs),
(263,671,ls),
(281,710,o),
(308,730,o),
(349,730,cs),
(390,730,o),
(409,710,o),
(413,671,cs),
(473,48,ls),
(478,9,o),
(458,-10,o),
(418,-10,cs)
);
}
);
width = 600;
},
{
anchors = (
{
name = bottom;
position = "{220, 0}";
},
{
name = ogonek;
position = "{425, 0}";
},
{
name = top;
position = "{349, 730}";
}
);
layerId = "65670A5D-CCC8-4389-B3B7-F9F0C6F62714";
shapes = (
{
closed = 1;
nodes = (
(154,265,ls),
(149,255,o),
(152,250,o),
(162,250,cs),
(367,250,ls),
(377,250,o),
(382,254,o),
(381,264,cs),
(339,650,ls),
(338,656,o),
(334,656,o),
(331,650,cs)
);
},
{
closed = 1;
nodes = (
(411,-10,o),
(406,-4,o),
(405,7,cs),
(388,185,ls),
(386,195,o),
(381,200,o),
(371,200,cs),
(140,200,ls),
(130,200,o),
(124,196,o),
(119,186,cs),
(37,7,ls),
(32,-4,o),
(25,-10,o),
(13,-10,cs),
(-10,-10,o),
(-17,1,o),
(-7,23,cs),
(306,701,ls),
(314,720,o),
(329,730,o),
(349,730,cs),
(369,730,o),
(380,720,o),
(382,701,cs),
(455,23,ls),
(457,1,o),
(446,-10,o),
(423,-10,cs)
);
}
);
width = 600;
}
);
unicode = 65;
},
{
color = (153, 254, 255, 255);
glyphname = AE;
layers = (
{
layerId = "2C4CF9A7-491C-47AB-B6C9-58D3194EBCE0";
shapes = (
{
closed = 1;
nodes = (
(-56,0,o),
(-72,23,o),
(-54,70,cs),
(151,632,ls),
(175,698,o),
(220,730,o),
(287,730,cs),
(568,730,ls),
(610,730,o),
(626,710,o),
(619,668,cs),
(611,626,o),
(588,605,o),
(546,605,cs),
(469,605,ls),
(452,605,o),
(442,597,o),
(439,580,cs),
(418,461,ls),
(414,444,o),
(422,436,o),
(439,436,cs),
(487,436,ls),
(531,436,o),
(549,415,o),
(541,371,cs),
(534,327,o),
(507,305,o),
(463,305,cs),
(415,305,ls),
(398,305,o),
(389,297,o),
(386,280,cs),
(367,176,ls),
(361,142,o),
(376,126,o),
(409,126,cs),
(460,126,ls),
(502,126,o),
(518,105,o),
(511,63,cs),
(503,21,o),
(479,0,o),
(437,0,cs),
(311,0,ls),
(244,0,o),
(217,33,o),
(229,100,cs),
(236,140,ls),
(239,157,o),
(232,165,o),
(215,165,cs),
(143,165,ls),
(126,165,o),
(116,157,o),
(110,140,cs),
(87,71,ls),
(71,24,o),
(40,0,o),
(-8,0,cs)
);
},
{
closed = 1;
nodes = (
(163,295,ls),
(156,278,o),
(162,270,o),
(179,270,cs),
(234,270,ls),
(251,270,o),
(260,278,o),
(264,295,cs),
(315,581,ls),
(317,597,o),
(311,605,o),
(295,605,cs),
(279,605,o),
(267,597,o),
(262,581,cs)
);
}
);
width = 600;
},
{
anchors = (
{
name = m.uni0308;
position = "{350, 730}";
},
{
name = m.uni0325_2;
position = "{220, 0}";
}
);
layerId = "4F1D95E0-B484-471A-8565-C56541B9E33E";
shapes = (
{
closed = 1;
nodes = (
(-34,0,o),
(-45,15,o),
(-33,45,cs),
(195,652,ls),
(214,705,o),
(251,730,o),
(305,730,cs),
(580,730,ls),
(607,730,o),
(617,717,o),
(613,690,cs),
(608,663,o),
(592,648,o),
(565,648,cs),
(443,648,ls),
(430,648,o),
(422,641,o),
(420,628,cs),
(387,440,ls),
(384,427,o),
(389,420,o),
(402,420,cs),
(499,420,ls),
(526,420,o),
(538,407,o),
(533,380,cs),
(528,353,o),
(512,338,o),
(485,338,cs),
(388,338,ls),
(375,338,o),
(366,331,o),
(365,318,cs),
(330,122,ls),
(325,95,o),
(335,82,o),
(362,82,cs),
(464,82,ls),
(491,82,o),
(503,69,o),
(498,42,cs),
(492,15,o),
(477,0,o),
(450,0,cs),
(302,0,ls),
(248,0,o),
(227,26,o),
(236,80,cs),
(255,183,ls),
(257,196,o),
(251,203,o),
(238,203,cs),
(137,203,ls),
(124,203,o),
(115,196,o),
(110,183,cs),
(58,45,ls),
(46,15,o),
(26,0,o),
(-4,0,c)
);
},
{
closed = 1;
nodes = (
(152,298,ls),
(147,285,o),
(151,278,o),
(164,278,cs),
(251,278,ls),
(264,278,o),
(273,285,o),
(275,298,cs),
(332,620,ls),
(336,639,o),
(328,648,o),
(309,648,c),
(290,648,o),
(279,639,o),
(271,621,cs)
);
}
);
width = 600;
},
{
layerId = "65670A5D-CCC8-4389-B3B7-F9F0C6F62714";
shapes = (
{
closed = 1;
nodes = (
(-38,0,o),
(-42,8,o),
(-36,24,cs),
(247,672,ls),
(263,711,o),
(292,730,o),
(332,730,cs),
(596,730,ls),
(611,730,o),
(618,723,o),
(615,708,cs),
(612,693,o),
(604,685,o),
(589,685,cs),
(417,685,ls),
(407,685,o),
(401,680,o),
(399,670,cs),
(354,417,ls),
(353,407,o),
(356,402,o),
(366,402,cs),
(502,402,ls),
(517,402,o),
(523,395,o),
(521,380,cs),
(518,365,o),
(510,357,o),
(495,357,cs),
(359,357,ls),
(349,357,o),
(343,352,o),
(341,342,cs),
(293,75,ls),
(290,55,o),
(298,45,o),
(318,45,cs),
(475,45,ls),
(490,45,o),
(496,38,o),
(493,23,cs),
(491,8,o),
(481,0,o),
(466,0,cs),
(290,0,ls),
(250,0,o),
(233,20,o),
(241,60,cs),
(266,200,ls),
(268,210,o),
(263,215,o),
(253,215,cs),
(113,215,ls),
(103,215,o),
(97,210,o),
(92,200,cs),
(14,24,ls),
(8,8,o),
(-4,0,o),
(-21,0,cs)
);
},
{
closed = 1;
nodes = (
(125,275,ls),
(122,265,o),
(124,260,o),
(134,260,cs),
(261,260,ls),
(271,260,o),
(277,265,o),
(278,275,cs),
(347,659,ls),
(350,676,o),
(344,685,o),
(327,685,cs),
(310,685,o),
(297,677,o),
(290,660,cs)
);
}
);
width = 600;
}
);
unicode = 198;
},
{
color = (153, 254, 255, 255);
glyphname = B;
layers = (
{
layerId = "2C4CF9A7-491C-47AB-B6C9-58D3194EBCE0";
shapes = (
{
closed = 1;
nodes = (
(428,390,o),
(428,385,o),
(439,381,cs),
(462,374,o),
(478,359,qs),
(506,335,o),
(527,258,o),
(519,211,qs),
(507,148,o),
(427,53,o),
(305,0,o),
(230,0,qs),
(76,0,ls),
(26,0,o),
(-6,40,o),
(2,90,cs),
(98,630,ls),
(111,700,o),
(146,730,o),
(216,730,cs),
(351,730,ls),
(424,730,o),
(524,683,o),
(570,599,o),
(560,542,qs),
(554,501,o),
(512,436,o),
(480,415,qs),
(461,402,o),
(441,395,qs)
);
},
{
closed = 1;
nodes = (
(218,318,ls),
(203,318,o),
(190,308,o),
(188,293,cs),
(164,160,ls),
(160,135,o),
(173,120,o),
(198,120,cs),
(247,120,ls),
(296,120,o),
(362,172,o),
(370,219,qs),
(378,265,o),
(331,318,o),
(282,318,qs)
);
},
{
closed = 1;
nodes = (
(218,463,ls),
(215,448,o),
(224,438,o),
(239,438,cs),
(297,438,ls),
(341,438,o),
(400,483,o),
(407,523,qs),
(414,564,o),
(372,610,o),
(328,610,qs),
(285,610,ls),
(260,610,o),
(241,595,o),
(237,570,cs)
);
}
);
width = 600;
},
{
layerId = "4F1D95E0-B484-471A-8565-C56541B9E33E";
shapes = (
{
closed = 1;
nodes = (
(387,381,o),
(387,378,o),
(396,375,cs),
(426,366,o),
(448,348,qs),
(478,324,o),
(496,259,o),
(488,213,qs),
(477,151,o),
(406,49,o),
(302,0,o),
(235,0,qs),
(92,0,ls),
(36,0,o),
(17,23,o),
(27,80,cs),
(128,650,ls),
(138,707,o),
(166,730,o),
(222,730,cs),
(349,730,ls),
(417,730,o),
(504,685,o),
(540,600,o),
(529,541,qs),
(522,504,o),
(486,441,o),
(458,418,qs),
(433,397,o),
(397,384,qs)
);
},
{
closed = 1;
nodes = (
(186,329,ls),
(169,329,o),
(159,321,o),
(156,304,cs),
(125,130,ls),
(120,102,o),
(130,90,o),
(158,90,cs),
(241,90,ls),
(304,90,o),
(389,158,o),
(399,216,qs),
(410,278,o),
(350,329,o),
(284,329,qs)
);
},
{
closed = 1;
nodes = (
(180,444,ls),
(178,427,o),
(184,419,o),
(201,419,cs),
(292,419,ls),
(361,419,o),
(429,481,o),
(439,534,qs),
(449,587,o),
(392,640,o),
(333,640,qs),
(256,640,ls),
(227,640,o),
(214,628,o),
(209,600,cs)
);
}
);
width = 600;
},
{
layerId = "65670A5D-CCC8-4389-B3B7-F9F0C6F62714";
shapes = (
{
closed = 1;
nodes = (
(376,376,o),
(377,373,o),
(381,372,cs),
(416,362,o),
(434,341,qs),
(460,313,o),
(478,245,o),
(471,200,qs),
(460,139,o),
(390,49,o),
(287,0,o),
(221,0,qs),
(100,0,ls),
(56,0,o),
(35,26,o),
(43,70,cs),
(147,660,ls),
(155,704,o),
(186,730,o),
(230,730,cs),
(348,730,ls),
(409,730,o),
(489,684,o),
(524,599,o),
(514,542,qs),
(507,505,o),
(479,443,o),
(449,416,qs),
(427,394,o),
(381,378,qs)
);
},
{
closed = 1;
nodes = (
(157,348,ls),
(148,348,o),
(141,342,o),
(139,333,cs),
(95,85,ls),
(91,63,o),
(102,50,o),
(124,50,cs),
(230,50,ls),
(307,50,o),
(408,128,o),
(420,199,qs),
(433,270,o),
(356,348,o),
(283,348,qs)
);
},
{
closed = 1;
nodes = (
(154,413,ls),
(152,404,o),
(157,398,o),
(166,398,cs),
(289,398,ls),
(353,398,o),
(452,474,o),
(464,541,qs),
(476,608,o),
(409,680,o),
(339,680,qs),
(236,680,ls),
(214,680,o),
(199,667,o),
(194,645,cs)
);
}
);
width = 600;
}
);
unicode = 66;
},
{
color = (153, 254, 255, 255);
glyphname = C;
layers = (
{
layerId = "2C4CF9A7-491C-47AB-B6C9-58D3194EBCE0";
shapes = (
{
closed = 1;
nodes = (
(71,567,o),
(185,740,o),
(414,740,cs),
(466,740,o),
(577,736,o),
(584,670,cs),
(585,660,o),
(584,650,o),
(583,640,cs),
(578,616,o),
(567,602,o),
(541,588,cs),
(532,583,o),
(524,583,o),
(516,583,cs),
(505,583,o),
(494,586,o),
(482,591,cs),
(458,603,o),
(432,608,o),
(397,608,cs),
(261,608,o),
(204,476,o),
(184,364,cs),
(166,260,o),
(167,122,o),
(297,122,cs),
(330,122,o),
(358,126,o),
(391,137,cs),
(405,141,o),
(418,143,o),
(431,143,cs),
(438,143,o),
(445,143,o),
(452,140,cs),
(475,131,o),
(482,110,o),
(478,85,cs),
(476,76,o),
(474,67,o),
(469,57,cs),
(438,-10,o),
(323,-10,o),
(267,-10,cs),
(51,-10,o),
(0,169,o),
(34,361,cs)
);
}
);
width = 600;
},
{
layerId = "4F1D95E0-B484-471A-8565-C56541B9E33E";
shapes = (
{
closed = 1;
nodes = (
(81,569,o),
(194,740,o),
(420,740,cs),
(468,740,o),
(573,733,o),
(576,686,cs),
(576,682,o),
(575,678,o),
(574,674,cs),
(572,657,o),
(561,639,o),
(546,633,cs),
(540,631,o),
(536,630,o),
(531,630,cs),
(524,630,o),
(517,632,o),
(513,634,cs),
(480,645,o),
(440,650,o),
(404,650,cs),
(251,650,o),
(158,496,o),
(134,362,cs),
(113,238,o),
(124,80,o),
(288,80,cs),
(327,80,o),
(357,82,o),
(394,94,cs),
(404,97,o),
(414,99,o),
(424,99,cs),
(431,99,o),
(439,98,o),
(444,95,cs),
(458,88,o),
(464,74,o),
(461,58,cs),
(460,50,o),
(457,42,o),
(450,34,cs),
(417,-10,o),
(324,-10,o),
(272,-10,cs),
(59,-10,o),
(10,168,o),
(44,362,cs)
);
}
);
width = 600;
},
{
layerId = "65670A5D-CCC8-4389-B3B7-F9F0C6F62714";
shapes = (
{
closed = 1;
nodes = (
(91,569,o),
(202,740,o),
(425,740,cs),
(468,740,o),
(553,736,o),
(570,705,cs),
(571,702,o),
(572,698,o),
(572,694,cs),
(570,685,o),
(565,674,o),
(554,669,cs),
(549,667,o),
(545,667,o),
(543,667,cs),
(536,667,o),
(531,669,o),
(524,673,cs),
(507,683,o),
(468,690,o),
(417,690,cs),
(230,690,o),
(133,522,o),
(105,365,cs),
(79,220,o),
(107,40,o),
(286,40,cs),
(319,40,o),
(379,40,o),
(421,54,cs),
(427,56,o),
(431,57,o),
(436,57,cs),
(439,57,o),
(443,56,o),
(445,54,cs),
(452,48,o),
(455,39,o),
(454,31,cs),
(453,26,o),
(451,22,o),
(448,18,cs),
(428,-8,o),
(323,-10,o),
(276,-10,cs),
(67,-10,o),
(20,168,o),
(54,362,cs)
);
}
);
width = 600;
}
);
unicode = 67;
},
{
color = (153, 254, 255, 255);
glyphname = D;
layers = (
{
layerId = "2C4CF9A7-491C-47AB-B6C9-58D3194EBCE0";
shapes = (
{
closed = 1;
nodes = (
(73,0,ls),
(13,0,o),
(-12,30,o),
(-1,90,cs),
(97,640,ls),
(108,700,o),
(143,730,o),
(203,730,cs),
(320,730,ls),
(419,730,o),
(520,672,o),
(558,551,o),
(558,485,qs),
(559,442,o),
(556,405,o),
(549,367,cs),
(543,328,o),
(531,289,o),
(515,245,cs),
(491,175,o),
(411,59,o),
(289,0,o),
(190,0,qs)
);
},
{
closed = 1;
nodes = (
(164,175,ls),
(159,148,o),
(170,135,o),
(197,135,cs),
(214,135,ls),
(283,135,o),
(354,206,o),
(369,245,qs),
(387,289,o),
(400,327,o),
(406,365,cs),
(413,403,o),
(415,442,o),
(412,485,cs),
(410,528,o),
(363,595,o),
(295,595,qs),
(278,595,ls),
(251,595,o),
(237,582,o),
(232,555,cs)
);
}
);
width = 600;
},
{
layerId = "4F1D95E0-B484-471A-8565-C56541B9E33E";
shapes = (
{
closed = 1;
nodes = (
(92,0,ls),
(38,0,o),
(17,26,o),
(26,80,cs),
(127,650,ls),
(137,704,o),
(168,730,o),
(222,730,cs),
(311,730,ls),
(382,730,o),
(484,680,o),
(519,577,o),
(523,511,qs),
(526,466,o),
(522,417,o),
(513,369,cs),
(505,318,o),
(490,268,o),
(471,220,cs),
(446,154,o),
(372,50,o),
(252,0,o),
(181,0,qs)
);
},
{
closed = 1;
nodes = (
(125,130,ls),
(120,103,o),
(131,90,o),
(158,90,cs),
(197,90,ls),
(267,90,o),
(362,165,o),
(390,230,qs),
(409,277,o),
(423,322,o),
(431,366,cs),
(439,411,o),
(441,455,o),
(439,501,cs),
(433,565,o),
(365,640,o),
(295,640,qs),
(256,640,ls),
(229,640,o),
(213,627,o),
(209,600,cs)
);
}
);
width = 600;
},
{
layerId = "65670A5D-CCC8-4389-B3B7-F9F0C6F62714";
shapes = (
{
closed = 1;
nodes = (
(101,0,ls),
(53,0,o),
(34,23,o),
(43,70,cs),
(147,660,ls),
(155,707,o),
(183,730,o),
(231,730,cs),
(281,730,ls),
(368,730,o),
(478,665,o),
(507,566,o),
(504,500,qs),
(500,449,o),
(497,407,o),
(489,365,cs),
(482,323,o),
(471,282,o),
(456,230,cs),
(436,164,o),
(372,65,o),
(238,0,o),
(151,0,qs)
);
},
{
closed = 1;
nodes = (
(96,85,ls),
(92,62,o),
(102,50,o),
(125,50,cs),
(160,50,ls),
(268,50,o),
(383,151,o),
(406,230,qs),
(420,282,o),
(431,323,o),
(438,365,cs),
(446,407,o),
(449,449,o),
(454,500,cs),
(459,578,o),
(379,680,o),
(272,680,qs),
(237,680,ls),
(214,680,o),
(200,668,o),
(195,645,cs)
);
}
);
width = 600;
}
);
unicode = 68;
},
{
color = (153, 254, 255, 255);
glyphname = E;
layers = (
{
layerId = "2C4CF9A7-491C-47AB-B6C9-58D3194EBCE0";
shapes = (
{
closed = 1;
nodes = (
(295.796,600,ls),
(266.796,600,o),
(253.68,588,o),
(248.743,560,cs),
(232.874,470,ls),
(228.994,448,o),
(235.584,440,o),
(257.584,440,cs),
(430.584,440,ls),
(472.584,440,o),
(493.528,417,o),
(486.123,375,cs),
(478.717,333,o),
(449.661,310,o),
(407.661,310,cs),
(234.661,310,ls),
(214.661,310,o),
(202.898,300,o),
(199.372,280,cs),
(179.976,170,ls),
(175.215,143,o),
(185.923,130,o),
(212.923,130,cs),
(407.923,130,ls),
(451.923,130,o),
(469.22,109,o),
(461.461,65,cs),
(453.703,21,o),
(429,0,o),
(385,0,cs),
(100,0,ls),
(33,0,o),
(5.819,33,o),
(17.633,100,cs),
(111.086,630,ls),
(122.9,697,o),
(161.719,730,o),
(228.719,730,cs),
(513.719,730,ls),
(557.719,730,o),
(575.016,709,o),
(567.257,665,cs),
(559.499,621,o),
(534.796,600,o),
(490.796,600,cs)
);
}
);
width = 600;
},
{
layerId = "4F1D95E0-B484-471A-8565-C56541B9E33E";
shapes = (
{
closed = 1;
nodes = (
(264,640,ls),
(237,640,o),
(221,627,o),
(217,600,cs),
(190,452,ls),
(187,435,o),
(194,427,o),
(211,427,cs),
(441,427,ls),
(468,427,o),
(483,409,o),
(478,382,cs),
(473,355,o),
(452,337,o),
(425,337,cs),
(195,337,ls),
(178,337,o),
(169,329,o),
(165,312,cs),
(133,130,ls),
(128,103,o),
(139,90,o),
(166,90,cs),
(415,90,ls),
(442,90,o),
(452,72,o),
(448,45,cs),
(443,18,o),
(426,0,o),
(399,0,cs),
(100,0,ls),
(46,0,o),
(25,26,o),
(34,80,cs),
(135,650,ls),
(145,704,o),
(176,730,o),
(230,730,cs),
(529,730,ls),
(556,730,o),
(566,712,o),
(562,685,cs),
(557,658,o),
(540,640,o),
(513,640,cs)
);
}
);
width = 600;
},
{
layerId = "65670A5D-CCC8-4389-B3B7-F9F0C6F62714";
shapes = (
{
closed = 1;
nodes = (
(246,680,ls),
(223,680,o),
(209,668,o),
(204,645,cs),
(166,426,ls),
(164,413,o),
(169,406,o),
(182,406,cs),
(445,406,ls),
(460,406,o),
(465,396,o),
(463,381,cs),
(460,366,o),
(452,356,o),
(437,356,cs),
(174,356,ls),
(161,356,o),
(152,349,o),
(149,336,cs),
(105,85,ls),
(101,62,o),
(111,50,o),
(134,50,cs),
(416,50,ls),
(431,50,o),
(438,40,o),
(434,25,cs),
(432,10,o),
(422,0,o),
(407,0,cs),
(110,0,ls),
(63,0,o),
(44,23,o),
(53,70,cs),
(157,660,ls),
(165,707,o),
(193,730,o),
(240,730,cs),
(537,730,ls),
(552,730,o),
(558,720,o),
(555,705,cs),
(553,690,o),
(543,680,o),
(528,680,cs)
);
}
);
width = 600;
}
);
unicode = 69;
},
{
color = (153, 254, 255, 255);
glyphname = Eopen;
layers = (
{
layerId = "2C4CF9A7-491C-47AB-B6C9-58D3194EBCE0";
shapes = (
{
closed = 1;
nodes = (
(574,561,o),
(535,520,o),
(464,520,cs),
(437,520,o),
(424,531,o),
(412,568,cs),
(402,598,o),
(375,616,o),
(336,616,cs),
(284,616,o),
(238,583,o),
(228,529,cs),
(217,465,o),
(253,440,o),
(300,440,cs),
(328,440,ls),
(370,440,o),
(385,420,o),
(378,378,cs),
(370,336,o),
(347,316,o),
(305,316,cs),
(277,316,ls),
(222,316,o),
(167,288,o),
(154,217,cs),
(143,152,o),
(190,118,o),
(250,118,cs),
(289,118,o),
(332,132,o),
(358,163,cs),
(387,198,o),
(406,210,o),
(429,210,cs),
(500,210,o),
(525,168,o),
(487,114,cs),
(431,31,o),
(327,-10,o),
(227,-10,cs),
(95,-10,o),
(-25,59,o),
(1,207,cs),
(16,291,o),
(80,368,o),
(168,386,c),
(96,399,o),
(68,469,o),
(80,541,cs),
(104,676,o),
(235,740,o),
(356,740,cs),
(454,740,o),
(535,696,o),
(558,616,cs)
);
}
);
width = 600;
},
{
anchors = (
{
name = m.uni0308;
position = "{350, 730}";
},
{
name = m.uni0325_2;
position = "{220, 0}";
}
);
layerId = "4F1D95E0-B484-471A-8565-C56541B9E33E";
shapes = (
{
closed = 1;
nodes = (
(550,553,o),
(524,530,o),
(482,530,cs),
(463,530,o),
(455,539,o),
(454,560,cs),
(453,622,o),
(410,660,o),
(342,660,cs),
(271,660,o),
(208,616,o),
(195,542,cs),
(178,448,o),
(244,420,o),
(302,420,cs),
(348,420,ls),
(375,420,o),
(387,407,o),
(382,380,cs),
(377,353,o),
(361,340,o),
(334,340,cs),
(288,340,ls),
(206,340,o),
(130,292,o),
(115,205,cs),
(99,118,o),
(159,70,o),
(241,70,cs),
(310,70,o),
(378,104,o),
(405,170,cs),
(414,191,o),
(425,200,o),
(444,200,cs),
(486,200,o),
(502,178,o),
(484,141,cs),
(438,43,o),
(334,-10,o),
(227,-10,cs),
(101,-10,o),
(-3,61,o),
(21,199,cs),
(37,286,o),
(101,368,o),
(195,384,c),
(123,403,o),
(93,477,o),
(107,551,cs),
(128,674,o),
(242,740,o),
(356,740,cs),
(462,740,o),
(538,685,o),
(545,590,cs)
);
}
);
width = 600;
},
{
layerId = "65670A5D-CCC8-4389-B3B7-F9F0C6F62714";
shapes = (
{
closed = 1;
nodes = (
(535,541,o),
(522,530,o),
(499,530,cs),
(488,530,o),
(483,536,o),
(484,547,cs),
(493,635,o),
(442,696,o),
(350,696,cs),
(262,696,o),
(187,639,o),
(171,549,cs),
(154,458,o),
(208,401,o),
(297,401,cs),
(344,401,ls),
(359,401,o),
(365,394,o),
(363,379,cs),
(359,364,o),
(351,356,o),
(336,356,cs),
(294,356,ls),
(197,356,o),
(107,299,o),
(88,196,cs),
(70,93,o),
(139,35,o),
(236,35,cs),
(328,35,o),
(413,86,o),
(438,179,cs),
(440,190,o),
(448,196,o),
(459,196,cs),
(482,196,o),
(491,184,o),
(484,163,cs),
(448,52,o),
(342,-10,o),
(228,-10,cs),
(105,-10,o),
(14,63,o),
(37,194,cs),
(53,282,o),
(121,360,o),
(212,381,c),
(137,397,o),
(107,471,o),
(120,547,cs),
(141,665,o),
(242,740,o),
(357,740,cs),
(472,740,o),
(541,670,o),
(536,563,cs)
);
}
);
width = 600;
}
);
unicode = 400;
},
{
color = (153, 254, 255, 255);
glyphname = Schwa;
layers = (
{
layerId = "2C4CF9A7-491C-47AB-B6C9-58D3194EBCE0";
shapes = (
{
closed = 1;
nodes = (
(160,310,ls),
(151,310,o),
(146,305,o),
(146,296,cs),
(134,158,o),
(163,115,o),
(235,115,cs),
(304,115,o),
(359,157,o),
(397,294,cs),
(399,304,o),
(397,310,o),
(386,310,cs)
);
},
{
closed = 1;
nodes = (
(527,740,o),
(593,593,o),
(554,373,cs),
(513,143,o),
(395,-10,o),
(213,-10,cs),
(22,-10,o),
(-20,131,o),
(22,365,cs),
(30,409,o),
(53,430,o),
(94,430,cs),
(407,430,ls),
(420,430,o),
(425,435,o),
(426,445,cs),
(434,565,o),
(385,620,o),
(315,620,cs),
(234,620,o),
(191,570,o),
(166,556,cs),
(152,548,o),
(139,542,o),
(129,542,cs),
(95,542,o),
(74,572,o),
(79,603,cs),
(82,620,o),
(92,633,o),
(105,645,cs),
(164,693,o),
(236,740,o),
(346,740,cs)
);
}
);
width = 600;
},
{
layerId = "4F1D95E0-B484-471A-8565-C56541B9E33E";
shapes = (
{
closed = 1;
nodes = (
(149,330,ls),
(138,330,o),
(134,327,o),
(131,314,cs),
(103,160,o),
(139,80,o),
(234,80,cs),
(333,80,o),
(412,180,o),
(436,316,cs),
(439,329,o),
(431,330,o),
(422,330,cs)
);
},
{
closed = 1;
nodes = (
(504,740,o),
(579,612,o),
(536,373,cs),
(496,145,o),
(393,-10,o),
(218,-10,cs),
(44,-10,o),
(1,127,o),
(44,373,cs),
(48,397,o),
(71,420,o),
(99,420,cs),
(436,420,ls),
(449,420,o),
(455,425,o),
(458,439,cs),
(480,563,o),
(424,650,o),
(325,650,cs),
(244,650,o),
(184,596,o),
(157,577,cs),
(147,571,o),
(145,568,o),
(135,568,cs),
(110,568,o),
(94,590,o),
(99,612,cs),
(101,624,o),
(108,634,o),
(117,642,cs),
(176,690,o),
(254,740,o),
(344,740,cs)
);
}
);
width = 600;
},
{
layerId = "65670A5D-CCC8-4389-B3B7-F9F0C6F62714";
shapes = (
{
closed = 1;
nodes = (
(107,342,ls),
(101,342,o),
(98,339,o),
(97,332,cs),
(65,151,o),
(98,40,o),
(228,40,cs),
(358,40,o),
(432,161,o),
(463,332,cs),
(464,338,o),
(463,342,o),
(457,342,cs)
);
},
{
closed = 1;
nodes = (
(518,730,o),
(563,594,o),
(524,373,cs),
(483,142,o),
(398,-10,o),
(218,-10,cs),
(38,-10,o),
(11,128,o),
(52,362,cs),
(55,377,o),
(68,392,o),
(84,392,cs),
(466,392,ls),
(471,392,o),
(477,396,o),
(479,403,cs),
(509,572,o),
(450,680,o),
(336,680,cs),
(235,680,o),
(197,637,o),
(157,601,cs),
(146,591,o),
(141,586,o),
(133,586,cs),
(118,586,o),
(108,604,o),
(110,618,cs),
(112,625,o),
(116,631,o),
(122,636,cs),
(183,690,o),
(235,730,o),
(345,730,cs)
);
}
);
width = 600;
}
);
unicode = 399;
},
{
color = (153, 254, 255, 255);
glyphname = F;
layers = (
{
layerId = "2C4CF9A7-491C-47AB-B6C9-58D3194EBCE0";
shapes = (
{
closed = 1;
nodes = (
(104,640,ls),
(115,700,o),
(150,730,o),
(210,730,cs),
(525,730,ls),
(569,730,o),
(586,709,o),
(578,665,cs),
(570,621,o),
(546,600,o),
(502,600,cs),
(287,600,ls),
(260,600,o),
(244,588,o),
(239,560,cs),
(223,466,ls),
(219,446,o),
(228,436,o),
(248,436,cs),
(450,436,ls),
(492,436,o),
(507,416,o),
(500,374,cs),
(493,332,o),
(469,312,o),
(427,312,cs),
(225,312,ls),
(205,312,o),
(193,302,o),
(190,282,cs),
(153,75,ls),
(144,25,o),
(115,0,o),
(65,0,cs),
(15,0,o),
(-6,25,o),
(3,75,cs)
);
}
);
width = 600;
},
{
layerId = "4F1D95E0-B484-471A-8565-C56541B9E33E";
shapes = (
{
closed = 1;
nodes = (
(130,650,ls),
(140,704,o),
(171,730,o),
(225,730,cs),
(530,730,ls),
(560,730,o),
(572,715,o),
(567,685,cs),
(561,655,o),
(544,640,o),
(514,640,cs),
(259,640,ls),
(232,640,o),
(216,627,o),
(212,600,cs),
(185,452,ls),
(182,435,o),
(189,427,o),
(206,427,cs),
(455,427,ls),
(482,427,o),
(493,414,o),
(487,387,cs),
(483,360,o),
(468,347,o),
(441,347,cs),
(192,347,ls),
(175,347,o),
(165,339,o),
(162,322,cs),
(113,45,ls),
(107,15,o),
(90,0,o),
(60,0,cs),
(30,0,o),
(17,15,o),
(23,45,cs)
);
}
);
width = 600;
},
{
layerId = "65670A5D-CCC8-4389-B3B7-F9F0C6F62714";
shapes = (
{
closed = 1;
nodes = (
(152,660,ls),
(160,707,o),
(188,730,o),
(235,730,cs),
(550,730,ls),
(567,730,o),
(573,722,o),
(570,705,cs),
(567,688,o),
(558,680,o),
(541,680,cs),
(241,680,ls),
(218,680,o),
(204,668,o),
(199,645,cs),
(161,426,ls),
(159,413,o),
(164,406,o),
(177,406,cs),
(457,406,ls),
(474,406,o),
(481,398,o),
(478,381,cs),
(474,364,o),
(466,356,o),
(449,356,cs),
(169,356,ls),
(156,356,o),
(147,349,o),
(144,336,cs),
(89,25,ls),
(87,8,o),
(77,0,o),
(60,0,cs),
(43,0,o),
(37,8,o),
(39,25,cs)
);
}
);
width = 600;
}
);
unicode = 70;
},
{
color = (153, 254, 255, 255);
glyphname = G;
layers = (
{
layerId = "2C4CF9A7-491C-47AB-B6C9-58D3194EBCE0";
shapes = (
{
closed = 1;
nodes = (
(382,248,ls),
(386,275,o),
(376,288,o),
(349,288,cs),
(311,288,ls),
(271,288,o),
(254,308,o),
(262,348,cs),
(268,388,o),
(293,408,o),
(333,408,cs),
(421,408,ls),
(501,408,o),
(533,368,o),
(519,288,cs),
(506,210,ls),
(494,144,o),
(415,45,o),
(291,-10,o),
(218,-10,qs),
(146,-10,o),
(51,45,o),
(0,145,o),
(-2,210,qs),
(-6,319,o),
(11,401,o),
(50,510,cs),
(74,576,o),
(163,685,o),
(267,740,o),
(351,740,qs),
(414,740,o),
(520,685,o),
(541,636,qs),
(545,627,o),
(548,616,qs),
(567,559,o),
(532,520,o),
(461,520,cs),
(433,520,o),
(418,532,o),
(417,540,cs),
(412,568,o),
(387,588,qs),
(368,605,o),
(328,605,qs),
(283,605,o),
(205,524,o),
(188,471,qs),
(160,388,o),
(146,334,o),
(147,238,cs),
(147,186,o),
(200,125,o),
(243,125,qs),
(288,125,o),
(368,167,o),
(376,210,qs)
);
}
);
width = 600;
},
{
layerId = "4F1D95E0-B484-471A-8565-C56541B9E33E";
shapes = (
{
closed = 1;
nodes = (
(396,270,ls),
(401,297,o),
(389,300,o),
(362,300,cs),
(299,300,ls),
(269,300,o),
(256,315,o),
(261,345,cs),
(267,375,o),
(284,390,o),
(314,390,cs),
(427,390,ls),
(481,390,o),
(502,364,o),
(493,310,cs),
(474,200,ls),
(462,136,o),
(394,41,o),
(284,-10,o),
(218,-10,qs),
(154,-10,o),
(71,40,o),
(25,136,o),
(24,200,qs),
(20,316,o),
(40,405,o),
(81,520,cs),
(103,585,o),
(184,690,o),
(285,740,o),
(351,740,qs),
(407,740,o),
(498,689,o),
(516,642,qs),
(525,617,o),
(529,588,qs),
(535,551,o),
(513,530,o),
(472,530,cs),
(453,530,o),
(442,538,o),
(440,559,cs),
(436,608,o),
(409,627,qs),
(377,650,o),
(335,650,qs),
(281,650,o),
(193,577,o),
(173,521,qs),
(131,406,o),
(112,315,o),
(116,200,cs),
(118,139,o),
(183,80,o),
(234,80,qs),
(286,80,o),
(372,138,o),
(384,200,qs)
);
}
);
width = 600;
},
{
layerId = "65670A5D-CCC8-4389-B3B7-F9F0C6F62714";
shapes = (
{
closed = 1;
nodes = (
(431,288,ls),
(434,308,o),
(427,318,o),
(407,318,cs),
(282,318,ls),
(265,318,o),
(258,326,o),
(261,343,cs),
(264,360,o),
(273,368,o),
(290,368,cs),
(435,368,ls),
(475,368,o),
(492,348,o),
(484,308,cs),
(466,200,ls),
(453,134,o),
(388,42,o),
(280,-10,o),
(218,-10,qs),
(159,-10,o),
(85,40,o),
(50,131,o),
(48,190,qs),
(45,312,o),
(68,408,o),
(109,530,cs),
(129,590,o),
(198,691,o),
(296,740,o),
(351,740,qs),
(411,740,o),
(492,688,o),
(509,641,qs),
(522,607,o),
(524,563,qs),
(525,542,o),
(514,530,o),
(491,530,cs),
(480,530,o),
(473,535,o),
(474,546,c),
(478,613,o),
(444,651,qs),
(411,690,o),
(343,690,qs),
(279,690,o),
(184,601,o),
(159,530,qs),
(118,408,o),
(96,312,o),
(98,190,cs),
(100,119,o),
(160,40,o),
(228,40,qs),
(300,40,o),
(402,122,o),
(416,200,qs)
);
}
);
width = 600;
}
);
unicode = 71;
},
{
color = (153, 254, 255, 255);
glyphname = H;
layers = (
{
layerId = "2C4CF9A7-491C-47AB-B6C9-58D3194EBCE0";
shapes = (
{
closed = 1;
nodes = (
(9,-10,o),
(-12,15,o),
(-2,65,cs),
(104,665,ls),
(113,715,o),
(142,740,o),
(192,740,cs),
(242,740,o),
(263,715,o),
(254,665,cs),
(220,474,ls),
(217,457,o),
(223,449,o),
(240,449,cs),
(358,449,ls),
(375,449,o),
(385,457,o),
(388,474,cs),
(422,665,ls),
(431,715,o),
(460,740,o),
(510,740,cs),
(560,740,o),
(581,715,o),
(572,665,cs),
(466,65,ls),
(456,15,o),
(427,-10,o),
(377,-10,cs),
(327,-10,o),
(306,15,o),
(316,65,cs),
(354,284,ls),
(357,301,o),
(351,309,o),
(334,309,cs),
(216,309,ls),
(199,309,o),
(189,301,o),
(186,284,cs),
(148,65,ls),
(138,15,o),
(109,-10,o),
(59,-10,cs)
);
}
);
width = 600;
},
{
layerId = "4F1D95E0-B484-471A-8565-C56541B9E33E";
shapes = (
{
closed = 1;
nodes = (
(26,-10,o),
(14,5,o),
(19,35,cs),
(137,695,ls),
(142,725,o),
(159,740,o),
(189,740,cs),
(219,740,o),
(232,725,o),
(227,695,cs),
(182,442,ls),
(179,429,o),
(185,422,o),
(198,422,cs),
(392,422,ls),
(405,422,o),
(413,429,o),
(416,442,cs),
(461,695,ls),
(466,725,o),
(483,740,o),
(513,740,cs),
(543,740,o),
(556,725,o),
(551,695,cs),
(433,35,ls),
(428,5,o),
(410,-10,o),
(380,-10,cs),
(350,-10,o),
(338,5,o),
(343,35,cs),
(392,312,ls),
(395,325,o),
(389,332,o),
(376,332,cs),
(182,332,ls),
(169,332,o),
(161,325,o),
(158,312,cs),
(109,35,ls),
(104,5,o),
(86,-10,o),
(56,-10,cs)
);
}
);
width = 600;
},
{
layerId = "65670A5D-CCC8-4389-B3B7-F9F0C6F62714";
shapes = (
{
closed = 1;
nodes = (
(36,-10,o),
(30,-2,o),
(32,15,cs),
(155,705,ls),
(158,722,o),
(168,730,o),
(185,730,cs),
(202,730,o),
(208,722,o),
(205,705,cs),
(154,420,ls),
(153,410,o),
(157,405,o),
(167,405,cs),
(417,405,ls),
(427,405,o),
(433,410,o),
(434,420,cs),
(485,705,ls),
(488,722,o),
(498,730,o),
(515,730,cs),
(532,730,o),
(538,722,o),
(535,705,cs),
(412,15,ls),
(410,-2,o),
(400,-10,o),
(383,-10,cs),
(366,-10,o),
(360,-2,o),
(362,15,cs),
(420,340,ls),
(422,350,o),
(418,355,o),
(408,355,cs),
(158,355,ls),
(148,355,o),
(142,350,o),
(140,340,cs),
(82,15,ls),
(80,-2,o),
(70,-10,o),
(53,-10,cs)
);
}
);
width = 600;
}
);
unicode = 72;
},
{
color = (153, 254, 255, 255);
glyphname = I;
layers = (
{
layerId = "2C4CF9A7-491C-47AB-B6C9-58D3194EBCE0";
shapes = (
{
closed = 1;
nodes = (
(68,0,ls),
(23,0,o),
(4,23,o),
(12,68,cs),
(20,113,o),
(47,135,o),
(92,135,cs),
(144,135,ls),
(161,135,o),
(170,143,o),
(173,160,cs),
(246,570,ls),
(250,587,o),
(242,595,o),
(225,595,cs),
(173,595,ls),
(128,595,o),
(109,618,o),
(118,663,cs),
(126,708,o),
(153,730,o),
(198,730,cs),
(502,730,ls),
(547,730,o),
(566,708,o),
(558,663,cs),
(549,618,o),
(522,595,o),
(477,595,cs),
(425,595,ls),
(408,595,o),
(400,587,o),
(396,570,cs),
(323,160,ls),
(320,143,o),
(327,135,o),
(344,135,cs),
(396,135,ls),
(441,135,o),
(460,113,o),
(452,68,cs),
(444,23,o),
(417,0,o),
(372,0,cs)
);
}
);
width = 600;
},
{
layerId = "4F1D95E0-B484-471A-8565-C56541B9E33E";
shapes = (
{
closed = 1;
nodes = (
(70,0,ls),
(43,0,o),
(28,18,o),
(33,45,cs),
(37,72,o),
(59,90,o),
(86,90,cs),
(170,90,ls),
(183,90,o),
(192,97,o),
(193,110,cs),
(284,620,ls),
(287,633,o),
(281,640,o),
(268,640,cs),
(184,640,ls),
(157,640,o),
(142,658,o),
(147,685,cs),
(151,712,o),
(173,730,o),
(200,730,cs),
(500,730,ls),
(527,730,o),
(541,712,o),
(537,685,cs),
(532,658,o),
(511,640,o),
(484,640,cs),
(400,640,ls),
(387,640,o),
(379,633,o),
(376,620,cs),
(285,110,ls),
(284,97,o),
(289,90,o),
(302,90,cs),
(386,90,ls),
(413,90,o),
(427,72,o),
(423,45,cs),
(418,18,o),
(397,0,o),
(370,0,cs)
);
}
);
width = 600;
},
{
layerId = "65670A5D-CCC8-4389-B3B7-F9F0C6F62714";
shapes = (
{
closed = 1;
nodes = (
(65,0,ls),
(50,0,o),
(42,10,o),
(44,25,cs),
(48,40,o),
(59,50,o),
(74,50,cs),
(190,50,ls),
(200,50,o),
(206,55,o),
(208,65,cs),
(314,665,ls),
(316,675,o),
(312,680,o),
(302,680,cs),
(186,680,ls),
(171,680,o),
(163,690,o),
(165,705,cs),
(168,720,o),
(180,730,o),
(195,730,cs),
(505,730,ls),
(520,730,o),
(528,720,o),
(525,705,cs),
(523,690,o),
(511,680,o),
(496,680,cs),
(380,680,ls),
(370,680,o),
(364,675,o),
(362,665,cs),
(256,65,ls),
(254,55,o),
(258,50,o),
(268,50,cs),
(384,50,ls),
(399,50,o),
(408,40,o),
(404,25,cs),
(402,10,o),
(390,0,o),
(375,0,cs)
);
}
);
width = 600;
}
);
unicode = 73;
},
{
color = (153, 254, 255, 255);
glyphname = IJ;
layers = (
{
layerId = "2C4CF9A7-491C-47AB-B6C9-58D3194EBCE0";
shapes = (
{
closed = 1;
nodes = (
(-4,116,o),
(32,151,o),
(95,151,cs),
(124,151,o),
(140,135,o),
(162,91,cs),
(165,84,o),
(171,78,qs),
(193,50,o),
(239,50,qs),
(285,50,o),
(348,103,o),
(357,149,qs),
(427,545,ls),
(433,579,o),
(418,595,o),
(385,595,cs),
(325,595,ls),
(308,595,o),
(300,587,o),
(296,570,cs),
(259,360,ls),
(256,343,o),
(262,335,o),
(279,335,cs),
(281,335,ls),
(326,335,o),
(346,313,o),
(338,268,cs),
(329,223,o),
(303,200,o),
(258,200,cs),
(54,200,ls),
(9,200,o),
(-11,223,o),
(-2,268,cs),
(6,313,o),
(32,335,o),
(77,335,cs),
(79,335,ls),
(96,335,o),
(106,343,o),
(109,360,cs),
(146,570,ls),
(150,587,o),
(142,595,o),
(125,595,cs),
(123,595,ls),
(78,595,o),
(59,618,o),
(68,663,cs),
(76,708,o),
(103,730,o),
(148,730,cs),
(490,730,ls),
(570,730,o),
(603,690,o),
(589,610,cs),
(507,149,ls),
(487,43,o),
(332,-80,o),
(216,-80,qs),
(102,-80,o),
(45,-17,qs),
(14,17,o),
(6,64,qs)
);
}
);
width = 600;
},
{
layerId = "4F1D95E0-B484-471A-8565-C56541B9E33E";
shapes = (
{
closed = 1;
nodes = (
(36,124,o),
(54,140,o),
(85,140,cs),
(113,140,o),
(125,127,o),
(127,95,cs),
(130,62,o),
(149,42,qs),
(179,10,o),
(242,10,qs),
(306,9,o),
(388,73,o),
(400,140,qs),
(482,600,ls),
(486,627,o),
(476,640,o),
(449,640,cs),
(303,640,ls),
(290,640,o),
(282,633,o),
(279,620,cs),
(224,310,ls),
(222,297,o),
(228,290,o),
(241,290,cs),
(275,290,ls),
(302,290,o),
(317,272,o),
(311,245,cs),
(306,218,o),
(286,200,o),
(259,200,cs),
(59,200,ls),
(32,200,o),
(16,218,o),
(21,245,cs),
(27,272,o),
(48,290,o),
(75,290,cs),
(109,290,ls),
(122,290,o),
(130,297,o),
(132,310,cs),
(187,620,ls),
(190,633,o),
(184,640,o),
(171,640,cs),
(137,640,ls),
(110,640,o),
(95,658,o),
(100,685,cs),
(104,712,o),
(126,730,o),
(153,730,cs),
(515,730,ls),
(569,730,o),
(590,704,o),
(580,650,cs),
(490,140,ls),
(472,38,o),
(330,-80,o),
(226,-80,qs),
(121,-80,o),
(72,-21,qs),
(33,24,o),
(35,95,qs)
);
}
);
width = 600;
},
{
layerId = "65670A5D-CCC8-4389-B3B7-F9F0C6F62714";
shapes = (
{
closed = 1;
nodes = (
(62,121,o),
(71,130,o),
(88,130,cs),
(104,130,o),
(111,122,o),
(109,105,cs),
(105,46,o),
(135,12,qs),
(169,-30,o),
(240,-30,qs),
(311,-31,o),
(409,53,o),
(422,129,qs),
(515,650,ls),
(519,670,o),
(511,680,o),
(491,680,cs),
(280,680,ls),
(270,680,o),
(264,675,o),
(262,665,cs),
(191,265,ls),
(189,255,o),
(193,250,o),
(203,250,cs),
(289,250,ls),
(304,250,o),
(313,240,o),
(310,225,cs),
(308,210,o),
(296,200,o),
(281,200,cs),
(31,200,ls),
(16,200,o),
(8,210,o),
(10,225,cs),
(13,240,o),
(24,250,o),
(39,250,cs),
(125,250,ls),
(135,250,o),
(141,255,o),
(143,265,cs),
(214,665,ls),
(216,675,o),
(212,680,o),
(202,680,cs),
(116,680,ls),
(101,680,o),
(93,690,o),
(95,705,cs),
(98,720,o),
(110,730,o),
(125,730,cs),
(520,730,ls),
(560,730,o),
(576,710,o),
(569,670,cs),
(472,129,ls),
(456,32,o),
(326,-80,o),
(231,-80,qs),
(136,-80,o),
(91,-24,qs),
(52,25,o),
(59,105,qs)
);
}
);
width = 600;
}
);
unicode = 306;
},
{
color = (153, 254, 255, 255);
glyphname = J;
layers = (
{
layerId = "2C4CF9A7-491C-47AB-B6C9-58D3194EBCE0";
shapes = (
{
closed = 1;
nodes = (
(-31,186,o),
(4,221,o),
(67,221,cs),
(96,221,o),
(114,205,o),
(134,161,cs),
(139,154,o),
(143,148,qs),
(166,121,o),
(212,120,qs),
(258,120,o),
(321,173,o),
(329,219,qs),
(384,530,ls),
(390,564,o),
(376,580,o),
(343,580,cs),
(253,580,ls),
(203,580,o),
(183,605,o),
(191,655,cs),
(200,705,o),
(230,730,o),
(280,730,cs),
(450,730,ls),
(530,730,o),
(563,690,o),
(549,610,cs),
(479,219,ls),
(460,113,o),
(304,-10,o),
(188,-10,qs),
(74,-10,o),
(17,53,qs),
(-14,87,o),
(-23,134,qs)
);
}
);
width = 600;
},
{
layerId = "4F1D95E0-B484-471A-8565-C56541B9E33E";
shapes = (
{
closed = 1;
nodes = (
(-2,194,o),
(17,210,o),
(48,210,cs),
(76,210,o),
(87,197,o),
(89,165,cs),
(92,132,o),
(111,112,qs),
(141,81,o),
(204,80,qs),
(268,80,o),
(350,143,o),
(363,210,qs),
(432,600,ls),
(436,627,o),
(426,640,o),
(399,640,cs),
(249,640,ls),
(219,640,o),
(206,655,o),
(212,685,cs),
(217,715,o),
(235,730,o),
(265,730,cs),
(465,730,ls),
(519,730,o),
(540,704,o),
(530,650,cs),
(453,210,ls),
(434,108,o),
(292,-10,o),
(188,-10,qs),
(83,-10,o),
(33,49,qs),
(-4,94,o),
(-3,165,qs)
);
}
);
width = 600;
},
{
layerId = "65670A5D-CCC8-4389-B3B7-F9F0C6F62714";
shapes = (
{
closed = 1;
nodes = (
(24,191,o),
(34,200,o),
(51,200,cs),
(67,200,o),
(73,192,o),
(72,175,cs),
(68,116,o),
(96,82,qs),
(132,41,o),
(203,40,qs),
(275,40,o),
(372,123,o),
(385,199,qs),
(465,650,ls),
(469,670,o),
(461,680,o),
(441,680,cs),
(261,680,ls),
(244,680,o),
(237,688,o),
(240,705,cs),
(243,722,o),
(253,730,o),
(270,730,cs),
(470,730,ls),
(510,730,o),
(526,710,o),
(519,670,cs),
(435,199,ls),
(418,102,o),
(288,-10,o),
(193,-10,qs),
(98,-10,o),
(53,46,qs),
(15,95,o),
(22,175,qs)
);
}
);
width = 600;
}
);
unicode = 74;
},
{
color = (153, 254, 255, 255);
glyphname = K;
layers = (
{
layerId = "2C4CF9A7-491C-47AB-B6C9-58D3194EBCE0";
shapes = (
{
closed = 1;
nodes = (
(103,665,ls),
(112,715,o),
(141,740,o),
(191,740,cs),
(241,740,o),
(262,715,o),
(253,665,cs),
(230,538,ls),
(229,527,o),
(236,524,o),
(244,533,cs),
(400,695,ls),
(428,725,o),
(459,740,o),
(497,740,cs),
(542,740,o),
(584,708,o),
(529,648,cs),
(338,438,ls),
(324,424,o),
(321,411,o),
(327,396,cs),
(460,88,ls),
(488,23,o),
(441,-10,o),
(385,-10,cs),
(347,-10,o),
(323,7,o),
(309,39,cs),
(204,273,ls),
(202,280,o),
(200,281,o),
(192,275,cs),
(191,274,ls),
(185,268,o),
(181,259,o),
(179,250,cs),
(147,65,ls),
(137,15,o),
(108,-10,o),
(58,-10,cs),
(8,-10,o),
(-13,15,o),
(-3,65,cs)
);
}
);
width = 600;
},
{
layerId = "4F1D95E0-B484-471A-8565-C56541B9E33E";
shapes = (
{
closed = 1;
nodes = (
(136,695,ls),
(141,725,o),
(158,740,o),
(188,740,cs),
(218,740,o),
(231,725,o),
(226,695,cs),
(180,436,ls),
(178,427,o),
(184,425,o),
(191,432,cs),
(450,712,ls),
(468,731,o),
(488,740,o),
(511,740,cs),
(531,740,o),
(566,722,o),
(530,684,cs),
(300,436,ls),
(289,425,o),
(287,415,o),
(292,403,cs),
(443,51,ls),
(461,10,o),
(434,-10,o),
(397,-10,cs),
(373,-10,o),
(358,0,o),
(349,20,cs),
(217,318,ls),
(211,330,o),
(204,330,o),
(195,319,cs),
(165,286,ls),
(154,275,o),
(149,263,o),
(146,250,cs),
(108,35,ls),
(103,5,o),
(85,-10,o),
(55,-10,cs),
(25,-10,o),
(13,5,o),
(18,35,cs)
);
}
);
width = 600;
},
{
layerId = "65670A5D-CCC8-4389-B3B7-F9F0C6F62714";
shapes = (
{
closed = 1;
nodes = (
(157,715,ls),
(160,732,o),
(169,740,o),
(186,740,cs),
(203,740,o),
(210,732,o),
(207,715,cs),
(145,365,ls),
(143,359,o),
(149,358,o),
(153,362,cs),
(491,723,ls),
(504,737,o),
(514,740,o),
(531,740,cs),
(545,740,o),
(562,728,o),
(539,705,cs),
(287,438,ls),
(279,430,o),
(277,422,o),
(281,413,cs),
(444,25,ls),
(454,2,o),
(435,-10,o),
(418,-10,cs),
(405,-10,o),
(396,-5,o),
(391,7,cs),
(237,368,ls),
(234,377,o),
(228,377,o),
(220,369,cs),
(139,281,ls),
(131,273,o),
(127,264,o),
(125,254,cs),
(82,15,ls),
(80,-2,o),
(70,-10,o),
(53,-10,cs),
(36,-10,o),
(30,-2,o),
(32,15,cs)
);
}
);
width = 600;
}
);
unicode = 75;
},
{
color = (153, 254, 255, 255);
glyphname = L;
layers = (
{
layerId = "2C4CF9A7-491C-47AB-B6C9-58D3194EBCE0";
shapes = (
{
closed = 1;
nodes = (
(155,0,ls),
(75,0,o),
(43,40,o),
(57,120,cs),
(153,665,ls),
(162,715,o),
(191,740,o),
(241,740,cs),
(291,740,o),
(312,715,o),
(303,665,cs),
(219,195,ls),
(213,155,o),
(229,135,o),
(269,135,cs),
(437,135,ls),
(482,135,o),
(500,113,o),
(492,68,cs),
(484,23,o),
(457,0,o),
(412,0,cs)
);
}
);
width = 600;
},
{
layerId = "4F1D95E0-B484-471A-8565-C56541B9E33E";
shapes = (
{
closed = 1;
nodes = (
(130,0,ls),
(76,0,o),
(55,26,o),
(64,80,cs),
(174,695,ls),
(179,725,o),
(196,740,o),
(226,740,cs),
(256,740,o),
(269,725,o),
(264,695,cs),
(163,130,ls),
(158,103,o),
(169,90,o),
(196,90,cs),
(441,90,ls),
(468,90,o),
(482,72,o),
(478,45,cs),
(473,18,o),
(452,0,o),
(425,0,cs)
);
}
);
width = 600;
},
{
layerId = "65670A5D-CCC8-4389-B3B7-F9F0C6F62714";
shapes = (
{
closed = 1;
nodes = (
(120,0,ls),
(80,0,o),
(63,20,o),
(71,60,cs),
(187,715,ls),
(190,732,o),
(199,740,o),
(216,740,cs),
(233,740,o),
(240,732,o),
(237,715,cs),
(124,80,ls),
(121,60,o),
(129,50,o),
(149,50,cs),
(449,50,ls),
(464,50,o),
(473,40,o),
(469,25,cs),
(467,10,o),
(455,0,o),
(440,0,cs)
);
}
);
width = 600;
}
);
unicode = 76;
},
{
color = (153, 254, 255, 255);
glyphname = M;
layers = (
{
layerId = "2C4CF9A7-491C-47AB-B6C9-58D3194EBCE0";
shapes = (
{
closed = 1;
nodes = (
(491,60,ls),
(483,13,o),
(455,-10,o),
(408,-10,cs),
(361,-10,o),
(343,13,o),
(351,60,cs),
(430,510,ls),
(434,527,o),
(428,527,o),
(421,510,cs),
(343,288,ls),
(329,249,o),
(301,230,o),
(261,230,cs),
(221,230,o),
(199,249,o),
(199,288,cs),
(199,510,ls),
(200,526,o),
(194,527,o),
(190,510,cs),
(111,60,ls),
(103,13,o),
(75,-10,o),
(28,-10,cs),
(-19,-10,o),
(-37,13,o),
(-29,60,cs),
(68,608,ls),
(84,696,o),
(135,740,o),
(203,740,cs),
(272,740,o),
(294,713,o),
(293,658,cs),
(292,460,ls),
(291,420,o),
(299,421,o),
(313,460,cs),
(381,658,ls),
(400,713,o),
(440,740,o),
(505,740,cs),
(567,740,o),
(604,696,o),
(590,614,cs)
);
}
);
width = 600;
},
{
layerId = "4F1D95E0-B484-471A-8565-C56541B9E33E";
shapes = (
{
closed = 1;
nodes = (
(466,35,ls),
(461,5,o),
(443,-10,o),
(413,-10,cs),
(383,-10,o),
(371,5,o),
(376,35,cs),
(475,590,ls),
(479,612,o),
(472,612,o),
(462,590,cs),
(320,277,ls),
(309,252,o),
(289,240,o),
(263,240,cs),
(237,240,o),
(221,252,o),
(218,277,cs),
(188,590,ls),
(186,613,o),
(179,612,o),
(175,590,cs),
(76,35,ls),
(71,5,o),
(53,-10,o),
(23,-10,cs),
(-7,-10,o),
(-19,5,o),
(-14,35,cs),
(96,655,ls),
(107,712,o),
(139,740,o),
(186,740,cs),
(232,740,o),
(255,722,o),
(259,685,cs),
(282,410,ls),
(284,384,o),
(292,384,o),
(304,410,cs),
(425,685,ls),
(441,722,o),
(470,740,o),
(516,740,cs),
(563,740,o),
(587,712,o),
(576,655,cs)
);
}
);
width = 600;
},
{
layerId = "65670A5D-CCC8-4389-B3B7-F9F0C6F62714";
shapes = (
{
closed = 1;
nodes = (
(433,15,ls),
(430,-2,o),
(420,-10,o),
(403,-10,cs),
(386,-10,o),
(380,-2,o),
(383,15,cs),
(494,640,ls),
(497,660,o),
(490,660,o),
(481,640,cs),
(306,276,ls),
(298,258,o),
(283,250,o),
(264,250,cs),
(245,250,o),
(234,258,o),
(232,276,cs),
(187,640,ls),
(184,661,o),
(177,659,o),
(174,640,cs),
(63,15,ls),
(60,-2,o),
(50,-10,o),
(33,-10,cs),
(16,-10,o),
(10,-2,o),
(13,15,cs),
(133,692,ls),
(139,724,o),
(157,740,o),
(189,740,cs),
(213,740,o),
(228,729,o),
(230,706,cs),
(273,350,ls),
(276,331,o),
(282,331,o),
(291,350,cs),
(460,706,ls),
(472,729,o),
(489,740,o),
(513,740,cs),
(545,740,o),
(559,724,o),
(553,692,cs)
);
}
);
width = 600;
}
);
unicode = 77;
},
{
color = (153, 254, 255, 255);
glyphname = N;
layers = (
{
layerId = "2C4CF9A7-491C-47AB-B6C9-58D3194EBCE0";
shapes = (
{
closed = 1;
nodes = (
(82,629,ls),
(94,703,o),
(138,740,o),
(212,740,cs),
(262,740,o),
(288,716,o),
(296,669,cs),
(363,240,ls),
(363,236,o),
(365,234,o),
(368,234,cs),
(371,234,o),
(372,236,o),
(373,240,cs),
(449,670,ls),
(457,717,o),
(484,740,o),
(531,740,cs),
(578,740,o),
(597,717,o),
(589,670,cs),
(487,101,ls),
(475,27,o),
(431,-10,o),
(357,-10,cs),
(307,-10,o),
(282,14,o),
(274,61,cs),
(207,490,ls),
(207,494,o),
(205,496,o),
(202,496,cs),
(199,496,o),
(198,494,o),
(197,490,cs),
(121,60,ls),
(113,13,o),
(85,-10,o),
(38,-10,cs),
(-9,-10,o),
(-27,13,o),
(-19,60,cs)
);
}
);
width = 600;
},
{
layerId = "4F1D95E0-B484-471A-8565-C56541B9E33E";
shapes = (
{
closed = 1;
nodes = (
(118,662,ls),
(127,714,o),
(157,740,o),
(209,740,cs),
(244,740,o),
(263,723,o),
(269,690,cs),
(368,150,ls),
(368,146,o),
(369,144,o),
(372,144,cs),
(375,144,o),
(376,146,o),
(377,150,cs),
(474,695,ls),
(479,725,o),
(496,740,o),
(526,740,cs),
(556,740,o),
(569,725,o),
(564,695,cs),
(452,68,ls),
(442,16,o),
(412,-10,o),
(360,-10,cs),
(325,-10,o),
(307,7,o),
(302,40,cs),
(202,580,ls),
(202,584,o),
(202,586,o),
(199,586,cs),
(196,586,o),
(194,584,o),
(193,580,cs),
(96,35,ls),
(91,5,o),
(73,-10,o),
(43,-10,cs),
(13,-10,o),
(1,5,o),
(6,35,cs)
);
}
);
width = 600;
},
{
layerId = "65670A5D-CCC8-4389-B3B7-F9F0C6F62714";
shapes = (
{
closed = 1;
nodes = (
(153,693,ls),
(159,724,o),
(177,740,o),
(208,740,cs),
(232,740,o),
(246,729,o),
(249,707,cs),
(364,80,ls),
(364,76,o),
(366,74,o),
(369,74,cs),
(372,74,o),
(373,76,o),
(374,80,cs),
(487,715,ls),
(490,732,o),
(499,740,o),
(516,740,cs),
(533,740,o),
(540,732,o),
(537,715,cs),
(417,37,ls),
(411,6,o),
(392,-10,o),
(361,-10,cs),
(337,-10,o),
(324,1,o),
(320,23,cs),
(205,650,ls),
(205,654,o),
(203,656,o),
(200,656,cs),
(197,656,o),
(196,654,o),
(195,650,cs),
(82,15,ls),
(80,-2,o),
(70,-10,o),
(53,-10,cs),
(36,-10,o),
(30,-2,o),
(32,15,cs)
);
}
);
width = 600;
}
);
unicode = 78;
},
{
color = (153, 254, 255, 255);
glyphname = O;
layers = (
{
layerId = "2C4CF9A7-491C-47AB-B6C9-58D3194EBCE0";
shapes = (
{
closed = 1;
nodes = (
(335,115,o),
(375,283,o),
(390,365,cs),
(404,448,o),
(425,615,o),
(330,615,cs),
(236,615,o),
(194,447,o),
(180,365,cs),
(165,283,o),
(146,115,o),
(240,115,cs)
);
},
{
closed = 1;
nodes = (
(3,-10,o),
(2,208,o),
(30,365,cs),
(58,522,o),
(133,740,o),
(351,740,cs),
(567,740,o),
(568,524,o),
(541,371,cs),
(512,208,o),
(432,-10,o),
(218,-10,cs)
);
}
);
width = 600;
},
{
layerId = "4F1D95E0-B484-471A-8565-C56541B9E33E";
shapes = (
{
closed = 1;
nodes = (
(362,80,o),
(416,271,o),
(432,367,cs),
(449,460,o),
(464,650,o),
(335,650,cs),
(206,650,o),
(155,459,o),
(138,366,cs),
(122,271,o),
(106,80,o),
(234,80,cs)
);
},
{
closed = 1;
nodes = (
(18,-10,o),
(20,208,o),
(48,367,cs),
(76,522,o),
(149,740,o),
(351,740,cs),
(552,740,o),
(550,524,o),
(522,368,cs),
(494,208,o),
(417,-10,o),
(218,-10,cs)
);
}
);
width = 600;
},
{
layerId = "65670A5D-CCC8-4389-B3B7-F9F0C6F62714";
shapes = (
{
closed = 1;
nodes = (
(381,40,o),
(446,260,o),
(465,367,cs),
(484,472,o),
(497,690,o),
(343,690,cs),
(189,690,o),
(124,470,o),
(105,365,cs),
(86,260,o),
(75,40,o),
(228,40,cs)
);
},
{
closed = 1;
nodes = (
(24,-10,o),
(27,208,o),
(55,367,cs),
(83,522,o),
(155,740,o),
(351,740,cs),
(547,740,o),
(543,524,o),
(515,369,cs),
(487,208,o),
(411,-10,o),
(218,-10,cs)
);
}
);
width = 600;
}
);
unicode = 79;
},
{
color = (153, 254, 255, 255);
glyphname = OE;
layers = (
{
layerId = "2C4CF9A7-491C-47AB-B6C9-58D3194EBCE0";
shapes = (
{
closed = 1;
nodes = (
(235,115,o),
(275,283,o),
(290,365,cs),
(304,448,o),
(325,615,o),
(250,615,cs),
(176,615,o),
(134,447,o),
(120,365,cs),
(105,283,o),
(86,115,o),
(160,115,cs)
);
},
{
closed = 1;
nodes = (
(-57,-10,o),
(-58,208,o),
(-30,365,cs),
(-2,522,o),
(76,740,o),
(271,740,cs),
(470,740,o),
(468,524,o),
(440,365,cs),
(412,208,o),
(332,-10,o),
(138,-10,cs)
);
},
{
closed = 1;
nodes = (
(185,0,l),
(298,130,l),
(493,130,ls),
(537,130,o),
(554,109,o),
(547,65,cs),
(538,21,o),
(514,0,o),
(470,0,cs)
);
},
{
closed = 1;
nodes = (
(319,308,l),
(344,440,l),
(517,440,ls),
(559,440,o),
(578,417,o),
(571,375,cs),
(563,333,o),
(534,308,o),
(492,308,cs)
);
},
{
closed = 1;
nodes = (
(382,600,l),
(315,730,l),
(600,730,ls),
(644,730,o),
(661,709,o),
(653,665,cs),
(645,621,o),
(621,600,o),
(577,600,cs)
);
}
);
width = 600;
},
{
layerId = "4F1D95E0-B484-471A-8565-C56541B9E33E";
shapes = (
{
closed = 1;
nodes = (
(262,80,o),
(316,271,o),
(332,365,cs),
(349,460,o),
(364,650,o),
(255,650,cs),
(146,650,o),
(95,459,o),
(78,365,cs),
(62,271,o),
(46,80,o),
(154,80,cs)
);
},
{
closed = 1;
nodes = (
(-42,-10,o),
(-40,208,o),
(-12,365,cs),
(16,522,o),
(91,740,o),
(271,740,cs),
(454,740,o),
(450,524,o),
(422,365,cs),
(394,208,o),
(317,-10,o),
(138,-10,cs)
);
},
{
closed = 1;
nodes = (
(180,0,l),
(246,90,l),
(495,90,ls),
(522,90,o),
(532,72,o),
(528,45,cs),
(523,18,o),
(506,0,o),
(479,0,cs)
);
},
{
closed = 1;
nodes = (
(365,337,l),
(381,427,l),
(521,427,ls),
(548,427,o),
(563,409,o),
(558,382,cs),
(553,355,o),
(532,337,o),
(505,337,cs)
);
},
{
closed = 1;
nodes = (
(344,640,l),
(310,730,l),
(609,730,ls),
(636,730,o),
(646,712,o),
(642,685,cs),
(637,658,o),
(620,640,o),
(593,640,cs)
);
}
);
width = 600;
},
{
layerId = "65670A5D-CCC8-4389-B3B7-F9F0C6F62714";
shapes = (
{
closed = 1;
nodes = (
(281,40,o),
(340,260,o),
(359,365,cs),
(378,472,o),
(397,690,o),
(263,690,cs),
(129,690,o),
(70,470,o),
(51,365,cs),
(32,260,o),
(15,40,o),
(148,40,cs)
);
},
{
closed = 1;
nodes = (
(-36,-10,o),
(-27,208,o),
(1,365,cs),
(29,522,o),
(97,740,o),
(271,740,cs),
(449,740,o),
(437,524,o),
(409,365,cs),
(381,208,o),
(311,-10,o),
(138,-10,cs)
);
},
{
closed = 1;
nodes = (
(190,0,l),
(214,50,l),
(496,50,ls),
(511,50,o),
(518,40,o),
(514,25,cs),
(512,10,o),
(502,0,o),
(487,0,cs)
);
},
{
closed = 1;
nodes = (
(384,356,l),
(392,406,l),
(525,406,ls),
(540,406,o),
(545,396,o),
(543,381,cs),
(540,366,o),
(532,356,o),
(517,356,cs)
);
},
{
closed = 1;
nodes = (
(326,680,l),
(320,730,l),
(617,730,ls),
(632,730,o),
(638,720,o),
(635,705,cs),
(633,690,o),
(623,680,o),
(608,680,cs)
);
}
);
width = 600;
}
);
unicode = 338;
},
{
color = (153, 254, 255, 255);
glyphname = P;
layers = (
{
layerId = "2C4CF9A7-491C-47AB-B6C9-58D3194EBCE0";
shapes = (
{
closed = 1;
nodes = (
(98,630,ls),
(110,697,o),
(149,730,o),
(216,730,cs),
(365,730,ls),
(442,730,o),
(547,672,o),
(593,578,o),
(580,508,qs),
(568,439,o),
(487,344,o),
(363,286,o),
(286,286,qs),
(212,286,ls),
(195,286,o),
(185,278,o),
(182,261,cs),
(148,65,ls),
(138,15,o),
(108,-10,o),
(58,-10,cs),
(8,-10,o),
(-12,15,o),
(-2,65,cs)
);
},
{
closed = 1;
nodes = (
(215,441,ls),
(211,424,o),
(217,416,o),
(234,416,cs),
(308,416,ls),
(356,416,o),
(423,464,o),
(430,508,qs),
(438,552,o),
(390,600,o),
(342,600,qs),
(293,600,ls),
(260,600,o),
(240,583,o),
(234,550,cs)
);
}
);
width = 600;
},
{
layerId = "4F1D95E0-B484-471A-8565-C56541B9E33E";
shapes = (
{
closed = 1;
nodes = (
(127,650,ls),
(137,704,o),
(168,730,o),
(222,730,cs),
(377,730,ls),
(445,730,o),
(535,677,o),
(575,591,o),
(564,525,qs),
(552,460,o),
(481,373,o),
(372,320,o),
(304,320,qs),
(184,320,ls),
(167,320,o),
(157,312,o),
(155,295,cs),
(108,35,ls),
(103,5,o),
(85,-10,o),
(55,-10,cs),
(25,-10,o),
(13,5,o),
(18,35,cs)
);
},
{
closed = 1;
nodes = (
(179,435,ls),
(176,418,o),
(183,410,o),
(200,410,cs),
(320,410,ls),
(379,410,o),
(461,473,o),
(471,525,qs),
(480,578,o),
(420,640,o),
(361,640,qs),
(256,640,ls),
(229,640,o),
(213,627,o),
(209,600,cs)
);
}
);
width = 600;
},
{
layerId = "65670A5D-CCC8-4389-B3B7-F9F0C6F62714";
shapes = (
{
closed = 1;
nodes = (
(149,670,ls),
(156,710,o),
(180,730,o),
(220,730,cs),
(375,730,ls),
(439,730,o),
(524,680,o),
(561,599,o),
(550,537,qs),
(539,476,o),
(473,394,o),
(370,344,o),
(306,344,qs),
(161,344,ls),
(148,344,o),
(140,337,o),
(138,324,cs),
(82,15,ls),
(80,-2,o),
(70,-10,o),
(53,-10,cs),
(36,-10,o),
(30,-2,o),
(32,15,cs)
);
},
{
closed = 1;
nodes = (
(154,414,ls),
(151,401,o),
(157,394,o),
(170,394,cs),
(315,394,ls),
(388,394,o),
(489,469,o),
(500,537,qs),
(513,606,o),
(440,680,o),
(366,680,qs),
(231,680,ls),
(211,680,o),
(199,670,o),
(195,650,cs)
);
}
);
width = 600;
}
);
unicode = 80;
},
{
color = (153, 254, 255, 255);
glyphname = Thorn;
layers = (
{
layerId = "2C4CF9A7-491C-47AB-B6C9-58D3194EBCE0";
shapes = (
{
closed = 1;
nodes = (
(15,0,o),
(-6,25,o),
(3,75,cs),
(106,655,ls),
(115,705,o),
(145,730,o),
(195,730,cs),
(245,730,o),
(265,705,o),
(256,655,cs),
(250,620,ls),
(247,603,o),
(253,595,o),
(270,595,cs),
(365,595,ls),
(437,595,o),
(532,544,o),
(569,448,o),
(558,380,qs),
(540,280,o),
(396,165,o),
(289,165,qs),
(194,165,ls),
(177,165,o),
(168,157,o),
(165,140,cs),
(153,75,ls),
(144,25,o),
(115,0,o),
(65,0,cs)
);
},
{
closed = 1;
nodes = (
(196,315,ls),
(193,298,o),
(200,290,o),
(217,290,cs),
(287,290,ls),
(338,290,o),
(400,337,o),
(408,380,qs),
(415,424,o),
(370,470,o),
(319,470,qs),
(249,470,ls),
(232,470,o),
(222,462,o),
(219,445,cs)
);
}
);
width = 600;
},
{
layerId = "4F1D95E0-B484-471A-8565-C56541B9E33E";
shapes = (
{
closed = 1;
nodes = (
(25,0,o),
(12,15,o),
(18,45,cs),
(132,685,ls),
(137,715,o),
(155,730,o),
(185,730,cs),
(215,730,o),
(227,715,o),
(222,685,cs),
(207,600,ls),
(205,587,o),
(210,580,o),
(223,580,cs),
(356,580,ls),
(422,580,o),
(510,530,o),
(549,440,o),
(538,380,qs),
(521,289,o),
(384,180,o),
(285,180,qs),
(152,180,ls),
(139,180,o),
(131,173,o),
(128,160,cs),
(108,45,ls),
(102,15,o),
(85,0,o),
(55,0,cs)
);
},
{
closed = 1;
nodes = (
(150,280,ls),
(148,267,o),
(153,260,o),
(166,260,cs),
(299,260,ls),
(357,260,o),
(435,325,o),
(445,380,qs),
(455,436,o),
(399,500,o),
(342,500,qs),
(209,500,ls),
(196,500,o),
(188,493,o),
(185,480,cs)
);
}
);
width = 600;
},
{
layerId = "65670A5D-CCC8-4389-B3B7-F9F0C6F62714";
shapes = (
{
closed = 1;
nodes = (
(33,0,o),
(27,8,o),
(29,25,cs),
(150,705,ls),
(153,722,o),
(163,730,o),
(180,730,cs),
(197,730,o),
(203,722,o),
(200,705,cs),
(178,580,ls),
(176,570,o),
(180,565,o),
(190,565,cs),
(353,565,ls),
(414,565,o),
(495,520,o),
(528,437,o),
(518,380,qs),
(503,295,o),
(378,195,o),
(287,195,qs),
(124,195,ls),
(114,195,o),
(108,190,o),
(107,180,cs),
(79,25,ls),
(77,8,o),
(67,0,o),
(50,0,cs)
);
},
{
closed = 1;
nodes = (
(120,256,ls),
(118,246,o),
(123,241,o),
(133,241,cs),
(296,241,ls),
(364,241,o),
(456,316,o),
(468,380,qs),
(479,445,o),
(414,520,o),
(346,520,qs),
(183,520,ls),
(173,520,o),
(166,515,o),
(164,505,cs)
);
}
);
width = 600;
}
);
unicode = 222;
},
{
color = (153, 254, 255, 255);
glyphname = Q;
layers = (
{
layerId = "2C4CF9A7-491C-47AB-B6C9-58D3194EBCE0";
shapes = (
{
closed = 1;
nodes = (
(335,115,o),
(375,283,o),
(390,365,cs),
(404,448,o),
(425,615,o),
(330,615,cs),
(236,615,o),
(194,447,o),
(180,365,cs),
(165,283,o),
(146,115,o),
(240,115,cs)
);
},
{
closed = 1;
nodes = (
(3,-10,o),
(2,208,o),
(30,365,cs),
(58,522,o),
(133,740,o),
(351,740,cs),
(567,740,o),
(568,524,o),
(541,371,cs),
(512,208,o),
(432,-10,o),
(218,-10,cs)
);
},
{
closed = 1;
nodes = (
(196,-177,ls),
(168,-168,o),
(154,-151,o),
(159,-124,cs),
(160,-117,o),
(163,-109,o),
(167,-100,cs),
(180,-69,o),
(202,-53,o),
(228,-53,cs),
(235,-53,o),
(243,-54,o),
(250,-56,cs),
(403,-102,ls),
(432,-111,o),
(446,-128,o),
(441,-156,cs),
(440,-163,o),
(438,-171,o),
(433,-180,cs),
(419,-211,o),
(399,-227,o),
(374,-227,cs),
(368,-227,o),
(363,-227,o),
(349,-223,cs)
);
}
);
width = 600;
},
{
layerId = "4F1D95E0-B484-471A-8565-C56541B9E33E";
shapes = (
{
closed = 1;
nodes = (
(362,80,o),
(416,271,o),
(432,367,cs),
(449,460,o),
(464,650,o),
(335,650,cs),
(206,650,o),
(155,459,o),
(138,366,cs),
(122,271,o),
(106,80,o),
(234,80,cs)
);
},
{
closed = 1;
nodes = (
(18,-10,o),
(20,208,o),
(48,367,cs),
(76,522,o),
(149,740,o),
(351,740,cs),
(552,740,o),
(550,524,o),
(522,368,cs),
(494,208,o),
(417,-10,o),
(218,-10,cs)
);
},
{
closed = 1;
nodes = (
(192,-154,ls),
(171,-148,o),
(162,-136,o),
(165,-117,cs),
(166,-112,o),
(169,-105,o),
(171,-99,cs),
(182,-76,o),
(196,-65,o),
(213,-65,cs),
(218,-65,o),
(221,-66,o),
(224,-67,cs),
(396,-113,ls),
(418,-119,o),
(428,-132,o),
(424,-152,cs),
(423,-157,o),
(421,-163,o),
(418,-169,cs),
(408,-192,o),
(393,-202,o),
(374,-202,cs),
(369,-202,o),
(363,-202,o),
(357,-200,cs)
);
}
);
width = 600;
},
{
layerId = "65670A5D-CCC8-4389-B3B7-F9F0C6F62714";
shapes = (
{
closed = 1;
nodes = (
(381,40,o),
(446,260,o),
(465,367,cs),
(484,472,o),
(497,690,o),
(343,690,cs),
(189,690,o),
(124,470,o),
(105,365,cs),
(86,260,o),
(75,40,o),
(228,40,cs)
);
},
{
closed = 1;
nodes = (
(24,-10,o),
(27,208,o),
(55,367,cs),
(83,522,o),
(155,740,o),
(351,740,cs),
(547,740,o),
(543,524,o),
(515,369,cs),
(487,208,o),
(411,-10,o),
(218,-10,cs)
);
},
{
closed = 1;
nodes = (
(189,-124,ls),
(176,-121,o),
(173,-114,o),
(175,-104,cs),
(176,-101,o),
(175,-97,o),
(177,-92,cs),
(183,-81,o),
(191,-75,o),
(202,-75,cs),
(205,-75,o),
(208,-75,o),
(211,-76,cs),
(394,-127,ls),
(407,-130,o),
(411,-139,o),
(409,-150,cs),
(408,-153,o),
(408,-156,o),
(407,-160,cs),
(401,-172,o),
(393,-177,o),
(382,-177,cs),
(379,-177,o),
(375,-177,o),
(373,-176,cs)
);
}
);
width = 600;
}
);
unicode = 81;
},
{
color = (153, 254, 255, 255);
glyphname = R;
layers = (
{
layerId = "2C4CF9A7-491C-47AB-B6C9-58D3194EBCE0";
shapes = (
{
closed = 1;
nodes = (
(8,-10,o),
(-11,14,o),
(-2,64,cs),
(98,630,ls),
(110,697,o),
(149,730,o),
(217,730,cs),
(351,730,ls),
(428,730,o),
(532,676,o),
(578,579,o),
(567,519,qs),
(555,450,o),
(504,392,qs),
(473,355,o),
(436,336,qs),
(420,327,o),
(412,319,o),
(410,311,cs),
(409,307,o),
(410,302,o),
(412,298,cs),
(478,86,ls),
(486,64,o),
(487,46,o),
(485,32,cs),
(480,4,o),
(456,-10,o),
(414,-10,cs),
(368,-10,o),
(343,6,o),
(334,38,cs),
(264,274,ls),
(260,289,o),
(251,296,o),
(234,296,cs),
(214,296,ls),
(197,296,o),
(187,288,o),
(185,271,cs),
(148,64,ls),
(139,14,o),
(110,-10,o),
(59,-10,cs)
);
},
{
closed = 1;
nodes = (
(216,451,ls),
(213,434,o),
(220,426,o),
(237,426,cs),
(297,426,ls),
(346,426,o),
(408,466,o),
(416,511,qs),
(425,558,o),
(377,600,o),
(328,600,qs),
(292,600,ls),
(259,600,o),
(240,583,o),
(234,550,cs)
);
}
);
width = 600;
},
{
layerId = "4F1D95E0-B484-471A-8565-C56541B9E33E";
shapes = (
{
closed = 1;
nodes = (
(26,-10,o),
(14,5,o),
(19,35,cs),
(128,650,ls),
(138,704,o),
(169,730,o),
(223,730,cs),
(368,730,ls),
(433,730,o),
(521,677,o),
(560,593,o),
(550,537,qs),
(539,477,o),
(497,421,qs),
(456,368,o),
(412,352,qs),
(392,345,o),
(385,337,o),
(384,329,cs),
(383,325,o),
(383,321,o),
(384,317,cs),
(467,48,ls),
(471,35,o),
(473,25,o),
(471,16,cs),
(469,-1,o),
(453,-10,o),
(427,-10,cs),
(400,-10,o),
(386,-1,o),
(379,19,cs),
(289,308,ls),
(286,323,o),
(273,330,o),
(256,330,cs),
(185,330,ls),
(168,330,o),
(159,322,o),
(156,305,cs),
(108,35,ls),
(103,5,o),
(86,-10,o),
(56,-10,cs)
);
},
{
closed = 1;
nodes = (
(181,445,ls),
(178,428,o),
(184,420,o),
(201,420,cs),
(312,420,ls),
(368,420,o),
(447,481,o),
(456,530,qs),
(465,580,o),
(408,640,o),
(352,640,qs),
(256,640,ls),
(229,640,o),
(213,627,o),
(209,600,cs)
);
}
);
width = 600;
},
{
layerId = "65670A5D-CCC8-4389-B3B7-F9F0C6F62714";
shapes = (
{
closed = 1;
nodes = (
(36,-10,o),
(30,-2,o),
(32,15,cs),
(149,670,ls),
(156,710,o),
(180,730,o),
(220,730,cs),
(365,730,ls),
(430,730,o),
(515,681,o),
(552,602,o),
(543,548,qs),
(530,481,o),
(482,425,qs),
(432,366,o),
(372,357,qs),
(355,355,o),
(349,351,o),
(347,344,cs),
(346,341,o),
(347,338,o),
(348,335,cs),
(454,25,ls),
(457,17,o),
(458,10,o),
(457,5,cs),
(455,-5,o),
(447,-10,o),
(432,-10,cs),
(415,-10,o),
(405,-4,o),
(402,8,cs),
(294,332,ls),
(290,344,o),
(280,350,o),
(267,350,cs),
(162,350,ls),
(149,350,o),
(141,343,o),
(138,330,cs),
(82,15,ls),
(80,-2,o),
(70,-10,o),
(53,-10,cs)
);
},
{
closed = 1;
nodes = (
(154,420,ls),
(153,407,o),
(158,400,o),
(171,400,cs),
(306,400,ls),
(379,400,o),
(479,475,o),
(491,540,qs),
(503,607,o),
(429,680,o),
(356,680,qs),
(231,680,ls),
(211,680,o),
(199,670,o),
(195,650,cs)
);
}
);
width = 600;
}
);
unicode = 82;
},
{
color = (153, 254, 255, 255);
glyphname = S;
layers = (
{
layerId = "2C4CF9A7-491C-47AB-B6C9-58D3194EBCE0";
shapes = (
{
closed = 1;
nodes = (
(-15,170,o),
(26,210,o),
(96,210,cs),
(119,210,o),
(134,197,o),
(150,163,cs),
(155,153,o),
(164,145,qs),
(189,121,o),
(238,120,qs),
(287,120,o),
(350,167,o),
(357,206,qs),
(363,237,o),
(335,286,o),
(302,294,qs),
(217,315,ls),
(134,335,o),
(53,450,o),
(67,530,qs),
(79,595,o),
(152,689,o),
(268,740,o),
(341,740,qs),
(415,740,o),
(515,689,o),
(535,642,qs),
(538,634,o),
(540,626,qs),
(557,572,o),
(519,531,o),
(448,531,cs),
(428,531,o),
(411,546,o),
(394,578,cs),
(390,585,o),
(384,591,qs),
(363,613,o),
(319,612,qs),
(276,612,o),
(221,570,o),
(214,535,qs),
(209,506,o),
(239,470,o),
(270,462,qs),
(359,441,ls),
(441,421,o),
(520,295,o),
(504,206,qs),
(493,141,o),
(415,43,o),
(292,-10,o),
(215,-10,qs),
(138,-10,o),
(34,45,o),
(11,94,qs),
(6,105,o),
(2,115,qs)
);
}
);
width = 600;
},
{
layerId = "4F1D95E0-B484-471A-8565-C56541B9E33E";
shapes = (
{
closed = 1;
nodes = (
(21,184,o),
(39,200,o),
(70,200,cs),
(97,200,o),
(109,187,o),
(113,155,cs),
(117,125,o),
(138,105,qs),
(171,71,o),
(234,70,qs),
(296,70,o),
(383,142,o),
(393,200,qs),
(401,244,o),
(365,309,o),
(324,321,qs),
(218,352,ls),
(152,371,o),
(92,475,o),
(104,545,qs),
(114,603,o),
(182,691,o),
(284,740,o),
(345,740,qs),
(407,740,o),
(494,692,o),
(513,648,qs),
(524,623,o),
(525,592,qs),
(526,564,o),
(509,547,o),
(477,547,cs),
(451,547,o),
(439,558,o),
(432,591,cs),
(428,613,o),
(413,629,qs),
(385,661,o),
(331,660,qs),
(278,660,o),
(201,597,o),
(192,547,qs),
(185,507,o),
(218,450,o),
(255,439,qs),
(364,407,ls),
(433,387,o),
(495,276,o),
(481,200,qs),
(470,136,o),
(398,42,o),
(288,-10,o),
(220,-10,qs),
(150,-10,o),
(55,41,o),
(35,88,qs),
(22,118,o),
(21,155,qs)
);
}
);
width = 600;
},
{
layerId = "65670A5D-CCC8-4389-B3B7-F9F0C6F62714";
shapes = (
{
closed = 1;
nodes = (
(38,192,o),
(48,200,o),
(65,200,cs),
(81,200,o),
(87,193,o),
(86,176,cs),
(83,119,o),
(116,81,qs),
(156,35,o),
(231,35,qs),
(302,35,o),
(406,116,o),
(418,180,qs),
(428,238,o),
(381,325,o),
(331,341,qs),
(235,372,ls),
(172,392,o),
(111,489,o),
(123,555,qs),
(132,609,o),
(197,694,o),
(295,740,o),
(354,740,qs),
(413,740,o),
(495,691,o),
(512,647,qs),
(526,612,o),
(522,569,qs),
(522,553,o),
(512,545,o),
(495,545,cs),
(479,545,o),
(472,552,o),
(473,569,cs),
(476,621,o),
(448,655,qs),
(415,697,o),
(346,696,qs),
(280,696,o),
(183,618,o),
(173,559,qs),
(164,508,o),
(209,434,o),
(255,418,qs),
(351,386,ls),
(417,364,o),
(480,255,o),
(467,183,qs),
(457,126,o),
(389,39,o),
(286,-10,o),
(223,-10,qs),
(158,-10,o),
(69,44,o),
(49,91,qs),
(34,129,o),
(37,176,qs)
);
}
);
width = 600;
}
);
unicode = 83;
},
{
color = (153, 254, 255, 255);
glyphname = Germandbls;
layers = (
{
layerId = "2C4CF9A7-491C-47AB-B6C9-58D3194EBCE0";
shapes = (
{
closed = 1;
nodes = (
(3,0,o),
(-16,23,o),
(-8,68,cs),
(71,511,ls),
(96,652,o),
(211,730,o),
(346,730,cs),
(502,730,ls),
(565,730,o),
(591,699,o),
(579,636,cs),
(574,605,o),
(558,577,o),
(533,554,cs),
(426,458,ls),
(400,434,o),
(401,420,o),
(432,407,cs),
(504,375,o),
(533,305,o),
(517,215,cs),
(492,74,o),
(371,4,o),
(241,0,cs),
(200,-1,o),
(182,21,o),
(190,63,cs),
(197,103,o),
(219,122,o),
(264,128,cs),
(314,135,o),
(356,157,o),
(368,227,cs),
(380,291,o),
(352,314,o),
(310,323,cs),
(259,333,o),
(242,355,o),
(250,401,cs),
(255,426,o),
(266,447,o),
(287,465,cs),
(399,568,ls),
(426,593,o),
(424,605,o),
(390,605,cs),
(323,605,ls),
(265,605,o),
(216,571,o),
(206,511,cs),
(127,68,ls),
(119,23,o),
(93,0,o),
(48,0,cs)
);
}
);
width = 600;
},
{
layerId = "4F1D95E0-B484-471A-8565-C56541B9E33E";
shapes = (
{
closed = 1;
nodes = (
(27,0,o),
(14,15,o),
(20,45,cs),
(105,524,ls),
(127,650,o),
(227,730,o),
(352,730,cs),
(520,730,ls),
(559,730,o),
(575,710,o),
(569,671,cs),
(564,651,o),
(557,634,o),
(541,618,cs),
(392,455,ls),
(373,434,o),
(375,424,o),
(401,417,cs),
(486,393,o),
(515,310,o),
(498,215,cs),
(471,63,o),
(359,0,o),
(219,0,cs),
(192,0,o),
(181,14,o),
(186,41,cs),
(190,68,o),
(205,82,o),
(234,83,cs),
(314,87,o),
(384,107,o),
(403,215,cs),
(420,310,o),
(371,336,o),
(303,343,cs),
(268,346,o),
(254,363,o),
(260,397,cs),
(264,414,o),
(271,430,o),
(283,444,cs),
(439,616,ls),
(460,638,o),
(456,648,o),
(429,648,cs),
(337,648,ls),
(261,648,o),
(208,599,o),
(195,524,cs),
(110,45,ls),
(104,15,o),
(87,0,o),
(57,0,cs)
);
}
);
width = 600;
},
{
layerId = "65670A5D-CCC8-4389-B3B7-F9F0C6F62714";
shapes = (
{
closed = 1;
nodes = (
(38,0,o),
(32,8,o),
(34,25,cs),
(126,543,ls),
(147,660,o),
(240,730,o),
(355,730,cs),
(536,730,ls),
(557,730,o),
(565,720,o),
(562,699,cs),
(559,689,o),
(555,680,o),
(548,672,cs),
(331,431,ls),
(316,415,o),
(319,408,o),
(338,405,cs),
(438,392,o),
(497,322,o),
(478,210,cs),
(448,48,o),
(332,0,o),
(190,0,cs),
(175,0,o),
(170,8,o),
(172,23,cs),
(175,38,o),
(183,45,o),
(198,45,cs),
(306,47,o),
(403,69,o),
(427,208,cs),
(449,329,o),
(381,362,o),
(284,367,cs),
(265,368,o),
(257,378,o),
(260,397,cs),
(263,407,o),
(266,415,o),
(273,423,cs),
(487,661,ls),
(501,677,o),
(498,685,o),
(478,685,cs),
(347,685,ls),
(260,685,o),
(192,631,o),
(176,543,cs),
(84,25,ls),
(82,8,o),
(72,0,o),
(55,0,cs)
);
}
);
width = 600;
}
);
unicode = 7838;
},
{
color = (153, 254, 255, 255);
glyphname = T;
layers = (
{
layerId = "2C4CF9A7-491C-47AB-B6C9-58D3194EBCE0";
shapes = (
{
closed = 1;
nodes = (
(170,0,o),
(149,25,o),
(158,75,cs),
(246,570,ls),
(250,587,o),
(242,595,o),
(225,595,cs),
(133,595,ls),
(88,595,o),
(69,618,o),
(78,663,cs),
(86,708,o),
(112,730,o),
(157,730,cs),
(543,730,ls),
(588,730,o),
(606,708,o),
(598,663,cs),
(589,618,o),
(562,595,o),
(517,595,cs),
(425,595,ls),
(408,595,o),
(400,587,o),
(396,570,cs),
(308,75,ls),
(299,25,o),
(270,0,o),
(220,0,cs)
);
}
);
width = 600;
},
{
layerId = "4F1D95E0-B484-471A-8565-C56541B9E33E";
shapes = (
{
closed = 1;
nodes = (
(188,-10,o),
(176,5,o),
(181,35,cs),
(285,620,ls),
(288,633,o),
(282,640,o),
(269,640,cs),
(134,640,ls),
(107,640,o),
(92,658,o),
(97,685,cs),
(101,712,o),
(123,730,o),
(150,730,cs),
(550,730,ls),
(577,730,o),
(591,712,o),
(587,685,cs),
(582,658,o),
(561,640,o),
(534,640,cs),
(399,640,ls),
(386,640,o),
(378,633,o),
(375,620,cs),
(271,35,ls),
(266,5,o),
(248,-10,o),
(218,-10,cs)
);
}
);
width = 600;
},
{
layerId = "65670A5D-CCC8-4389-B3B7-F9F0C6F62714";
shapes = (
{
closed = 1;
nodes = (
(202,-10,o),
(196,-2,o),
(198,15,cs),
(314,665,ls),
(316,675,o),
(312,680,o),
(302,680,cs),
(126,680,ls),
(111,680,o),
(103,690,o),
(105,705,cs),
(108,720,o),
(120,730,o),
(135,730,cs),
(565,730,ls),
(580,730,o),
(588,720,o),
(585,705,cs),
(583,690,o),
(570,680,o),
(555,680,cs),
(382,680,ls),
(372,680,o),
(366,675,o),
(364,665,cs),
(248,15,ls),
(246,-2,o),
(236,-10,o),
(219,-10,cs)
);
}
);
width = 600;
}
);
unicode = 84;
},
{
color = (153, 254, 255, 255);
glyphname = U;
layers = (
{
layerId = "2C4CF9A7-491C-47AB-B6C9-58D3194EBCE0";
shapes = (
{
closed = 1;
nodes = (
(96,655,ls),
(105,705,o),
(135,730,o),
(185,730,cs),
(235,730,o),
(255,705,o),
(246,655,cs),
(170,225,ls),
(162,179,o),
(199,120,o),
(242,120,qs),
(284,120,o),
(342,179,o),
(350,225,qs),
(426,655,ls),
(435,705,o),
(465,730,o),
(515,730,cs),
(565,730,o),
(585,705,o),
(576,655,cs),
(500,224,ls),
(482,121,o),
(329,-10,o),
(218,-10,qs),
(107,-10,o),
(2,120,o),
(20,224,qs)
);
}
);
width = 600;
},
{
layerId = "4F1D95E0-B484-471A-8565-C56541B9E33E";
shapes = (
{
closed = 1;
nodes = (
(132,685,ls),
(137,715,o),
(155,730,o),
(185,730,cs),
(215,730,o),
(227,715,o),
(222,685,cs),
(138,210,ls),
(127,150,o),
(173,80,o),
(234,80,qs),
(294,80,o),
(367,150,o),
(378,210,qs),
(462,685,ls),
(467,715,o),
(485,730,o),
(515,730,cs),
(545,730,o),
(557,715,o),
(552,685,cs),
(468,210,ls),
(450,112,o),
(321,-10,o),
(218,-10,qs),
(116,-10,o),
(30,113,o),
(48,210,qs)
);
}
);
width = 600;
},
{
layerId = "65670A5D-CCC8-4389-B3B7-F9F0C6F62714";
shapes = (
{
closed = 1;
nodes = (
(153,705,ls),
(156,722,o),
(166,730,o),
(183,730,cs),
(200,730,o),
(206,722,o),
(203,705,cs),
(114,200,ls),
(101,127,o),
(161,40,o),
(228,40,qs),
(295,40,o),
(385,127,o),
(398,200,qs),
(487,705,ls),
(490,722,o),
(500,730,o),
(517,730,cs),
(534,730,o),
(540,722,o),
(537,705,cs),
(448,200,ls),
(431,109,o),
(305,-10,o),
(218,-10,qs),
(130,-10,o),
(47,109,o),
(64,200,qs)
);
}
);
width = 600;
}
);
unicode = 85;
},
{
color = (153, 254, 255, 255);
glyphname = V;
layers = (
{
layerId = "2C4CF9A7-491C-47AB-B6C9-58D3194EBCE0";
shapes = (
{
closed = 1;
nodes = (
(84,662,ls),
(79,714,o),
(113,740,o),
(157,740,cs),
(193,740,o),
(219,723,o),
(220,688,cs),
(248,263,ls),
(250,230,o),
(272,230,o),
(286,263,cs),
(464,688,ls),
(479,723,o),
(509,740,o),
(545,740,cs),
(589,740,o),
(615,714,o),
(592,662,cs),
(325,62,ls),
(304,13,o),
(268,-10,o),
(218,-10,cs),
(168,-10,o),
(142,13,o),
(137,62,cs)
);
}
);
width = 600;
},
{
layerId = "4F1D95E0-B484-471A-8565-C56541B9E33E";
shapes = (
{
closed = 1;
nodes = (
(106,688,ls),
(104,714,o),
(114,740,o),
(153,740,cs),
(179,740,o),
(198,728,o),
(199,705,cs),
(238,185,ls),
(241,155,o),
(255,155,o),
(268,185,cs),
(491,705,ls),
(502,728,o),
(523,740,o),
(549,740,cs),
(588,740,o),
(590,714,o),
(578,688,cs),
(290,38,ls),
(275,6,o),
(252,-10,o),
(218,-10,cs),
(185,-10,o),
(167,6,o),
(164,38,cs)
);
}
);
width = 600;
},
{
layerId = "65670A5D-CCC8-4389-B3B7-F9F0C6F62714";
shapes = (
{
closed = 1;
nodes = (
(124,711,ls),
(124,727,o),
(131,740,o),
(151,740,cs),
(164,740,o),
(177,734,o),
(178,721,cs),
(228,100,ls),
(229,80,o),
(239,80,o),
(248,100,cs),
(518,721,ls),
(523,734,o),
(538,740,o),
(551,740,cs),
(571,740,o),
(576,727,o),
(568,711,cs),
(261,19,ls),
(253,0,o),
(238,-10,o),
(218,-10,cs),
(198,-10,o),
(187,0,o),
(185,19,cs)
);
}
);
width = 600;
}
);
unicode = 86;
},
{
color = (153, 254, 255, 255);
glyphname = W;
layers = (
{
layerId = "2C4CF9A7-491C-47AB-B6C9-58D3194EBCE0";
shapes = (
{
closed = 1;
nodes = (
(66,670,ls),
(71,717,o),
(94,740,o),
(139,740,cs),
(181,740,o),
(200,720,o),
(195,680,cs),
(140,245,ls),
(139,231,o),
(147,229,o),
(151,244,cs),
(241,515,ls),
(254,552,o),
(283,570,o),
(321,570,cs),
(359,570,o),
(382,552,o),
(381,515,cs),
(375,244,ls),
(375,229,o),
(383,230,o),
(386,245,cs),
(488,688,ls),
(497,723,o),
(518,740,o),
(557,740,cs),
(608,740,o),
(622,717,o),
(610,670,cs),
(459,71,ls),
(445,17,o),
(408,-10,o),
(354,-10,cs),
(300,-10,o),
(273,16,o),
(276,70,cs),
(281,291,ls),
(281,305,o),
(267,306,o),
(263,291,cs),
(190,73,ls),
(171,18,o),
(136,-10,o),
(80,-10,cs),
(24,-10,o),
(-4,17,o),
(2,73,cs)
);
}
);
width = 600;
},
{
layerId = "4F1D95E0-B484-471A-8565-C56541B9E33E";
shapes = (
{
closed = 1;
nodes = (
(79,685,ls),
(82,722,o),
(100,740,o),
(134,740,cs),
(162,740,o),
(174,728,o),
(172,703,cs),
(113,145,ls),
(112,133,o),
(119,132,o),
(124,144,cs),
(257,523,ls),
(269,555,o),
(289,570,o),
(321,570,cs),
(353,570,o),
(369,555,o),
(369,523,cs),
(368,145,ls),
(368,134,o),
(376,134,o),
(379,146,cs),
(518,703,ls),
(524,728,o),
(540,740,o),
(568,740,cs),
(602,740,o),
(614,722,o),
(605,685,cs),
(433,50,ls),
(422,10,o),
(395,-10,o),
(354,-10,cs),
(313,-10,o),
(294,10,o),
(294,50,cs),
(298,401,ls),
(298,412,o),
(288,412,o),
(284,401,cs),
(164,51,ls),
(150,10,o),
(123,-10,o),
(82,-10,cs),
(41,-10,o),
(21,10,o),
(24,51,cs)
);
}
);
width = 600;
},
{
layerId = "65670A5D-CCC8-4389-B3B7-F9F0C6F62714";
shapes = (
{
closed = 1;
nodes = (
(105,710,ls),
(107,730,o),
(116,740,o),
(136,740,cs),
(151,740,o),
(157,734,o),
(156,720,cs),
(99,55,l),
(99,50,o),
(102,49,o),
(105,55,cs),
(278,539,ls),
(285,560,o),
(300,570,o),
(321,570,cs),
(342,570,o),
(353,560,o),
(354,539,cs),
(357,55,ls),
(357,50,o),
(361,50,o),
(363,55,c),
(540,720,ls),
(543,734,o),
(551,740,o),
(566,740,cs),
(586,740,o),
(593,730,o),
(587,710,cs),
(400,27,ls),
(393,2,o),
(376,-10,o),
(351,-10,cs),
(326,-10,o),
(313,2,o),
(313,27,cs),
(310,485,ls),
(310,490,o),
(304,490,o),
(302,485,cs),
(137,27,ls),
(127,2,o),
(111,-10,o),
(86,-10,cs),
(61,-10,o),
(47,2,o),
(50,27,cs)
);
}
);
width = 600;
}
);
unicode = 87;
},
{
color = (153, 254, 255, 255);
glyphname = X;
layers = (
{
layerId = "2C4CF9A7-491C-47AB-B6C9-58D3194EBCE0";
shapes = (
{
closed = 1;
nodes = (
(136,40,ls),
(112,7,o),
(85,-10,o),
(48,-10,cs),
(-6,-10,o),
(-40,23,o),
(6,88,cs),
(423,690,ls),
(445,724,o),
(471,740,o),
(508,740,cs),
(562,740,o),
(595,708,o),
(551,642,cs)
);
},
{
closed = 1;
nodes = (
(466,88,ls),
(487,22,o),
(442,-10,o),
(388,-10,cs),
(351,-10,o),
(329,7,o),
(320,40,cs),
(117,642,ls),
(94,707,o),
(140,740,o),
(194,740,cs),
(231,740,o),
(252,723,o),
(263,690,cs)
);
}
);
width = 600;
},
{
layerId = "4F1D95E0-B484-471A-8565-C56541B9E33E";
shapes = (
{
closed = 1;
nodes = (
(78,20,ls),
(65,0,o),
(47,-10,o),
(25,-10,cs),
(-5,-10,o),
(-28,9,o),
(0,48,cs),
(481,711,ls),
(495,731,o),
(512,740,o),
(534,740,cs),
(563,740,o),
(587,721,o),
(558,682,cs)
);
},
{
closed = 1;
nodes = (
(456,49,ls),
(472,10,o),
(441,-10,o),
(411,-10,cs),
(389,-10,o),
(375,0,o),
(368,20,cs),
(123,682,ls),
(108,720,o),
(139,740,o),
(168,740,cs),
(190,740,o),
(204,731,o),
(211,711,cs)
);
}
);
width = 600;
},
{
layerId = "65670A5D-CCC8-4389-B3B7-F9F0C6F62714";
shapes = (
{
closed = 1;
nodes = (
(38,6,ls),
(30,-5,o),
(20,-10,o),
(8,-10,cs),
(-7,-10,o),
(-21,1,o),
(-5,22,cs),
(516,724,ls),
(523,735,o),
(533,740,o),
(546,740,cs),
(561,740,o),
(577,729,o),
(559,707,cs)
);
},
{
closed = 1;
nodes = (
(453,22,ls),
(461,1,o),
(443,-10,o),
(428,-10,cs),
(416,-10,o),
(408,-5,o),
(404,6,cs),
(131,707,ls),
(123,729,o),
(141,740,o),
(156,740,cs),
(169,740,o),
(177,735,o),
(182,724,cs)
);
}
);
width = 600;
}
);
unicode = 88;
},
{
color = (153, 254, 255, 255);
glyphname = Y;
layers = (
{
layerId = "2C4CF9A7-491C-47AB-B6C9-58D3194EBCE0";
shapes = (
{
closed = 1;
nodes = (
(168,-10,o),
(147,15,o),
(157,65,cs),
(186,230,ls),
(189,250,o),
(189,269,o),
(184,287,cs),
(88,655,ls),
(76,704,o),
(117,740,o),
(159,740,cs),
(201,740,o),
(225,721,o),
(234,683,cs),
(288,448,ls),
(293,429,o),
(299,429,o),
(310,448,cs),
(448,683,ls),
(471,721,o),
(501,740,o),
(543,740,cs),
(585,740,o),
(614,704,o),
(584,655,cs),
(358,287,ls),
(347,269,o),
(339,250,o),
(336,230,cs),
(307,65,ls),
(297,15,o),
(268,-10,o),
(218,-10,cs)
);
}
);
width = 600;
},
{
layerId = "4F1D95E0-B484-471A-8565-C56541B9E33E";
shapes = (
{
closed = 1;
nodes = (
(188,-10,o),
(176,5,o),
(181,35,cs),
(219,248,ls),
(222,265,o),
(221,281,o),
(217,296,cs),
(102,690,ls),
(94,716,o),
(120,740,o),
(142,740,cs),
(167,740,o),
(179,735,o),
(188,706,cs),
(279,390,ls),
(284,375,o),
(290,375,o),
(299,390,cs),
(502,706,ls),
(521,735,o),
(535,740,o),
(560,740,cs),
(582,740,o),
(600,716,o),
(584,690,cs),
(329,296,ls),
(319,281,o),
(312,265,o),
(309,248,cs),
(271,35,ls),
(266,5,o),
(248,-10,o),
(218,-10,cs)
);
}
);
width = 600;
},
{
layerId = "65670A5D-CCC8-4389-B3B7-F9F0C6F62714";
shapes = (
{
closed = 1;
nodes = (
(201,-10,o),
(195,-2,o),
(197,15,cs),
(241,260,ls),
(243,273,o),
(243,286,o),
(239,298,cs),
(110,711,ls),
(106,727,o),
(122,740,o),
(133,740,cs),
(147,740,o),
(159,734,o),
(163,721,cs),
(275,356,ls),
(278,344,o),
(284,344,o),
(293,356,cs),
(533,721,ls),
(541,734,o),
(555,740,o),
(569,740,cs),
(580,740,o),
(594,727,o),
(582,711,cs),
(307,298,ls),
(299,286,o),
(293,273,o),
(291,260,cs),
(247,15,ls),
(245,-2,o),
(235,-10,o),
(218,-10,cs)
);
}
);
width = 600;
}
);
unicode = 89;
},
{
color = (153, 254, 255, 255);
glyphname = Z;
layers = (
{
layerId = "2C4CF9A7-491C-47AB-B6C9-58D3194EBCE0";
shapes = (
{
closed = 1;
nodes = (
(96,0,ls),
(28,0,o),
(1,33,o),
(12,101,cs),
(17,124,o),
(27,144,o),
(41,164,cs),
(349,569,ls),
(363,586,o),
(358,595,o),
(338,595,cs),
(175,595,ls),
(130,595,o),
(112,618,o),
(121,663,cs),
(129,708,o),
(156,730,o),
(201,730,cs),
(463,730,ls),
(531,730,o),
(558,697,o),
(546,629,cs),
(542,606,o),
(534,586,o),
(517,566,cs),
(208,161,ls),
(196,144,o),
(199,135,o),
(219,135,cs),
(402,135,ls),
(447,135,o),
(465,113,o),
(457,68,cs),
(449,23,o),
(423,0,o),
(378,0,cs)
);
}
);
width = 600;
},
{
layerId = "4F1D95E0-B484-471A-8565-C56541B9E33E";
shapes = (
{
closed = 1;
nodes = (
(73,0,ls),
(28,0,o),
(9,23,o),
(17,68,cs),
(20,83,o),
(25,96,o),
(35,109,cs),
(420,618,ls),
(431,632,o),
(430,640,o),
(413,640,cs),
(169,640,ls),
(142,640,o),
(127,658,o),
(132,685,cs),
(136,712,o),
(158,730,o),
(185,730,cs),
(487,730,ls),
(532,730,o),
(551,708,o),
(543,663,cs),
(540,648,o),
(535,634,o),
(524,621,cs),
(139,112,ls),
(129,98,o),
(130,90,o),
(147,90,cs),
(406,90,ls),
(433,90,o),
(447,72,o),
(443,45,cs),
(438,18,o),
(417,0,o),
(390,0,cs)
);
}
);
width = 600;
},
{
layerId = "65670A5D-CCC8-4389-B3B7-F9F0C6F62714";
shapes = (
{
closed = 1;
nodes = (
(47,0,ls),
(22,0,o),
(13,13,o),
(17,38,cs),
(18,46,o),
(21,54,o),
(27,61,cs),
(471,663,ls),
(480,675,o),
(477,680,o),
(464,680,cs),
(162,680,ls),
(147,680,o),
(137,690,o),
(139,705,cs),
(142,720,o),
(156,730,o),
(171,730,cs),
(504,730,ls),
(533,730,o),
(544,716,o),
(539,687,cs),
(537,677,o),
(534,669,o),
(528,661,cs),
(89,67,ls),
(80,55,o),
(83,50,o),
(96,50,cs),
(414,50,ls),
(429,50,o),
(438,40,o),
(434,25,cs),
(432,10,o),
(420,0,o),
(405,0,cs)
);
}
);
width = 600;
}
);
unicode = 90;
},
{
color = (153, 254, 255, 255);
glyphname = a;
layers = (
{
layerId = "2C4CF9A7-491C-47AB-B6C9-58D3194EBCE0";
shapes = (
{
closed = 1;
nodes = (
(53,-10,o),
(-29,63,o),
(1,235,cs),
(34,417,o),
(159,560,o),
(329,560,cs),
(444,560,o),
(501,432,o),
(478,298,cs),
(444,106,o),
(303,-10,o),
(148,-10,cs)
);
},
{
closed = 1;
nodes = (
(254,125,o),
(320,176,o),
(341,295,cs),
(355,372,o),
(350,425,o),
(295,425,cs),
(235,425,o),
(170,340,o),
(151,235,cs),
(141,175,o),
(155,125,o),
(200,125,cs)
);
},
{
closed = 1;
nodes = (
(407,538,o),
(440,560,o),
(486,560,cs),
(531,560,o),
(543,539,o),
(529,494,cs),
(484,352,o),
(453,222,o),
(459,54,cs),
(460,9,o),
(445,-10,o),
(400,-10,cs),
(354,-10,o),
(324,10,o),
(323,54,cs),
(317,222,o),
(348,352,o),
(393,494,cs)
);
}
);
width = 600;
},
{
layerId = "4F1D95E0-B484-471A-8565-C56541B9E33E";
shapes = (
{
closed = 1;
nodes = (
(64.237,-10,o),
(-1.36,49,o),
(27.91,215,cs),
(62.118,409,o),
(172.743,560,o),
(338.743,560,cs),
(475.743,560,o),
(477.647,412,o),
(459.309,308,cs),
(433.565,162,o),
(323.237,-10,o),
(158.237,-10,cs)
);
},
{
closed = 1;
nodes = (
(268.106,80,o),
(345.328,172,o),
(369.309,308,cs),
(380.594,372,o),
(397.874,470,o),
(312.874,470,cs),
(217.874,470,o),
(143.478,360,o),
(117.91,215,cs),
(102.923,130,o),
(124.106,80,o),
(184.106,80,cs)
);
},
{
closed = 1;
nodes = (
(435.804,549,o),
(455.743,560,o),
(485.743,560,cs),
(515.743,560,o),
(525.275,546,o),
(514.985,516,cs),
(461.125,358,o),
(433.734,214,o),
(445.995,34,cs),
(447.882,5,o),
(434.237,-10,o),
(404.237,-10,cs),
(374.237,-10,o),
(357.882,5,o),
(355.995,34,cs),
(341.734,214,o),
(373.125,358,o),
(424.985,516,cs)
);
}
);
width = 600;
},
{
layerId = "65670A5D-CCC8-4389-B3B7-F9F0C6F62714";
shapes = (
{
closed = 1;
nodes = (
(54.237,-10,o),
(24.459,82,o),
(46.147,205,cs),
(79.12,392,o),
(175.743,560,o),
(348.743,560,cs),
(483.743,560,o),
(462.705,418,o),
(438.545,298,cs),
(412.623,168,o),
(321.237,-10,o),
(158.237,-10,cs)
);
},
{
closed = 1;
nodes = (
(278.053,40,o),
(363.973,187,o),
(387.545,298,cs),
(406.239,387,o),
(433.927,510,o),
(329.927,510,cs),
(209.927,510,o),
(123.654,361,o),
(96.147,205,cs),
(78.162,103,o),
(105.053,40,o),
(167.053,40,cs)
);
},
{
closed = 1;
nodes = (
(456.332,552,o),
(467.743,560,o),
(484.743,560,cs),
(501.743,560,o),
(506.332,552,o),
(501.335,535,cs),
(443.714,350,o),
(408.676,208,o),
(418.469,14,cs),
(419.647,-2,o),
(412.237,-10,o),
(395.237,-10,cs),
(378.237,-10,o),
(369.647,-2,o),
(368.469,14,cs),
(356.676,208,o),
(393.714,350,o),
(451.335,535,cs)
);
}
);
width = 600;
}
);
unicode = 97;
},
{
color = (153, 254, 255, 255);
glyphname = ae;
layers = (
{
layerId = "2C4CF9A7-491C-47AB-B6C9-58D3194EBCE0";
shapes = (
{
closed = 1;
nodes = (
(196,330,ls),
(213,330,o),
(223,338,o),
(226,355,cs),
(234,400,ls),
(239,428,o),
(234,463,o),
(200,463,cs),
(182,463,o),
(168,453,o),
(159,439,cs),
(139,409,o),
(126,400,o),
(104,400,cs),
(47,400,o),
(26,433,o),
(55,478,cs),
(86,527,o),
(137,560,o),
(200,560,cs),
(258,560,o),
(308,530,o),
(304,468,c),
(322,530,o),
(383,560,o),
(440,560,cs),
(533,560,o),
(577,489,o),
(561,400,cs),
(552,350,ls),
(540,283,o),
(501,250,o),
(434,250,cs),
(350,250,ls),
(333,250,o),
(324,242,o),
(321,225,cs),
(308,150,ls),
(303,122,o),
(307,87,o),
(341,87,cs),
(359,87,o),
(374,97,o),
(383,111,cs),
(403,141,o),
(416,150,o),
(438,150,cs),
(495,150,o),
(515,117,o),
(486,72,cs),
(456,23,o),
(405,-10,o),
(342,-10,cs),
(286,-10,o),
(231,20,o),
(235,81,c),
(217,18,o),
(154,-10,o),
(96,-10,cs),
(-2,-10,o),
(-40,68,o),
(-24,159,cs),
(-6,261,o),
(74,330,o),
(176,330,cs)
);
},
{
closed = 1;
nodes = (
(203,225,ls),
(206,242,o),
(199,250,o),
(182,250,cs),
(162,250,ls),
(120,250,o),
(103,201,o),
(97,168,cs),
(91,136,o),
(91,87,o),
(132,87,cs),
(166,87,o),
(185,121,o),
(190,150,cs)
);
},
{
closed = 1;
nodes = (
(344,355,ls),
(341,338,o),
(347,330,o),
(364,330,cs),
(404,330,ls),
(421,330,o),
(431,338,o),
(434,355,cs),
(442,400,ls),
(447,428,o),
(442,463,o),
(408,463,cs),
(374,463,o),
(357,428,o),
(352,400,cs)
);
}
);
width = 600;
},
{
anchors = (
{
name = m.uni0308;
position = "{318, 550}";
}
);
layerId = "4F1D95E0-B484-471A-8565-C56541B9E33E";
shapes = (
{
closed = 1;
nodes = (
(221,324,ls),
(234,324,o),
(241,331,o),
(244,344,cs),
(254,399,ls),
(262,443,o),
(251,485,o),
(201,485,cs),
(168,485,o),
(142,467,o),
(129,440,cs),
(119,421,o),
(110,414,o),
(94,414,cs),
(57,414,o),
(41,434,o),
(57,466,cs),
(84,521,o),
(135,560,o),
(201,560,cs),
(257,560,o),
(310,532,o),
(308,471,c),
(325,530,o),
(384,560,o),
(439,560,cs),
(532,560,o),
(572,488,o),
(556,400,cs),
(544,336,ls),
(535,282,o),
(504,256,o),
(450,256,cs),
(328,256,ls),
(315,256,o),
(307,249,o),
(305,236,cs),
(290,150,ls),
(282,106,o),
(294,65,o),
(344,65,cs),
(377,65,o),
(402,82,o),
(416,109,cs),
(426,129,o),
(436,137,o),
(453,137,cs),
(493,137,o),
(508,115,o),
(490,82,cs),
(462,26,o),
(405,-10,o),
(338,-10,cs),
(283,-10,o),
(239,24,o),
(238,80,c),
(215,21,o),
(153,-10,o),
(96,-10,cs),
(0,-10,o),
(-36,70,o),
(-21,159,cs),
(-5,250,o),
(64,324,o),
(160,324,cs)
);
},
{
closed = 1;
nodes = (
(225,236,ls),
(227,249,o),
(221,256,o),
(208,256,cs),
(149,256,ls),
(97,256,o),
(71,203,o),
(63,160,cs),
(55,112,o),
(69,65,o),
(123,65,cs),
(173,65,o),
(201,105,o),
(210,150,cs)
);
},
{
closed = 1;
nodes = (
(324,344,ls),
(321,331,o),
(328,324,o),
(341,324,cs),
(439,324,ls),
(452,324,o),
(459,331,o),
(462,344,cs),
(472,400,ls),
(480,443,o),
(467,485,o),
(418,485,cs),
(369,485,o),
(342,443,o),
(334,400,cs)
);
}
);
width = 600;
},
{
layerId = "65670A5D-CCC8-4389-B3B7-F9F0C6F62714";
shapes = (
{
closed = 1;
nodes = (
(239,312,ls),
(249,312,o),
(255,317,o),
(258,327,cs),
(272,410,ls),
(281,462,o),
(265,517,o),
(206,517,cs),
(153,517,o),
(116,477,o),
(103,430,cs),
(100,419,o),
(94,414,o),
(84,414,cs),
(62,414,o),
(54,426,o),
(60,446,cs),
(82,510,o),
(134,560,o),
(206,560,cs),
(260,560,o),
(308,531,o),
(307,474,c),
(329,530,o),
(387,560,o),
(441,560,cs),
(529,560,o),
(568,494,o),
(553,410,cs),
(539,329,ls),
(531,289,o),
(508,269,o),
(468,269,cs),
(310,269,ls),
(300,269,o),
(294,264,o),
(292,254,cs),
(272,140,ls),
(261,82,o),
(287,34,o),
(349,34,cs),
(402,34,o),
(440,73,o),
(454,121,cs),
(456,132,o),
(463,137,o),
(473,137,cs),
(495,137,o),
(505,125,o),
(496,105,cs),
(474,39,o),
(418,-10,o),
(344,-10,cs),
(291,-10,o),
(238,19,o),
(236,75,c),
(214,16,o),
(146,-10,o),
(92,-10,cs),
(1,-10,o),
(-27,74,o),
(-12,155,cs),
(2,235,o),
(56,312,o),
(145,312,cs)
);
},
{
closed = 1;
nodes = (
(244,254,ls),
(246,264,o),
(242,269,o),
(232,269,cs),
(138,269,ls),
(77,269,o),
(45,206,o),
(36,155,cs),
(26,97,o),
(42,31,o),
(109,31,cs),
(172,31,o),
(213,81,o),
(224,140,cs)
);
},
{
closed = 1;
nodes = (
(306,327,ls),
(303,317,o),
(307,312,o),
(317,312,cs),
(472,312,ls),
(482,312,o),
(488,317,o),
(491,327,cs),
(505,410,ls),
(515,466,o),
(492,517,o),
(431,517,cs),
(370,517,o),
(330,466,o),
(320,410,cs)
);
}
);
width = 600;
}
);
unicode = 230;
},
{
color = (153, 254, 255, 255);
glyphname = b;
layers = (
{
layerId = "2C4CF9A7-491C-47AB-B6C9-58D3194EBCE0";
shapes = (
{
closed = 1;
nodes = (
(2,-10,o),
(-17,14,o),
(-8,63,cs),
(98,665,ls),
(107,715,o),
(136,740,o),
(186,740,cs),
(236,740,o),
(257,715,o),
(248,665,cs),
(215,479,l),
(239,520,o),
(287,560,o),
(356,560,cs),
(531,560,o),
(547,406,o),
(523,274,cs),
(501,148,o),
(433,-10,o),
(273,-10,cs),
(196,-10,o),
(146,27,o),
(138,69,c),
(137,63,ls),
(128,14,o),
(102,-10,o),
(52,-10,cs)
);
},
{
closed = 1;
nodes = (
(338,140,o),
(361,207,o),
(373,273,cs),
(385,341,o),
(386,420,o),
(305,420,cs),
(243,420,o),
(197,373,o),
(187,315,cs),
(172,235,ls),
(163,181,o),
(202,140,o),
(262,140,cs)
);
}
);
width = 600;
},
{
layerId = "4F1D95E0-B484-471A-8565-C56541B9E33E";
shapes = (
{
closed = 1;
nodes = (
(23,-10,o),
(11,5,o),
(16,36,cs),
(133,695,ls),
(138,725,o),
(155,740,o),
(185,740,cs),
(215,740,o),
(228,725,o),
(223,695,cs),
(184,476,l),
(206,522,o),
(254,560,o),
(333,560,cs),
(505,560,o),
(511,400,o),
(489,276,cs),
(467,152,o),
(404,-10,o),
(245,-10,cs),
(175,-10,o),
(139,21,o),
(114,80,c),
(106,36,ls),
(101,5,o),
(83,-10,o),
(53,-10,cs)
);
},
{
closed = 1;
nodes = (
(348,75,o),
(385,197,o),
(400,282,cs),
(414,364,o),
(420,475,o),
(306,475,cs),
(234,475,o),
(167,380,o),
(156,316,cs),
(136,206,ls),
(125,143,o),
(178,75,o),
(251,75,cs)
);
}
);
width = 600;
},
{
layerId = "65670A5D-CCC8-4389-B3B7-F9F0C6F62714";
shapes = (
{
closed = 1;
nodes = (
(36,-10,o),
(30,-2,o),
(33,15,cs),
(156,715,ls),
(159,732,o),
(168,740,o),
(185,740,cs),
(202,740,o),
(209,732,o),
(206,715,cs),
(163,469,l),
(201,531,o),
(266,560,o),
(329,560,cs),
(480,560,o),
(494,394,o),
(473,275,cs),
(452,155,o),
(379,-10,o),
(231,-10,cs),
(113,-10,o),
(96,57,o),
(94,78,c),
(83,15,ls),
(80,-2,o),
(70,-10,o),
(53,-10,cs)
);
},
{
closed = 1;
nodes = (
(355,38,o),
(406,177,o),
(423,275,cs),
(441,373,o),
(438,512,o),
(313,512,cs),
(239,512,o),
(155,425,o),
(143,355,cs),
(114,194,ls),
(101,119,o),
(151,38,o),
(239,38,cs)
);
}
);
width = 600;
}
);
unicode = 98;
},
{
color = (153, 254, 255, 255);
glyphname = c;
layers = (
{
layerId = "2C4CF9A7-491C-47AB-B6C9-58D3194EBCE0";
shapes = (
{
closed = 1;
nodes = (
(60,479,o),
(183,560,o),
(332,560,cs),
(384,560,o),
(511,531,o),
(519,461,cs),
(520,452,o),
(519,446,o),
(519,445,cs),
(513,416,o),
(499,389,o),
(472,379,cs),
(464,376,o),
(456,374,o),
(445,374,cs),
(422,374,o),
(410,383,o),
(400,392,cs),
(371,418,o),
(350,425,o),
(321,425,cs),
(258,425,o),
(193,387,o),
(173,274,cs),
(155,169,o),
(198,125,o),
(258,125,cs),
(295,125,o),
(324,130,o),
(363,157,cs),
(380,169,o),
(390,173,o),
(408,173,cs),
(420,173,o),
(429,171,o),
(437,168,cs),
(461,158,o),
(467,132,o),
(463,109,cs),
(462,102,o),
(460,94,o),
(455,86,cs),
(420,13,o),
(283,-10,o),
(227,-10,cs),
(81,-10,o),
(-11,78,o),
(24,278,cs)
);
}
);
width = 600;
},
{
layerId = "4F1D95E0-B484-471A-8565-C56541B9E33E";
shapes = (
{
closed = 1;
nodes = (
(85,479,o),
(212,560,o),
(358,560,cs),
(426,560,o),
(500,535,o),
(509,489,cs),
(510,484,o),
(510,477,o),
(510,470,cs),
(506,453,o),
(497,440,o),
(478,432,cs),
(475,431,o),
(471,430,o),
(464,430,cs),
(458,430,o),
(452,431,o),
(444,438,cs),
(423,456,o),
(405,470,o),
(347,470,cs),
(270,470,o),
(162,406,o),
(138,267,cs),
(116,148,o),
(174,80,o),
(274,80,cs),
(306,80,o),
(322,87,o),
(346,99,cs),
(372,113,o),
(387,119,o),
(407,119,cs),
(414,119,o),
(421,118,o),
(427,115,cs),
(441,108,o),
(448,95,o),
(445,79,cs),
(444,71,o),
(439,61,o),
(432,52,cs),
(401,10,o),
(324,-10,o),
(255,-10,cs),
(109,-10,o),
(14,78,o),
(49,278,cs)
);
}
);
width = 600;
},
{
layerId = "65670A5D-CCC8-4389-B3B7-F9F0C6F62714";
shapes = (
{
closed = 1;
nodes = (
(105,479,o),
(220,560,o),
(363,560,cs),
(426,560,o),
(487,533,o),
(502,507,cs),
(504,502,o),
(506,497,o),
(504,491,cs),
(502,481,o),
(495,472,o),
(481,468,cs),
(478,467,o),
(475,466,o),
(471,466,cs),
(458,466,o),
(448,474,o),
(443,479,cs),
(418,503,o),
(384,510,o),
(350,510,cs),
(247,510,o),
(147,432,o),
(119,277,cs),
(93,130,o),
(137,40,o),
(268,40,cs),
(299,40,o),
(348,48,o),
(385,68,cs),
(405,79,o),
(411,82,o),
(417,82,cs),
(421,82,o),
(428,81,o),
(433,74,cs),
(438,69,o),
(439,62,o),
(437,54,cs),
(436,49,o),
(434,43,o),
(428,37,cs),
(407,20,o),
(323,-10,o),
(247,-10,cs),
(118,-10,o),
(34,78,o),
(69,278,cs)
);
}
);
width = 600;
}
);
unicode = 99;
},
{
color = (153, 254, 255, 255);
glyphname = d;
layers = (
{
layerId = "2C4CF9A7-491C-47AB-B6C9-58D3194EBCE0";
shapes = (
{
closed = 1;
nodes = (
(334,-10,o),
(316,14,o),
(325,63,cs),
(326,69,l),
(304,27,o),
(240,-10,o),
(163,-10,cs),
(3,-10,o),
(-9,148,o),
(13,274,cs),
(37,406,o),
(107,560,o),
(282,560,cs),
(351,560,o),
(385,520,o),
(393,479,c),
(426,665,ls),
(435,715,o),
(464,740,o),
(514,740,cs),
(564,740,o),
(585,715,o),
(576,665,cs),
(470,63,ls),
(461,14,o),
(434,-10,o),
(384,-10,cs)
);
},
{
closed = 1;
nodes = (
(288,140,o),
(341,181,o),
(350,235,cs),
(365,315,ls),
(375,373,o),
(345,420,o),
(283,420,cs),
(202,420,o),
(175,341,o),
(163,273,cs),
(151,207,o),
(152,140,o),
(228,140,cs)
);
}
);
width = 600;
},
{
layerId = "4F1D95E0-B484-471A-8565-C56541B9E33E";
shapes = (
{
closed = 1;
nodes = (
(353,-10,o),
(341,5,o),
(346,36,cs),
(354,80,l),
(309,21,o),
(261,-10,o),
(191,-10,cs),
(32,-10,o),
(27,152,o),
(49,276,cs),
(71,400,o),
(133,560,o),
(305,560,cs),
(384,560,o),
(418,522,o),
(424,476,c),
(463,695,ls),
(468,725,o),
(485,740,o),
(515,740,cs),
(545,740,o),
(558,725,o),
(553,695,cs),
(436,36,ls),
(431,5,o),
(413,-10,o),
(383,-10,cs)
);
},
{
closed = 1;
nodes = (
(288,75,o),
(365,143,o),
(376,206,cs),
(396,316,ls),
(407,380,o),
(374,475,o),
(302,475,cs),
(188,475,o),
(154,364,o),
(140,282,cs),
(125,197,o),
(118,75,o),
(215,75,cs)
);
}
);
width = 600;
},
{
layerId = "65670A5D-CCC8-4389-B3B7-F9F0C6F62714";
shapes = (
{
closed = 1;
nodes = (
(366,-10,o),
(360,-2,o),
(363,15,cs),
(374,78,l),
(364,57,o),
(323,-10,o),
(205,-10,cs),
(57,-10,o),
(42,155,o),
(63,275,cs),
(84,394,o),
(158,560,o),
(309,560,cs),
(372,560,o),
(427,531,o),
(443,469,c),
(486,715,ls),
(489,732,o),
(498,740,o),
(515,740,cs),
(532,740,o),
(539,732,o),
(536,715,cs),
(413,15,ls),
(410,-2,o),
(400,-10,o),
(383,-10,cs)
);
},
{
closed = 1;
nodes = (
(303,38,o),
(381,119,o),
(394,194,cs),
(423,355,ls),
(435,425,o),
(381,512,o),
(307,512,cs),
(182,512,o),
(131,373,o),
(113,275,cs),
(96,177,o),
(99,38,o),
(215,38,cs)
);
}
);
width = 600;
}
);
unicode = 100;
},
{
color = (153, 254, 255, 255);
glyphname = eth;
layers = (
{
layerId = "2C4CF9A7-491C-47AB-B6C9-58D3194EBCE0";
shapes = (
{
closed = 1;
nodes = (
(206,632,ls),
(224,638,o),
(227,646,o),
(221,660,cs),
(220,663,ls),
(197,708,o),
(217,730,o),
(279,730,cs),
(321,730,o),
(353,717,o),
(359,707,cs),
(362,702,ls),
(368,693,o),
(377,690,o),
(389,694,cs),
(476,723,ls),
(522,739,o),
(542,724,o),
(533,677,cs),
(529,654,o),
(516,638,o),
(492,630,cs),
(447,614,ls),
(429,608,o),
(424,599,o),
(433,586,cs),
(461,537,ls),
(524,430,o),
(540,337,o),
(524,251,cs),
(497,96,o),
(379,0,o),
(220,0,cs),
(63,0,o),
(-23,94,o),
(2,236,cs),
(25,368,o),
(123,456,o),
(244,456,cs),
(313,456,o),
(358,410,o),
(372,375,c),
(378,375,l),
(380,380,o),
(366,414,o),
(321,489,cs),
(291,538,ls),
(284,551,o),
(272,556,o),
(255,550,cs),
(186,526,ls),
(138,510,o),
(120,525,o),
(128,572,cs),
(131,595,o),
(146,611,o),
(169,619,cs)
);
},
{
closed = 1;
nodes = (
(310,125,o),
(360,168,o),
(372,235,cs),
(383,301,o),
(347,345,o),
(281,345,cs),
(214,345,o),
(163,302,o),
(152,235,cs),
(140,168,o),
(176,125,o),
(243,125,cs)
);
}
);
width = 600;
},
{
layerId = "4F1D95E0-B484-471A-8565-C56541B9E33E";
shapes = (
{
closed = 1;
nodes = (
(249,623,ls),
(263,629,o),
(266,636,o),
(260,647,cs),
(245,674,ls),
(225,712,o),
(238,730,o),
(284,730,cs),
(307,730,o),
(324,720,o),
(334,701,cs),
(343,682,ls),
(350,671,o),
(358,668,o),
(370,674,cs),
(459,712,ls),
(495,727,o),
(509,718,o),
(502,682,cs),
(499,664,o),
(488,651,o),
(472,644,cs),
(403,614,ls),
(389,608,o),
(385,601,o),
(390,590,cs),
(441,493,ls),
(485,408,o),
(504,308,o),
(489,223,cs),
(465,83,o),
(356,-10,o),
(217,-10,cs),
(80,-10,o),
(4,80,o),
(28,215,cs),
(52,348,o),
(152,436,o),
(279,436,cs),
(337,436,o),
(372,404,o),
(383,380,c),
(397,380,l),
(393,393,o),
(377,429,o),
(350,480,cs),
(311,555,ls),
(304,566,o),
(295,569,o),
(282,563,cs),
(177,518,ls),
(142,503,o),
(128,512,o),
(134,548,cs),
(137,566,o),
(148,578,o),
(166,586,cs)
);
},
{
closed = 1;
nodes = (
(317,70,o),
(383,128,o),
(398,215,cs),
(413,302,o),
(368,360,o),
(283,360,cs),
(200,360,o),
(133,302,o),
(118,215,cs),
(103,128,o),
(149,70,o),
(232,70,cs)
);
}
);
width = 600;
},
{
layerId = "65670A5D-CCC8-4389-B3B7-F9F0C6F62714";
shapes = (
{
closed = 1;
nodes = (
(277,617,ls),
(287,621,o),
(290,627,o),
(286,635,cs),
(254,694,ls),
(241,718,o),
(249,730,o),
(278,730,cs),
(293,730,o),
(303,724,o),
(309,712,c),
(338,657,ls),
(342,649,o),
(350,647,o),
(359,651,cs),
(482,704,l),
(499,712,o),
(506,706,o),
(503,688,cs),
(501,679,o),
(496,673,o),
(488,669,c),
(376,621,ls),
(366,617,o),
(364,611,o),
(368,603,cs),
(413,517,ls),
(473,402,o),
(493,302,o),
(478,213,cs),
(454,78,o),
(352,-10,o),
(218,-10,cs),
(85,-10,o),
(14,79,o),
(38,215,cs),
(62,350,o),
(159,436,o),
(288,436,cs),
(361,436,o),
(409,385,o),
(424,347,c),
(427,347,l),
(424,366,o),
(405,419,o),
(365,491,cs),
(316,581,ls),
(311,589,o),
(304,591,o),
(295,587,cs),
(155,526,ls),
(137,518,o),
(130,524,o),
(133,542,cs),
(135,551,o),
(140,557,o),
(148,561,c)
);
},
{
closed = 1;
nodes = (
(328,40,o),
(404,109,o),
(423,216,cs),
(442,318,o),
(384,390,o),
(289,390,cs),
(188,390,o),
(112,322,o),
(93,215,cs),
(74,108,o),
(127,40,o),
(228,40,cs)
);
}
);
width = 600;
}
);
unicode = 240;
},
{
color = (153, 254, 255, 255);
glyphname = dcaron;
layers = (
{
layerId = "2C4CF9A7-491C-47AB-B6C9-58D3194EBCE0";
shapes = (
{
closed = 1;
nodes = (
(255,47,o),
(241,34,qs),
(192,-10,o),
(136,-10,qs),
(51,-10,o),
(-37,131,o),
(-12,275,qs),
(14,419,o),
(136,560,o),
(221,560,qs),
(292,560,o),
(331,505,qs),
(338,498,o),
(340,492,qs),
(342,485,o),
(350,486,o),
(354,506,cs),
(382,665,ls),
(391,715,o),
(420,740,o),
(470,740,cs),
(520,740,o),
(541,715,o),
(532,665,cs),
(425,63,ls),
(417,14,o),
(388,-10,o),
(339,-10,cs),
(290,-10,o),
(272,13,o),
(280,62,cs),
(281,64,ls),
(282,69,o),
(278,69,o),
(274,65,cs)
);
},
{
closed = 1;
nodes = (
(234,140,o),
(299,199,o),
(306,235,qs),
(320,315,ls),
(328,361,o),
(283,420,o),
(240,420,qs),
(204,420,o),
(153,354,o),
(138,275,qs),
(125,197,o),
(155,140,o),
(191,140,qs)
);
},
{
closed = 1;
nodes = (
(534,550,o),
(519,569,o),
(529,607,cs),
(545,669,ls),
(555,710,o),
(581,730,o),
(622,730,cs),
(663,730,o),
(677,710,o),
(665,669,cs),
(647,607,ls),
(636,569,o),
(612,550,o),
(573,550,cs)
);
}
);
width = 600;
},
{
layerId = "4F1D95E0-B484-471A-8565-C56541B9E33E";
shapes = (
{
closed = 1;
nodes = (
(288,45,o),
(263,27,qs),
(211,-10,o),
(156,-10,qs),
(83,-10,o),
(10,125,o),
(35,275,qs),
(62,425,o),
(184,560,o),
(257,560,qs),
(324,560,o),
(351,523,qs),
(367,500,o),
(378,476,qs),
(380,473,o),
(382,473,o),
(382,476,cs),
(422,695,ls),
(427,725,o),
(444,740,o),
(474,740,cs),
(504,740,o),
(517,725,o),
(512,695,cs),
(394,35,ls),
(389,5,o),
(371,-10,o),
(341,-10,cs),
(311,-10,o),
(299,5,o),
(304,35,cs),
(311,74,ls),
(311,76,o),
(308,77,o),
(307,74,cs)
);
},
{
closed = 1;
nodes = (
(233,73,o),
(327,163,o),
(335,205,qs),
(354,315,ls),
(366,381,o),
(308,475,o),
(269,475,qs),
(224,475,o),
(147,393,o),
(125,275,qs),
(105,158,o),
(154,73,o),
(191,73,qs)
);
},
{
closed = 1;
nodes = (
(546,550,o),
(535,562,o),
(543,587,cs),
(569,688,ls),
(576,716,o),
(594,730,o),
(622,730,cs),
(650,730,o),
(659,716,o),
(650,688,cs),
(620,587,ls),
(611,562,o),
(596,550,o),
(571,550,cs)
);
}
);
width = 600;
},
{
layerId = "65670A5D-CCC8-4389-B3B7-F9F0C6F62714";
shapes = (
{
closed = 1;
nodes = (
(313,51,o),
(287,31,qs),
(231,-10,o),
(175,-10,qs),
(102,-10,o),
(27,129,o),
(53,275,qs),
(79,420,o),
(203,560,o),
(276,560,qs),
(342,560,o),
(373,519,qs),
(391,497,o),
(399,474,qs),
(401,471,o),
(404,471,o),
(404,475,cs),
(447,715,ls),
(450,732,o),
(459,740,o),
(476,740,cs),
(493,740,o),
(500,732,o),
(497,715,cs),
(372,15,ls),
(370,-2,o),
(360,-10,o),
(343,-10,cs),
(326,-10,o),
(320,-2,o),
(322,15,cs),
(333,75,ls),
(334,79,o),
(331,80,o),
(328,76,cs)
);
},
{
closed = 1;
nodes = (
(236,38,o),
(343,131,o),
(354,194,qs),
(383,355,ls),
(393,409,o),
(331,512,o),
(278,512,qs),
(221,512,o),
(127,404,o),
(103,275,qs),
(81,145,o),
(137,38,o),
(194,38,qs)
);
},
{
closed = 1;
nodes = (
(555,550,o),
(550,557,o),
(554,571,cs),
(596,704,ls),
(601,721,o),
(614,730,o),
(631,730,cs),
(648,730,o),
(653,721,o),
(647,704,cs),
(597,571,ls),
(592,557,o),
(583,550,o),
(569,550,cs)
);
}
);
width = 600;
}
);
unicode = 271;
},
{
color = (153, 254, 255, 255);
glyphname = dcroat;
layers = (
{
anchors = (
{
name = t.uni0308;
position = "{455, 700}";
}
);
layerId = "2C4CF9A7-491C-47AB-B6C9-58D3194EBCE0";
shapes = (
{
closed = 1;
nodes = (
(296,46,o),
(281,34,qs),
(222,-10,o),
(156,-10,qs),
(76,-10,o),
(-18,121,o),
(5,255,qs),
(28,379,o),
(172,510,o),
(252,510,qs),
(326,510,o),
(359,475,qs),
(366,468,o),
(372,464,qs),
(377,460,o),
(386,461,o),
(388,469,cs),
(422,665,ls),
(431,715,o),
(460,740,o),
(510,740,cs),
(560,740,o),
(581,715,o),
(572,665,cs),
(465,63,ls),
(457,14,o),
(428,-10,o),
(379,-10,cs),
(330,-10,o),
(312,13,o),
(320,62,cs),
(321,64,ls),
(322,69,o),
(318,69,o),
(314,65,cs)
);
},
{
closed = 1;
nodes = (
(274,140,o),
(339,199,o),
(346,235,qs),
(351,265,ls),
(359,311,o),
(319,370,o),
(272,370,qs),
(231,370,o),
(167,319,o),
(155,255,qs),
(144,192,o),
(190,140,o),
(231,140,qs)
);
},
{
closed = 1;
nodes = (
(314,555,ls),
(277,555,o),
(262,573,o),
(269,610,cs),
(275,647,o),
(296,665,o),
(333,665,cs),
(593,665,ls),
(630,665,o),
(645,647,o),
(639,610,cs),
(632,573,o),
(611,555,o),
(574,555,cs)
);
}
);
width = 600;
},
{
anchors = (
{
name = _m.uni0308;
position = "{427, 488}";
},
{
name = _t.uni0308;
position = "{427, 488}";
},
{
name = t.uni0308;
position = "{464, 703}";
}
);
layerId = "4F1D95E0-B484-471A-8565-C56541B9E33E";
shapes = (
{
closed = 1;
nodes = (
(328,45,o),
(303,27,qs),
(251,-10,o),
(186,-10,qs),
(103,-10,o),
(21,135,o),
(42,255,qs),
(64,375,o),
(195,510,o),
(278,510,qs),
(353,510,o),
(382,473,qs),
(399,451,o),
(410,426,qs),
(411,423,o),
(413,423,o),
(414,426,cs),
(462,695,ls),
(467,725,o),
(484,740,o),
(514,740,cs),
(544,740,o),
(557,725,o),
(552,695,cs),
(434,35,ls),
(429,5,o),
(411,-10,o),
(381,-10,cs),
(351,-10,o),
(339,5,o),
(344,35,cs),
(351,74,ls),
(351,76,o),
(348,77,o),
(347,74,cs)
);
},
{
closed = 1;
nodes = (
(273,73,o),
(367,163,o),
(375,205,qs),
(385,265,ls),
(396,331,o),
(337,425,o),
(290,425,qs),
(235,425,o),
(148,343,o),
(132,255,qs),
(117,168,o),
(174,73,o),
(221,73,qs)
);
},
{
closed = 1;
nodes = (
(319,572,ls),
(294,572,o),
(284,585,o),
(289,610,cs),
(293,635,o),
(307,647,o),
(332,647,cs),
(587,647,ls),
(612,647,o),
(623,635,o),
(619,610,cs),
(614,585,o),
(599,572,o),
(574,572,cs)
);
}
);
width = 600;
},
{
anchors = (
{
name = t.uni0308;
position = "{482, 687}";
}
);
layerId = "65670A5D-CCC8-4389-B3B7-F9F0C6F62714";
shapes = (
{
closed = 1;
nodes = (
(353,51,o),
(327,31,qs),
(271,-10,o),
(205,-10,qs),
(122,-10,o),
(37,129,o),
(60,255,qs),
(81,370,o),
(214,510,o),
(297,510,qs),
(373,510,o),
(405,469,qs),
(421,447,o),
(430,424,qs),
(431,421,o),
(434,421,o),
(435,425,cs),
(487,715,ls),
(490,732,o),
(499,740,o),
(516,740,cs),
(533,740,o),
(540,732,o),
(537,715,cs),
(412,15,ls),
(410,-2,o),
(400,-10,o),
(383,-10,cs),
(366,-10,o),
(360,-2,o),
(362,15,cs),
(373,75,ls),
(374,79,o),
(371,80,o),
(368,76,cs)
);
},
{
closed = 1;
nodes = (
(276,38,o),
(383,131,o),
(394,194,qs),
(414,305,ls),
(423,359,o),
(362,462,o),
(299,462,qs),
(232,462,o),
(128,354,o),
(110,255,qs),
(91,145,o),
(157,38,o),
(224,38,qs)
);
},
{
closed = 1;
nodes = (
(335,588,ls),
(321,588,o),
(316,596,o),
(319,610,cs),
(321,624,o),
(329,631,o),
(343,631,cs),
(591,631,ls),
(605,631,o),
(611,624,o),
(609,610,cs),
(606,596,o),
(597,588,o),
(583,588,cs)
);
}
);
width = 600;
}
);
unicode = 273;
},
{
color = (153, 254, 255, 255);
glyphname = e;
layers = (
{
layerId = "2C4CF9A7-491C-47AB-B6C9-58D3194EBCE0";
shapes = (
{
closed = 1;
nodes = (
(458,108,o),
(452,69,o),
(434,53,cs),
(374,-1,o),
(306,-10,o),
(218,-10,cs),
(110,-10,o),
(31,67,o),
(27,180,cs),
(19,391,o),
(119,560,o),
(334,560,cs),
(455,560,o),
(525,508,o),
(529,408,cs),
(538,171,o),
(237,197,o),
(60,202,c),
(64,329,l),
(186,327,o),
(411,305,o),
(407,389,cs),
(406,419,o),
(376,434,o),
(330,434,cs),
(206,434,o),
(149,313,o),
(153,194,cs),
(155,149,o),
(194,119,o),
(237,119,cs),
(298,119,o),
(324,128,o),
(368,155,cs),
(384,165,o),
(418,169,o),
(435,143,cs)
);
}
);
width = 600;
},
{
layerId = "4F1D95E0-B484-471A-8565-C56541B9E33E";
shapes = (
{
closed = 1;
nodes = (
(459,89,o),
(453,63,o),
(425,44,cs),
(366,1,o),
(306,-10,o),
(225,-10,cs),
(119,-10,o),
(44,66,o),
(40,178,cs),
(30,455,o),
(192,560,o),
(341,560,cs),
(449,560,o),
(506,504,o),
(513,412,cs),
(532,176,o),
(191,209,o),
(54,212,c),
(56,302,l),
(182,298,o),
(432,263,o),
(418,409,cs),
(414,449,o),
(382,470,o),
(334,470,cs),
(249,470,o),
(126,408,o),
(130,184,cs),
(131,118,o),
(180,80,o),
(237,80,cs),
(297,80,o),
(333,91,o),
(374,117,cs),
(405,138,o),
(424,137,o),
(440,115,cs)
);
}
);
width = 600;
},
{
layerId = "65670A5D-CCC8-4389-B3B7-F9F0C6F62714";
shapes = (
{
closed = 1;
nodes = (
(442,81,o),
(440,66,o),
(425,53,cs),
(368,2,o),
(313,-10,o),
(225,-10,cs),
(133,-10,o),
(59,62,o),
(55,167,cs),
(46,438,o),
(199,560,o),
(350,560,cs),
(436,560,o),
(498,514,o),
(505,420,cs),
(520,205,o),
(181,227,o),
(61,229,c),
(64,282,l),
(182,280,o),
(466,254,o),
(455,427,cs),
(451,484,o),
(400,509,o),
(347,509,cs),
(227,509,o),
(97,409,o),
(105,163,cs),
(108,90,o),
(164,40,o),
(230,40,cs),
(306,40,o),
(348,49,o),
(398,94,cs),
(413,108,o),
(424,108,o),
(433,95,cs)
);
}
);
width = 600;
}
);
unicode = 101;
},
{
color = (153, 254, 255, 255);
glyphname = schwa;
layers = (
{
layerId = "2C4CF9A7-491C-47AB-B6C9-58D3194EBCE0";
shapes = (
{
closed = 1;
nodes = (
(458,108,o),
(452,69,o),
(434,53,cs),
(374,-1,o),
(306,-10,o),
(218,-10,cs),
(110,-10,o),
(31,67,o),
(27,180,cs),
(19,391,o),
(119,560,o),
(334,560,cs),
(455,560,o),
(525,504,o),
(529,404,cs),
(538,177,o),
(237,197,o),
(60,202,c),
(64,329,l),
(186,327,o),
(408,311,o),
(407,385,cs),
(407,415,o),
(376,434,o),
(330,434,cs),
(206,434,o),
(149,313,o),
(153,194,cs),
(155,149,o),
(194,119,o),
(237,119,cs),
(298,119,o),
(324,128,o),
(368,155,cs),
(384,165,o),
(418,169,o),
(435,143,cs)
);
}
);
width = 600;
},
{
layerId = "4F1D95E0-B484-471A-8565-C56541B9E33E";
shapes = (
{
closed = 1;
nodes = (
(459,89,o),
(453,63,o),
(425,44,cs),
(366,1,o),
(306,-10,o),
(225,-10,cs),
(119,-10,o),
(44,66,o),
(40,178,cs),
(30,455,o),
(192,560,o),
(341,560,cs),
(449,560,o),
(505,504,o),
(513,412,cs),
(532,196,o),
(191,209,o),
(54,212,c),
(56,302,l),
(182,298,o),
(432,283,o),
(418,409,cs),
(414,449,o),
(382,470,o),
(334,470,cs),
(249,470,o),
(126,408,o),
(130,184,cs),
(131,118,o),
(180,80,o),
(237,80,cs),
(297,80,o),
(333,91,o),
(374,117,cs),
(405,138,o),
(424,137,o),
(440,115,cs)
);
}
);
width = 600;
},
{
layerId = "65670A5D-CCC8-4389-B3B7-F9F0C6F62714";
shapes = (
{
closed = 1;
nodes = (
(124,469,o),
(126,484,o),
(141,497,cs),
(198,548,o),
(253,560,o),
(341,560,cs),
(433,560,o),
(507,488,o),
(511,383,cs),
(520,112,o),
(367,-10,o),
(216,-10,cs),
(130,-10,o),
(68,36,o),
(61,130,cs),
(46,335,o),
(385,323,o),
(505,321,c),
(502,268,l),
(384,270,o),
(100,286,o),
(111,123,cs),
(115,66,o),
(166,41,o),
(219,41,cs),
(339,41,o),
(469,141,o),
(461,387,cs),
(458,460,o),
(402,510,o),
(336,510,cs),
(260,510,o),
(218,501,o),
(168,456,cs),
(153,442,o),
(142,442,o),
(133,455,cs)
);
}
);
width = 600;
}
);
unicode = 601;
},
{
color = (153, 254, 255, 255);
glyphname = f;
layers = (
{
layerId = "2C4CF9A7-491C-47AB-B6C9-58D3194EBCE0";
shapes = (
{
closed = 1;
nodes = (
(508,475,ls),
(553,475,o),
(571,453,o),
(564,408,cs),
(555,363,o),
(529,340,o),
(484,340,cs),
(101,340,ls),
(56,340,o),
(38,363,o),
(47,408,cs),
(54,453,o),
(80,475,o),
(125,475,cs)
);
},
{
closed = 1;
nodes = (
(300,-10,ls),
(274,-158,o),
(188,-235,o),
(43,-235,cs),
(-8,-235,ls),
(-52,-235,o),
(-70,-214,o),
(-61,-170,cs),
(-54,-126,o),
(-29,-105,o),
(15,-105,cs),
(66,-105,ls),
(106,-105,o),
(139,-72,o),
(150,-10,cs),
(247,545,ls),
(268,667,o),
(346,730,o),
(485,730,cs),
(526,730,ls),
(570,730,o),
(587,709,o),
(579,665,cs),
(571,621,o),
(547,600,o),
(503,600,cs),
(462,600,ls),
(437,600,o),
(403,581,o),
(397,545,cs)
);
}
);
width = 600;
},
{
layerId = "4F1D95E0-B484-471A-8565-C56541B9E33E";
shapes = (
{
closed = 1;
nodes = (
(520,470,ls),
(547,470,o),
(560,452,o),
(555,425,cs),
(551,398,o),
(531,380,o),
(504,380,cs),
(97,380,ls),
(70,380,o),
(56,398,o),
(60,425,cs),
(65,452,o),
(86,470,o),
(113,470,cs)
);
},
{
closed = 1;
nodes = (
(252,-20,ls),
(232,-133,o),
(160,-210,o),
(35,-210,cs),
(-10,-210,ls),
(-37,-210,o),
(-52,-192,o),
(-48,-165,cs),
(-43,-138,o),
(-21,-120,o),
(6,-120,cs),
(51,-120,ls),
(103,-120,o),
(151,-83,o),
(162,-20,cs),
(266,570,ls),
(285,676,o),
(355,730,o),
(469,730,cs),
(534,730,ls),
(561,730,o),
(576,712,o),
(572,685,cs),
(567,658,o),
(545,640,o),
(518,640,cs),
(453,640,ls),
(419,640,o),
(364,616,o),
(356,570,cs)
);
}
);
width = 600;
},
{
layerId = "65670A5D-CCC8-4389-B3B7-F9F0C6F62714";
shapes = (
{
closed = 1;
nodes = (
(526,469,ls),
(541,469,o),
(549,460,o),
(546,445,cs),
(544,430,o),
(531,419,o),
(516,419,cs),
(93,419,ls),
(78,419,o),
(71,430,o),
(73,445,cs),
(76,460,o),
(88,469,o),
(103,469,cs)
);
},
{
closed = 1;
nodes = (
(232,-20,ls),
(216,-112,o),
(171,-185,o),
(51,-185,cs),
(-8,-185,ls),
(-23,-185,o),
(-30,-175,o),
(-27,-160,cs),
(-25,-145,o),
(-14,-135,o),
(1,-135,cs),
(60,-135,ls),
(120,-135,o),
(169,-95,o),
(182,-20,cs),
(290,595,ls),
(306,685,o),
(361,730,o),
(455,730,cs),
(544,730,ls),
(559,730,o),
(566,720,o),
(563,705,cs),
(561,690,o),
(550,680,o),
(535,680,cs),
(446,680,ls),
(391,680,o),
(350,652,o),
(340,595,cs)
);
}
);
width = 600;
}
);
unicode = 102;
},
{
color = (153, 254, 255, 255);
glyphname = g;
layers = (
{
layerId = "2C4CF9A7-491C-47AB-B6C9-58D3194EBCE0";
shapes = (
{
closed = 1;
nodes = (
(396,487,ls),
(405,537,o),
(431,560,o),
(479,560,cs),
(528,560,o),
(549,537,o),
(540,487,cs),
(454,0,ls),
(424,-172,o),
(339,-270,o),
(146,-270,cs),
(67,-270,o),
(2,-241,o),
(-41,-181,cs),
(-50,-167,o),
(-55,-148,o),
(-52,-130,cs),
(-45,-93,o),
(-4,-53,o),
(38,-53,cs),
(51,-53,o),
(64,-57,o),
(73,-67,cs),
(101,-98,o),
(137,-135,o),
(187,-135,cs),
(252,-135,o),
(288,-88,o),
(304,0,cs),
(313,52,l),
(281,10,o),
(241,0,o),
(179,0,cs),
(34,0,o),
(-5,143,o),
(19,277,cs),
(41,404,o),
(119,560,o),
(288,560,cs),
(359,560,o),
(388,521,o),
(395,484,c)
);
},
{
closed = 1;
nodes = (
(227,425,o),
(182,353,o),
(169,277,cs),
(157,209,o),
(157,135,o),
(238,135,cs),
(301,135,o),
(337,187,o),
(347,245,cs),
(360,315,ls),
(369,369,o),
(354,425,o),
(294,425,cs)
);
}
);
width = 600;
},
{
layerId = "4F1D95E0-B484-471A-8565-C56541B9E33E";
shapes = (
{
closed = 1;
nodes = (
(427,503,ls),
(433,536,o),
(444,560,o),
(482,560,cs),
(512,560,o),
(524,545,o),
(519,515,cs),
(428,0,ls),
(398,-169,o),
(289,-240,o),
(178,-240,cs),
(75,-240,o),
(27,-198,o),
(-2,-152,cs),
(-10,-140,o),
(-13,-132,o),
(-11,-120,cs),
(-7,-98,o),
(16,-64,o),
(46,-64,cs),
(61,-64,o),
(68,-71,o),
(75,-80,cs),
(95,-106,o),
(141,-150,o),
(191,-150,cs),
(245,-150,o),
(318,-114,o),
(338,0,cs),
(352,80,l),
(314,38,o),
(274,10,o),
(185,10,cs),
(44,10,o),
(25,158,o),
(47,281,cs),
(68,404,o),
(141,560,o),
(297,560,cs),
(382,560,o),
(413,515,o),
(421,473,c)
);
},
{
closed = 1;
nodes = (
(206,477,o),
(153,377,o),
(136,279,cs),
(123,207,o),
(128,100,o),
(218,100,cs),
(304,100,o),
(371,185,o),
(383,256,cs),
(399,345,ls),
(410,408,o),
(378,477,o),
(294,477,cs)
);
}
);
width = 600;
},
{
layerId = "65670A5D-CCC8-4389-B3B7-F9F0C6F62714";
shapes = (
{
closed = 1;
nodes = (
(454,535,ls),
(457,552,o),
(466,560,o),
(484,560,cs),
(501,560,o),
(507,552,o),
(504,535,cs),
(410,0,ls),
(379,-173,o),
(274,-210,o),
(188,-210,cs),
(92,-210,o),
(48,-179,o),
(20,-143,cs),
(12,-134,o),
(10,-127,o),
(12,-114,cs),
(15,-97,o),
(26,-85,o),
(41,-85,cs),
(53,-85,o),
(58,-91,o),
(64,-98,cs),
(76,-113,o),
(128,-160,o),
(190,-160,cs),
(268,-160,o),
(337,-128,o),
(360,0,cs),
(379,105,l),
(344,54,o),
(288,20,o),
(212,20,cs),
(67,20,o),
(43,161,o),
(65,285,cs),
(87,410,o),
(152,560,o),
(300,560,cs),
(393,560,o),
(441,506,o),
(443,469,c)
);
},
{
closed = 1;
nodes = (
(186,512,o),
(134,392,o),
(115,285,cs),
(99,190,o),
(108,70,o),
(223,70,cs),
(300,70,o),
(386,150,o),
(400,225,cs),
(423,356,ls),
(437,435,o),
(399,512,o),
(295,512,cs)
);
}
);
width = 600;
}
);
unicode = 103;
},
{
color = (153, 254, 255, 255);
glyphname = h;
layers = (
{
layerId = "2C4CF9A7-491C-47AB-B6C9-58D3194EBCE0";
shapes = (
{
closed = 1;
nodes = (
(-4,65,ls),
(-12,15,o),
(8,-10,o),
(58,-10,cs),
(108,-10,o),
(138,15,o),
(146,65,cs),
(190,310,ls),
(200,368,o),
(260,425,o),
(319,425,cs),
(364,425,o),
(371,376,o),
(363,330,cs),
(316,65,ls),
(308,15,o),
(328,-10,o),
(378,-10,cs),
(428,-10,o),
(458,15,o),
(466,65,cs),
(518,355,ls),
(538,469,o),
(494,560,o),
(375,560,cs),
(270,560,o),
(224,499,o),
(215,483,c),
(248,667,ls),
(256,716,o),
(230,740,o),
(185,740,cs),
(140,740,o),
(111,716,o),
(103,667,cs)
);
}
);
width = 600;
},
{
layerId = "4F1D95E0-B484-471A-8565-C56541B9E33E";
shapes = (
{
closed = 1;
nodes = (
(21,35,ls),
(16,5,o),
(28,-10,o),
(58,-10,cs),
(88,-10,o),
(106,5,o),
(111,35,cs),
(163,330,ls),
(176,404,o),
(245,470,o),
(321,470,cs),
(384,470,o),
(408,413,o),
(396,344,cs),
(341,35,ls),
(336,5,o),
(348,-10,o),
(378,-10,cs),
(408,-10,o),
(426,5,o),
(431,35,cs),
(490,370,ls),
(510,484,o),
(458,560,o),
(357,560,cs),
(299,560,o),
(226,535,o),
(189,478,c),
(228,695,ls),
(233,725,o),
(221,740,o),
(191,740,cs),
(161,740,o),
(143,725,o),
(138,695,cs)
);
}
);
width = 600;
},
{
layerId = "65670A5D-CCC8-4389-B3B7-F9F0C6F62714";
shapes = (
{
closed = 1;
nodes = (
(38,15,ls),
(35,-2,o),
(41,-10,o),
(58,-10,cs),
(75,-10,o),
(85,-2,o),
(88,15,cs),
(146,345,ls),
(161,432,o),
(241,510,o),
(328,510,cs),
(404,510,o),
(432,438,o),
(418,355,cs),
(358,15,ls),
(355,-2,o),
(361,-10,o),
(378,-10,cs),
(395,-10,o),
(405,-2,o),
(408,15,cs),
(470,367,ls),
(489,476,o),
(442,560,o),
(349,560,cs),
(275,560,o),
(208,533,o),
(170,483,c),
(211,715,ls),
(214,732,o),
(208,740,o),
(191,740,cs),
(174,740,o),
(164,732,o),
(161,715,cs)
);
}
);
width = 600;
}
);
unicode = 104;
},
{
color = (153, 254, 255, 255);
glyphname = idotless;
layers = (
{
layerId = "2C4CF9A7-491C-47AB-B6C9-58D3194EBCE0";
shapes = (
{
closed = 1;
nodes = (
(316,194,ls),
(306,155,o),
(318,125,o),
(345,125,cs),
(372,125,o),
(390,141,o),
(418,172,cs),
(445,202,o),
(471,202,o),
(500,178,cs),
(531,152,o),
(529,127,o),
(508,97,cs),
(453,20,o),
(379,-10,o),
(294,-10,cs),
(184,-10,o),
(132,67,o),
(162,170,cs),
(209,329,ls),
(220,366,o),
(205,371,o),
(173,362,cs),
(125,349,ls),
(86,338,o),
(66,373,o),
(71,422,cs),
(76,475,o),
(110,488,o),
(157,500,cs),
(276,530,ls),
(356,550,o),
(396,490,o),
(375,410,cs)
);
}
);
width = 600;
},
{
layerId = "4F1D95E0-B484-471A-8565-C56541B9E33E";
shapes = (
{
closed = 1;
nodes = (
(300,224,ls),
(274,125,o),
(282,80,o),
(326,80,cs),
(363,80,o),
(400,103,o),
(428,134,cs),
(451,158,o),
(473,155,o),
(489,141,cs),
(506,127,o),
(508,101,o),
(488,79,cs),
(435,24,o),
(384,-10,o),
(311,-10,cs),
(211,-10,o),
(165,59,o),
(192,161,cs),
(253,390,ls),
(259,411,o),
(250,418,o),
(231,413,cs),
(139,388,ls),
(113,381,o),
(88,402,o),
(92,445,cs),
(95,472,o),
(115,482,o),
(144,490,cs),
(294,530,ls),
(349,545,o),
(374,504,o),
(360,450,cs)
);
}
);
width = 600;
},
{
layerId = "65670A5D-CCC8-4389-B3B7-F9F0C6F62714";
shapes = (
{
closed = 1;
nodes = (
(271,196,ls),
(237,73,o),
(268,40,o),
(317,40,cs),
(352,40,o),
(393,71,o),
(429,112,cs),
(440,124,o),
(455,124,o),
(464,118,cs),
(474,111,o),
(478,92,o),
(467,81,cs),
(413,23,o),
(373,-10,o),
(300,-10,cs),
(218,-10,o),
(188,59,o),
(214,155,cs),
(292,450,ls),
(298,470,o),
(287,478,o),
(268,472,cs),
(131,432,ls),
(115,427,o),
(108,450,o),
(111,465,cs),
(113,480,o),
(124,486,o),
(140,490,cs),
(296,530,ls),
(336,540,o),
(356,510,o),
(346,470,cs)
);
}
);
width = 600;
}
);
unicode = 305;
},
{
color = (153, 254, 255, 255);
glyphname = ij;
layers = (
{
layerId = "2C4CF9A7-491C-47AB-B6C9-58D3194EBCE0";
shapes = (
{
closed = 1;
nodes = (
(40,-180,ls),
(-5,-180,o),
(-23,-158,o),
(-15,-113,cs),
(-7,-68,o),
(19,-45,o),
(64,-45,cs),
(192,-45,ls),
(230,-45,o),
(286,5,o),
(293,45,qs),
(369,475,ls),
(379,525,o),
(408,550,o),
(458,550,cs),
(508,550,o),
(529,525,o),
(519,475,cs),
(443,40,ls),
(424,-62,o),
(283,-180,o),
(179,-180,qs)
);
},
{
closed = 1;
nodes = (
(89,475,ls),
(99,525,o),
(128,550,o),
(178,550,cs),
(228,550,o),
(249,525,o),
(239,475,cs),
(180,140,ls),
(171,90,o),
(142,65,o),
(92,65,cs),
(42,65,o),
(21,90,o),
(30,140,cs)
);
},
{
closed = 1;
nodes = (
(152,637,o),
(110,679,o),
(117,715,qs),
(124,751,o),
(180,793,o),
(221,793,qs),
(262,793,o),
(304,751,o),
(297,715,qs),
(290,679,o),
(234,637,o),
(193,637,qs)
);
},
{
closed = 1;
nodes = (
(432,637,o),
(390,679,o),
(397,715,qs),
(404,751,o),
(460,793,o),
(501,793,qs),
(542,793,o),
(584,751,o),
(577,715,qs),
(570,679,o),
(514,637,o),
(473,637,qs)
);
}
);
width = 600;
},
{
layerId = "4F1D95E0-B484-471A-8565-C56541B9E33E";
shapes = (
{
closed = 1;
nodes = (
(37,-180,ls),
(10,-180,o),
(-1,-166,o),
(3,-139,cs),
(8,-112,o),
(24,-98,o),
(51,-98,cs),
(176,-98,ls),
(238,-98,o),
(320,-30,o),
(331,31,qs),
(414,505,ls),
(420,535,o),
(438,550,o),
(468,550,cs),
(498,550,o),
(510,535,o),
(504,505,cs),
(421,31,ls),
(403,-66,o),
(263,-180,o),
(162,-180,qs)
);
},
{
closed = 1;
nodes = (
(117,505,ls),
(123,535,o),
(141,550,o),
(171,550,cs),
(201,550,o),
(213,535,o),
(207,505,cs),
(126,45,ls),
(120,15,o),
(103,0,o),
(73,0,cs),
(43,0,o),
(30,15,o),
(36,45,cs)
);
},
{
closed = 1;
nodes = (
(153,649,o),
(121,683,o),
(126,712,qs),
(132,742,o),
(176,777,o),
(209,777,qs),
(242,777,o),
(274,742,o),
(268,712,qs),
(263,683,o),
(219,649,o),
(186,649,qs)
);
},
{
closed = 1;
nodes = (
(451,649,o),
(419,683,o),
(424,712,qs),
(430,742,o),
(474,777,o),
(507,777,qs),
(540,777,o),
(572,742,o),
(566,712,qs),
(561,683,o),
(517,649,o),
(484,649,qs)
);
}
);
width = 600;
},
{
layerId = "65670A5D-CCC8-4389-B3B7-F9F0C6F62714";
shapes = (
{
closed = 1;
nodes = (
(38,-180,ls),
(23,-180,o),
(16,-173,o),
(19,-158,cs),
(22,-143,o),
(31,-135,o),
(46,-135,cs),
(177,-135,ls),
(248,-135,o),
(334,-60,o),
(347,10,qs),
(439,525,ls),
(441,542,o),
(451,550,o),
(468,550,cs),
(485,550,o),
(491,542,o),
(489,525,cs),
(397,10,ls),
(381,-79,o),
(261,-180,o),
(169,-180,qs)
);
},
{
closed = 1;
nodes = (
(141,525,ls),
(143,542,o),
(153,550,o),
(170,550,cs),
(187,550,o),
(193,542,o),
(191,525,cs),
(101,25,ls),
(99,8,o),
(89,0,o),
(72,0,cs),
(55,0,o),
(49,8,o),
(51,25,cs)
);
},
{
closed = 1;
nodes = (
(162,655,o),
(136,685,o),
(140,710,qs),
(144,735,o),
(182,765,o),
(208,765,qs),
(234,765,o),
(260,735,o),
(256,710,qs),
(252,685,o),
(214,655,o),
(188,655,qs)
);
},
{
closed = 1;
nodes = (
(458,655,o),
(432,685,o),
(436,710,qs),
(440,735,o),
(478,765,o),
(504,765,qs),
(530,765,o),
(556,735,o),
(552,710,qs),
(548,685,o),
(510,655,o),
(484,655,qs)
);
}
);
width = 600;
}
);
unicode = 307;
},
{
color = (153, 254, 255, 255);
glyphname = ij_acute;
layers = (
{
anchors = (
{
name = m.uni0308;
position = "{555, 785}";
}
);
layerId = "2C4CF9A7-491C-47AB-B6C9-58D3194EBCE0";
shapes = (
{
closed = 1;
nodes = (
(-7,-68,o),
(19,-45,o),
(64,-45,cs),
(192,-45,ls),
(230,-45,o),
(286,5,o),
(293,45,qs),
(369,475,ls),
(379,525,o),
(408,550,o),
(458,550,cs),
(508,550,o),
(529,525,o),
(519,475,cs),
(443,40,ls),
(424,-62,o),
(283,-180,o),
(179,-180,qs),
(40,-180,ls),
(-5,-180,o),
(-23,-158,o),
(-15,-113,cs)
);
},
{
closed = 1;
nodes = (
(42,65,o),
(21,90,o),
(30,140,cs),
(89,475,ls),
(99,525,o),
(128,550,o),
(178,550,cs),
(228,550,o),
(249,525,o),
(239,475,cs),
(180,140,ls),
(171,90,o),
(142,65,o),
(92,65,cs)
);
},
{
closed = 1;
nodes = (
(428,645,o),
(422,671,o),
(471,724,cs),
(489,745,ls),
(519,778,o),
(549,785,o),
(588,785,cs),
(655,785,o),
(661,759,o),
(609,708,cs),
(584,683,ls),
(559,657,o),
(528,645,o),
(495,645,cs)
);
},
{
closed = 1;
nodes = (
(144,645,o),
(138,671,o),
(187,724,cs),
(205,745,ls),
(235,778,o),
(265,785,o),
(304,785,cs),
(371,785,o),
(377,759,o),
(325,708,cs),
(300,683,ls),
(275,657,o),
(244,645,o),
(211,645,cs)
);
}
);
width = 600;
},
{
anchors = (
{
name = m.uni0308;
position = "{555, 785}";
}
);
layerId = "4F1D95E0-B484-471A-8565-C56541B9E33E";
shapes = (
{
closed = 1;
nodes = (
(8,-112,o),
(24,-98,o),
(51,-98,cs),
(176,-98,ls),
(238,-98,o),
(320,-30,o),
(331,31,qs),
(414,505,ls),
(420,535,o),
(438,550,o),
(468,550,cs),
(498,550,o),
(510,535,o),
(504,505,cs),
(421,31,ls),
(403,-66,o),
(263,-180,o),
(162,-180,qs),
(37,-180,ls),
(10,-180,o),
(-1,-166,o),
(3,-139,cs)
);
},
{
closed = 1;
nodes = (
(43,0,o),
(30,15,o),
(36,45,cs),
(117,505,ls),
(123,535,o),
(141,550,o),
(171,550,cs),
(201,550,o),
(213,535,o),
(207,505,cs),
(126,45,ls),
(120,15,o),
(103,0,o),
(73,0,cs)
);
},
{
closed = 1;
nodes = (
(451,645,o),
(446,661,o),
(478,694,cs),
(537,759,ls),
(554,776,o),
(573,785,o),
(595,785,cs),
(638,785,o),
(643,768,o),
(610,734,cs),
(547,669,ls),
(531,653,o),
(513,645,o),
(492,645,cs)
);
},
{
closed = 1;
nodes = (
(162,645,o),
(157,661,o),
(189,694,cs),
(248,759,ls),
(265,776,o),
(284,785,o),
(306,785,cs),
(349,785,o),
(354,768,o),
(321,734,cs),
(258,669,ls),
(242,653,o),
(224,645,o),
(203,645,cs)
);
}
);
width = 600;
},
{
anchors = (
{
name = m.uni0308;
position = "{559, 785}";
}
);
layerId = "65670A5D-CCC8-4389-B3B7-F9F0C6F62714";
shapes = (
{
closed = 1;
nodes = (
(22,-143,o),
(31,-135,o),
(46,-135,cs),
(177,-135,ls),
(248,-135,o),
(334,-60,o),
(347,10,qs),
(439,525,ls),
(441,542,o),
(451,550,o),
(468,550,cs),
(485,550,o),
(491,542,o),
(489,525,cs),
(397,10,ls),
(381,-79,o),
(261,-180,o),
(169,-180,qs),
(38,-180,ls),
(23,-180,o),
(16,-173,o),
(19,-158,cs)
);
},
{
closed = 1;
nodes = (
(55,0,o),
(49,8,o),
(51,25,cs),
(141,525,ls),
(143,542,o),
(153,550,o),
(170,550,cs),
(187,550,o),
(193,542,o),
(191,525,cs),
(101,25,ls),
(99,8,o),
(89,0,o),
(72,0,cs)
);
},
{
closed = 1;
nodes = (
(465,645,o),
(463,654,o),
(480,673,cs),
(570,769,ls),
(581,780,o),
(593,785,o),
(606,785,cs),
(632,785,o),
(634,775,o),
(614,754,cs),
(521,659,ls),
(512,650,o),
(501,645,o),
(489,645,cs)
);
},
{
closed = 1;
nodes = (
(170,645,o),
(168,654,o),
(185,673,cs),
(275,769,ls),
(286,780,o),
(298,785,o),
(311,785,cs),
(337,785,o),
(339,775,o),
(319,754,cs),
(226,659,ls),
(217,650,o),
(206,645,o),
(194,645,cs)
);
}
);
width = 600;
}
);
},
{
color = (153, 254, 255, 255);
glyphname = jdotless;
layers = (
{
layerId = "2C4CF9A7-491C-47AB-B6C9-58D3194EBCE0";
shapes = (
{
closed = 1;
nodes = (
(393,46,ls),
(357,-162,o),
(281,-270,o),
(97,-270,cs),
(54,-270,o),
(-9,-264,o),
(-70,-181,cs),
(-81,-167,o),
(-84,-145,o),
(-80,-129,cs),
(-75,-95,o),
(-34,-53,o),
(6,-53,cs),
(27,-53,o),
(40,-66,o),
(58,-87,cs),
(72,-106,o),
(90,-135,o),
(130,-135,cs),
(186,-135,o),
(219,-89,o),
(239,22,cs),
(295,339,ls),
(302,376,o),
(291,389,o),
(253,378,cs),
(182,357,ls),
(133,343,o),
(121,379,o),
(128,422,cs),
(137,469,o),
(164,480,o),
(211,492,cs),
(359,530,ls),
(439,550,o),
(472,490,o),
(458,410,cs)
);
}
);
width = 600;
},
{
layerId = "4F1D95E0-B484-471A-8565-C56541B9E33E";
shapes = (
{
closed = 1;
nodes = (
(354,-33,ls),
(332,-157,o),
(229,-240,o),
(117,-240,cs),
(39,-240,o),
(-9,-199,o),
(-45,-148,cs),
(-52,-140,o),
(-52,-129,o),
(-52,-121,cs),
(-48,-99,o),
(-26,-68,o),
(6,-68,cs),
(23,-68,o),
(34,-81,o),
(41,-92,cs),
(63,-123,o),
(86,-150,o),
(131,-150,cs),
(189,-150,o),
(250,-113,o),
(262,-47,cs),
(339,390,ls),
(343,411,o),
(329,416,o),
(307,410,cs),
(199,383,ls),
(173,376,o),
(148,398,o),
(152,445,cs),
(155,472,o),
(176,483,o),
(204,490,cs),
(374,530,ls),
(428,543,o),
(449,504,o),
(440,450,cs)
);
}
);
width = 600;
},
{
layerId = "65670A5D-CCC8-4389-B3B7-F9F0C6F62714";
shapes = (
{
closed = 1;
nodes = (
(325,-63,ls),
(308,-156,o),
(220,-220,o),
(120,-220,cs),
(32,-220,o),
(-10,-170,o),
(-31,-144,cs),
(-35,-139,o),
(-34,-131,o),
(-34,-127,cs),
(-31,-114,o),
(-17,-94,o),
(-5,-94,cs),
(2,-94,o),
(10,-101,o),
(17,-111,cs),
(48,-146,o),
(78,-170,o),
(127,-170,cs),
(196,-170,o),
(264,-123,o),
(274,-67,cs),
(366,450,ls),
(370,470,o),
(361,475,o),
(342,470,cs),
(191,430,ls),
(176,426,o),
(168,450,o),
(171,465,cs),
(173,480,o),
(184,486,o),
(200,490,cs),
(370,530,ls),
(410,539,o),
(426,510,o),
(420,470,cs)
);
}
);
width = 600;
}
);
unicode = 567;
},
{
color = (153, 254, 255, 255);
glyphname = k;
layers = (
{
layerId = "2C4CF9A7-491C-47AB-B6C9-58D3194EBCE0";
shapes = (
{
closed = 1;
nodes = (
(157,65,ls),
(147,15,o),
(118,-10,o),
(68,-10,cs),
(18,-10,o),
(-3,15,o),
(7,65,cs),
(113,665,ls),
(122,715,o),
(151,740,o),
(201,740,cs),
(251,740,o),
(272,715,o),
(263,665,cs),
(216,398,ls),
(213,387,o),
(222,382,o),
(231,391,cs),
(387,527,ls),
(412,549,o),
(439,560,o),
(470,560,cs),
(518,560,o),
(548,508,o),
(497,459,cs),
(378,346,ls),
(364,333,o),
(360,320,o),
(366,306,cs),
(468,86,ls),
(491,38,o),
(441,-10,o),
(396,-10,cs),
(358,-10,o),
(330,1,o),
(316,33,cs),
(241,198,ls),
(236,211,o),
(226,214,o),
(212,202,c),
(195,187,ls),
(176,169,o),
(173,161,o),
(171,144,cs)
);
}
);
width = 600;
},
{
layerId = "4F1D95E0-B484-471A-8565-C56541B9E33E";
shapes = (
{
closed = 1;
nodes = (
(116,35,ls),
(111,5,o),
(93,-10,o),
(63,-10,cs),
(33,-10,o),
(21,5,o),
(26,35,cs),
(144,695,ls),
(149,725,o),
(166,740,o),
(196,740,cs),
(226,740,o),
(239,725,o),
(234,695,cs),
(169,332,ls),
(168,323,o),
(173,318,o),
(182,326,cs),
(431,539,ls),
(448,553,o),
(464,560,o),
(483,560,cs),
(519,560,o),
(529,524,o),
(500,497,cs),
(341,356,ls),
(329,346,o),
(325,336,o),
(331,324,cs),
(446,46,ls),
(458,16,o),
(433,-10,o),
(409,-10,cs),
(387,-10,o),
(364,-10,o),
(353,18,cs),
(253,261,ls),
(248,273,o),
(242,274,o),
(230,263,cs),
(160,202,ls),
(147,191,o),
(142,180,o),
(140,167,cs)
);
}
);
width = 600;
},
{
layerId = "65670A5D-CCC8-4389-B3B7-F9F0C6F62714";
shapes = (
{
closed = 1;
nodes = (
(92,15,ls),
(90,-2,o),
(80,-10,o),
(63,-10,cs),
(46,-10,o),
(40,-2,o),
(42,15,cs),
(167,715,ls),
(170,732,o),
(179,740,o),
(196,740,cs),
(213,740,o),
(220,732,o),
(217,715,cs),
(141,285,ls),
(139,279,o),
(144,276,o),
(150,281,cs),
(455,546,ls),
(466,555,o),
(476,560,o),
(489,560,cs),
(507,560,o),
(518,536,o),
(499,519,cs),
(313,355,ls),
(306,348,o),
(303,340,o),
(306,331,cs),
(434,23,ls),
(441,8,o),
(425,-10,o),
(409,-10,cs),
(396,-10,o),
(387,-4,o),
(383,7,c),
(266,297,ls),
(262,306,o),
(256,306,o),
(249,299,cs),
(136,200,ls),
(127,193,o),
(123,184,o),
(121,174,cs)
);
}
);
width = 600;
}
);
unicode = 107;
},
{
color = (153, 254, 255, 255);
glyphname = l;
layers = (
{
layerId = "2F596E92-7C91-4692-8980-D84258A4ED8F";
name = "#instance";
shapes = (
{
closed = 1;
nodes = (
(375,19,o),
(320,-10,o),
(247,-10,cs),
(147,-10,o),
(119,60,o),
(126,161,cs),
(157,601,o),
(270,740,o),
(408,740,cs),
(507,740,o),
(527,664,o),
(514,589,c),
(473,336,o),
(327,191,o),
(19,66,cs),
(-12,54,o),
(-29,62,o),
(-36,91,cs),
(-43,119,o),
(-32,138,o),
(-1,151,cs),
(259,259,o),
(394,389,o),
(424,585,cs),
(430,626,o),
(421,650,o),
(393,650,cs),
(339,650,o),
(233,539,o),
(215,203,cs),
(210,115,o),
(225,76,o),
(269,76,cs),
(311,76,o),
(337,98,o),
(364,129,c),
(388,153,o),
(410,155,o),
(429,139,cs),
(450,121,o),
(448,96,o),
(428,74,cs)
);
}
);
width = 600;
},
{
layerId = "2C4CF9A7-491C-47AB-B6C9-58D3194EBCE0";
shapes = (
{
closed = 1;
nodes = (
(382,24,o),
(325,-10,o),
(250,-10,cs),
(140,-10,o),
(100,65,o),
(108,170,cs),
(136,532,o),
(211,740,o),
(399,740,cs),
(521,740,o),
(545,635,o),
(525,536,cs),
(485,331,o),
(340,197,o),
(51,78,cs),
(11,62,o),
(-14,76,o),
(-23,119,cs),
(-33,162,o),
(-18,190,o),
(23,207,cs),
(243,301,o),
(359,406,o),
(387,538,cs),
(392,562,o),
(398,605,o),
(375,605,cs),
(327,605,o),
(260,444,o),
(246,197,cs),
(243,158,o),
(258,128,o),
(281,128,cs),
(306,128,o),
(326,145,o),
(354,172,cs),
(383,200,o),
(411,200,o),
(440,176,cs),
(468,153,o),
(467,113,o),
(444,89,cs)
);
}
);
width = 600;
},
{
layerId = "4F1D95E0-B484-471A-8565-C56541B9E33E";
shapes = (
{
closed = 1;
nodes = (
(375,19,o),
(320,-10,o),
(247,-10,cs),
(147,-10,o),
(119,60,o),
(126,161,cs),
(157,601,o),
(270,740,o),
(408,740,cs),
(507,740,o),
(527,664,o),
(514,589,cs),
(473,336,o),
(327,191,o),
(19,66,cs),
(-12,54,o),
(-29,62,o),
(-36,91,cs),
(-43,119,o),
(-32,138,o),
(-1,151,cs),
(259,259,o),
(394,389,o),
(424,585,cs),
(430,626,o),
(421,650,o),
(393,650,cs),
(339,650,o),
(233,539,o),
(215,203,cs),
(210,115,o),
(225,76,o),
(269,76,cs),
(311,76,o),
(337,98,o),
(364,129,cs),
(388,153,o),
(410,155,o),
(429,139,cs),
(450,121,o),
(448,96,o),
(428,74,cs)
);
}
);
width = 600;
},
{
layerId = "65670A5D-CCC8-4389-B3B7-F9F0C6F62714";
shapes = (
{
closed = 1;
nodes = (
(378,18,o),
(328,-10,o),
(255,-10,cs),
(163,-10,o),
(135,59,o),
(144,155,cs),
(181,572,o),
(272,740,o),
(421,740,cs),
(510,740,o),
(521,672,o),
(514,616,cs),
(483,324,o),
(314,185,o),
(-1,57,cs),
(-18,50,o),
(-27,56,o),
(-31,74,cs),
(-34,92,o),
(-29,103,o),
(-12,110,cs),
(272,227,o),
(427,335,o),
(464,608,cs),
(469,650,o),
(459,690,o),
(417,690,cs),
(337,690,o),
(236,568,o),
(196,196,cs),
(185,93,o),
(203,40,o),
(272,40,cs),
(327,40,o),
(361,70,o),
(397,111,cs),
(408,123,o),
(421,124,o),
(433,114,cs),
(445,103,o),
(443,87,o),
(432,76,cs)
);
}
);
width = 600;
}
);
unicode = 108;
},
{
color = (153, 254, 255, 255);
glyphname = m;
layers = (
{
layerId = "2C4CF9A7-491C-47AB-B6C9-58D3194EBCE0";
shapes = (
{
closed = 1;
nodes = (
(-21,-10,o),
(-45,10,o),
(-38,54,cs),
(42,499,ls),
(49,541,o),
(79,560,o),
(116,560,cs),
(157,560,o),
(178,537,o),
(172,499,cs),
(170,490,l),
(198,536,o),
(228,560,o),
(274,560,cs),
(322,560,o),
(349,534,o),
(359,493,c),
(380,534,o),
(420,560,o),
(472,560,cs),
(539,560,o),
(578,515,o),
(566,440,cs),
(496,54,ls),
(489,10,o),
(458,-10,o),
(416,-10,cs),
(373,-10,o),
(349,11,o),
(357,55,cs),
(417,393,ls),
(421,412,o),
(414,436,o),
(393,436,cs),
(371,436,o),
(359,412,o),
(355,393,cs),
(293,49,ls),
(287,8,o),
(257,-10,o),
(218,-10,cs),
(179,-10,o),
(157,8,o),
(163,49,cs),
(225,393,ls),
(229,412,o),
(225,436,o),
(203,436,cs),
(181,436,o),
(167,412,o),
(163,393,cs),
(103,55,ls),
(95,11,o),
(65,-10,o),
(22,-10,cs)
);
}
);
width = 600;
},
{
layerId = "4F1D95E0-B484-471A-8565-C56541B9E33E";
shapes = (
{
closed = 1;
nodes = (
(-4,0,o),
(-22,13,o),
(-17,42,cs),
(68,521,ls),
(72,548,o),
(94,560,o),
(119,560,cs),
(145,560,o),
(156,547,o),
(153,526,cs),
(147,495,l),
(171,534,o),
(205,560,o),
(249,560,cs),
(300,560,o),
(335,536,o),
(336,496,c),
(366,537,o),
(398,560,o),
(452,560,cs),
(530,560,o),
(554,497,o),
(539,418,cs),
(473,42,ls),
(468,13,o),
(445,0,o),
(418,0,cs),
(391,0,o),
(374,13,o),
(379,42,cs),
(444,409,ls),
(450,445,o),
(443,481,o),
(401,481,cs),
(360,481,o),
(341,446,o),
(335,410,cs),
(269,37,ls),
(264,11,o),
(244,0,o),
(220,0,cs),
(196,0,o),
(180,11,o),
(185,37,cs),
(251,409,ls),
(256,444,o),
(251,481,o),
(209,481,cs),
(167,481,o),
(148,447,o),
(142,410,cs),
(77,42,ls),
(72,13,o),
(50,0,o),
(23,0,cs)
);
}
);
width = 600;
},
{
layerId = "65670A5D-CCC8-4389-B3B7-F9F0C6F62714";
shapes = (
{
closed = 1;
nodes = (
(2,-10,o),
(-5,-1,o),
(-3,15,cs),
(90,538,ls),
(94,553,o),
(101,560,o),
(115,560,cs),
(131,560,o),
(139,553,o),
(135,538,cs),
(128,496,l),
(151,537,o),
(192,560,o),
(237,560,cs),
(280,560,o),
(319,539,o),
(326,495,c),
(355,539,o),
(389,560,o),
(437,560,cs),
(510,560,o),
(534,499,o),
(522,431,cs),
(448,14,ls),
(445,-2,o),
(435,-10,o),
(419,-10,cs),
(403,-10,o),
(396,-2,o),
(399,14,cs),
(470,420,ls),
(479,468,o),
(466,513,o),
(412,513,cs),
(358,513,o),
(327,468,o),
(318,420,cs),
(247,14,ls),
(244,-2,o),
(234,-10,o),
(218,-10,cs),
(202,-10,o),
(195,-2,o),
(198,14,cs),
(269,420,ls),
(278,468,o),
(265,513,o),
(211,513,cs),
(157,513,o),
(127,468,o),
(118,420,cs),
(47,14,ls),
(44,-2,o),
(34,-10,o),
(18,-10,cs)
);
}
);
width = 600;
}
);
unicode = 109;
},
{
color = (153, 254, 255, 255);
glyphname = n;
layers = (
{
layerId = "2C4CF9A7-491C-47AB-B6C9-58D3194EBCE0";
shapes = (
{
closed = 1;
nodes = (
(-4,65,ls),
(-12,15,o),
(8,-10,o),
(58,-10,cs),
(108,-10,o),
(138,15,o),
(146,65,cs),
(190,310,ls),
(200,368,o),
(260,425,o),
(319,425,cs),
(364,425,o),
(371,376,o),
(363,330,cs),
(316,65,ls),
(308,15,o),
(328,-10,o),
(378,-10,cs),
(428,-10,o),
(458,15,o),
(466,65,cs),
(518,355,ls),
(538,469,o),
(494,560,o),
(375,560,cs),
(270,560,o),
(224,499,o),
(215,483,c),
(216,487,ls),
(225,536,o),
(198,560,o),
(153,560,cs),
(108,560,o),
(80,536,o),
(71,487,cs)
);
}
);
width = 600;
},
{
layerId = "4F1D95E0-B484-471A-8565-C56541B9E33E";
shapes = (
{
closed = 1;
nodes = (
(21,35,ls),
(16,5,o),
(28,-10,o),
(58,-10,cs),
(88,-10,o),
(106,5,o),
(111,35,cs),
(163,330,ls),
(176,404,o),
(245,470,o),
(321,470,cs),
(384,470,o),
(408,413,o),
(396,344,cs),
(341,35,ls),
(336,5,o),
(348,-10,o),
(378,-10,cs),
(408,-10,o),
(426,5,o),
(431,35,cs),
(490,370,ls),
(510,484,o),
(458,560,o),
(357,560,cs),
(299,560,o),
(226,535,o),
(189,478,c),
(196,515,ls),
(201,545,o),
(189,560,o),
(159,560,cs),
(129,560,o),
(111,545,o),
(106,515,cs)
);
}
);
width = 600;
},
{
layerId = "65670A5D-CCC8-4389-B3B7-F9F0C6F62714";
shapes = (
{
closed = 1;
nodes = (
(38,15,ls),
(35,-2,o),
(41,-10,o),
(58,-10,cs),
(75,-10,o),
(85,-2,o),
(88,15,cs),
(146,345,ls),
(161,432,o),
(241,510,o),
(328,510,cs),
(404,510,o),
(432,438,o),
(418,355,cs),
(358,15,ls),
(355,-2,o),
(361,-10,o),
(378,-10,cs),
(395,-10,o),
(405,-2,o),
(408,15,cs),
(470,367,ls),
(489,476,o),
(442,560,o),
(349,560,cs),
(275,560,o),
(208,533,o),
(170,483,c),
(179,535,ls),
(182,552,o),
(176,560,o),
(159,560,cs),
(142,560,o),
(132,552,o),
(129,535,cs)
);
}
);
width = 600;
}
);
unicode = 110;
},
{
color = (153, 254, 255, 255);
glyphname = o;
layers = (
{
layerId = "2C4CF9A7-491C-47AB-B6C9-58D3194EBCE0";
shapes = (
{
closed = 1;
nodes = (
(53,-10,o),
(-3,123,o),
(23,275,cs),
(51,427,o),
(154,560,o),
(319,560,cs),
(484,560,o),
(541,429,o),
(513,275,cs),
(487,123,o),
(383,-10,o),
(218,-10,cs)
);
},
{
closed = 1;
nodes = (
(305,115,o),
(348,190,o),
(363,275,cs),
(379,362,o),
(362,435,o),
(297,435,cs),
(232,435,o),
(189,360,o),
(173,275,cs),
(158,190,o),
(175,115,o),
(240,115,cs)
);
}
);
width = 600;
},
{
layerId = "4F1D95E0-B484-471A-8565-C56541B9E33E";
shapes = (
{
closed = 1;
nodes = (
(64,-10,o),
(14,110,o),
(44,276,cs),
(74,440,o),
(163,560,o),
(319,560,cs),
(476,560,o),
(524,440,o),
(494,276,cs),
(464,110,o),
(373,-10,o),
(218,-10,cs)
);
},
{
closed = 1;
nodes = (
(328,80,o),
(383,160,o),
(404,276,cs),
(424,390,o),
(399,470,o),
(304,470,cs),
(209,470,o),
(154,390,o),
(133,275,cs),
(113,160,o),
(140,80,o),
(234,80,cs)
);
}
);
width = 600;
},
{
layerId = "65670A5D-CCC8-4389-B3B7-F9F0C6F62714";
shapes = (
{
closed = 1;
nodes = (
(84,-10,o),
(28,100,o),
(58,275,cs),
(90,450,o),
(185,560,o),
(321,560,cs),
(457,560,o),
(510,450,o),
(479,278,cs),
(448,100,o),
(351,-10,o),
(218,-10,cs)
);
},
{
closed = 1;
nodes = (
(329,40,o),
(403,130,o),
(429,278,cs),
(454,420,o),
(416,510,o),
(312,510,cs),
(209,510,o),
(134,420,o),
(108,275,cs),
(83,130,o),
(126,40,o),
(228,40,cs)
);
}
);
width = 600;
}
);
unicode = 111;
},
{
color = (153, 254, 255, 255);
glyphname = oe;
layers = (
{
layerId = "2C4CF9A7-491C-47AB-B6C9-58D3194EBCE0";
shapes = (
{
closed = 1;
nodes = (
(547,350,ls),
(535,283,o),
(496,250,o),
(429,250,cs),
(346,250,ls),
(329,250,o),
(320,242,o),
(317,225,cs),
(302,140,ls),
(297,115,o),
(317,87,o),
(339,87,qs),
(361,87,o),
(375,101,qs),
(377,102,o),
(378,103,qs),
(403,130,o),
(418,140,o),
(433,140,cs),
(489,140,o),
(509,108,o),
(481,65,cs),
(468,47,o),
(451,32,qs),
(403,-10,o),
(338,-10,qs),
(300,-10,o),
(255,14,o),
(235,49,o),
(232,65,q),
(221,49,o),
(189,14,o),
(135,-10,o),
(98,-10,qs),
(33,-10,o),
(-25,73,o),
(-20,140,qs),
(-14,229,o),
(2,321,o),
(28,410,cs),
(48,478,o),
(134,560,o),
(199,560,qs),
(236,560,o),
(281,536,o),
(302,501,o),
(306,485,q),
(316,501,o),
(347,536,o),
(401,560,o),
(439,560,qs),
(504,560,o),
(570,478,o),
(558,410,qs)
);
},
{
closed = 1;
nodes = (
(154,87,o),
(180,115,o),
(188,140,qs),
(214,229,o),
(230,321,o),
(236,410,cs),
(238,436,o),
(221,463,o),
(199,463,qs),
(177,463,o),
(150,435,o),
(143,410,qs),
(117,321,o),
(101,229,o),
(95,140,cs),
(93,115,o),
(110,87,o),
(132,87,qs)
);
},
{
closed = 1;
nodes = (
(340,355,ls),
(337,338,o),
(343,330,o),
(360,330,cs),
(378,330,ls),
(412,330,o),
(432,346,o),
(438,380,cs),
(443,410,ls),
(448,436,o),
(428,463,o),
(406,463,qs),
(384,463,o),
(354,435,o),
(350,410,qs)
);
}
);
width = 600;
},
{
layerId = "4F1D95E0-B484-471A-8565-C56541B9E33E";
shapes = (
{
closed = 1;
nodes = (
(543,330,ls),
(534,276,o),
(503,250,o),
(449,250,cs),
(327,250,ls),
(314,250,o),
(307,243,o),
(304,230,cs),
(290,150,ls),
(283,112,o),
(311,67,o),
(342,67,qs),
(369,67,o),
(390,83,qs),
(399,89,o),
(406,98,qs),
(421,118,o),
(432,125,o),
(448,125,cs),
(488,125,o),
(500,104,o),
(479,71,cs),
(462,46,o),
(439,27,qs),
(394,-10,o),
(338,-10,qs),
(298,-10,o),
(251,16,o),
(233,53,o),
(233,70,q),
(226,53,o),
(193,16,o),
(138,-10,o),
(98,-10,qs),
(31,-10,o),
(-22,78,o),
(-18,150,qs),
(-13,233,o),
(2,318,o),
(26,400,cs),
(48,473,o),
(132,560,o),
(199,560,qs),
(239,560,o),
(286,534,o),
(306,497,o),
(305,480,q),
(313,497,o),
(344,534,o),
(399,560,o),
(439,560,qs),
(506,560,o),
(569,474,o),
(556,400,qs)
);
},
{
closed = 1;
nodes = (
(153,67,o),
(187,112,o),
(199,150,qs),
(224,233,o),
(239,318,o),
(243,400,cs),
(245,438,o),
(227,483,o),
(196,483,qs),
(164,483,o),
(123,438,o),
(111,400,qs),
(87,318,o),
(72,233,o),
(67,150,cs),
(65,112,o),
(90,67,o),
(122,67,qs)
);
},
{
closed = 1;
nodes = (
(324,343,ls),
(321,330,o),
(328,323,o),
(341,323,cs),
(418,323,ls),
(445,323,o),
(459,336,o),
(464,363,cs),
(471,400,ls),
(478,438,o),
(448,483,o),
(416,483,qs),
(385,483,o),
(341,438,o),
(334,400,qs)
);
}
);
width = 600;
},
{
layerId = "65670A5D-CCC8-4389-B3B7-F9F0C6F62714";
shapes = (
{
closed = 1;
nodes = (
(542,320,ls),
(535,280,o),
(511,260,o),
(471,260,cs),
(308,260,ls),
(298,260,o),
(292,255,o),
(290,245,cs),
(272,140,ls),
(264,93,o),
(306,34,o),
(349,34,qs),
(391,35,o),
(422,60,qs),
(443,78,o),
(453,101,qs),
(463,118,o),
(473,125,o),
(489,125,cs),
(506,125,o),
(511,116,o),
(505,100,cs),
(488,56,o),
(452,27,qs),
(406,-10,o),
(344,-10,qs),
(306,-10,o),
(259,17,o),
(238,57,o),
(236,75,q),
(228,57,o),
(191,17,o),
(133,-10,o),
(92,-10,qs),
(28,-10,o),
(-24,71,o),
(-20,139,qs),
(-15,228,o),
(2,319,o),
(28,408,cs),
(47,477,o),
(133,560,o),
(199,560,qs),
(238,560,o),
(284,532,o),
(307,493,o),
(307,474,q),
(317,493,o),
(352,532,o),
(407,560,o),
(442,560,qs),
(507,560,o),
(570,478,o),
(558,410,qs)
);
},
{
closed = 1;
nodes = (
(152,34,o),
(205,93,o),
(218,140,qs),
(244,229,o),
(260,321,o),
(266,410,cs),
(269,457,o),
(238,516,o),
(195,516,qs),
(152,516,o),
(92,457,o),
(79,408,qs),
(53,319,o),
(36,228,o),
(31,139,cs),
(28,92,o),
(66,34,o),
(109,34,qs)
);
},
{
closed = 1;
nodes = (
(305,325,ls),
(303,315,o),
(307,310,o),
(317,310,cs),
(460,310,ls),
(480,310,o),
(492,320,o),
(495,340,cs),
(508,410,ls),
(516,457,o),
(475,516,o),
(432,516,qs),
(390,516,o),
(328,457,o),
(320,410,qs)
);
}
);
width = 600;
}
);
unicode = 339;
},
{
color = (153, 254, 255, 255);
glyphname = p;
layers = (
{
layerId = "2C4CF9A7-491C-47AB-B6C9-58D3194EBCE0";
shapes = (
{
closed = 1;
nodes = (
(203,560,o),
(221,536,o),
(212,487,cs),
(211,481,l),
(233,523,o),
(297,560,o),
(374,560,cs),
(534,560,o),
(546,402,o),
(524,276,cs),
(500,144,o),
(430,-10,o),
(255,-10,cs),
(186,-10,o),
(152,30,o),
(144,71,c),
(111,-115,ls),
(102,-165,o),
(72,-190,o),
(22,-190,cs),
(-28,-190,o),
(-48,-165,o),
(-39,-115,cs),
(67,487,ls),
(76,536,o),
(103,560,o),
(153,560,cs)
);
},
{
closed = 1;
nodes = (
(249,410,o),
(196,369,o),
(187,315,cs),
(172,235,ls),
(162,177,o),
(192,130,o),
(254,130,cs),
(335,130,o),
(362,209,o),
(374,277,cs),
(385,343,o),
(385,410,o),
(309,410,cs)
);
}
);
width = 600;
},
{
layerId = "4F1D95E0-B484-471A-8565-C56541B9E33E";
shapes = (
{
closed = 1;
nodes = (
(184,560,o),
(196,545,o),
(191,514,cs),
(183,470,l),
(228,529,o),
(276,560,o),
(346,560,cs),
(505,560,o),
(510,398,o),
(488,274,cs),
(466,150,o),
(404,-10,o),
(232,-10,cs),
(153,-10,o),
(119,28,o),
(113,74,c),
(74,-145,ls),
(69,-175,o),
(51,-190,o),
(21,-190,cs),
(-9,-190,o),
(-21,-175,o),
(-16,-145,cs),
(101,514,ls),
(106,545,o),
(124,560,o),
(154,560,cs)
);
},
{
closed = 1;
nodes = (
(249,475,o),
(172,407,o),
(161,344,cs),
(141,234,ls),
(130,170,o),
(163,75,o),
(235,75,cs),
(349,75,o),
(383,186,o),
(397,268,cs),
(412,353,o),
(419,475,o),
(322,475,cs)
);
}
);
width = 600;
},
{
layerId = "65670A5D-CCC8-4389-B3B7-F9F0C6F62714";
shapes = (
{
closed = 1;
nodes = (
(171,560,o),
(177,552,o),
(174,535,cs),
(163,472,l),
(173,493,o),
(214,560,o),
(332,560,cs),
(480,560,o),
(495,395,o),
(473,275,cs),
(453,156,o),
(379,-10,o),
(228,-10,cs),
(165,-10,o),
(110,19,o),
(94,81,c),
(51,-165,ls),
(48,-182,o),
(38,-190,o),
(21,-190,cs),
(4,-190,o),
(-2,-182,o),
(1,-165,cs),
(124,535,ls),
(127,552,o),
(137,560,o),
(154,560,cs)
);
},
{
closed = 1;
nodes = (
(234,512,o),
(156,431,o),
(143,356,cs),
(114,195,ls),
(102,125,o),
(156,38,o),
(230,38,cs),
(355,38,o),
(406,177,o),
(423,275,cs),
(441,373,o),
(438,512,o),
(322,512,cs)
);
}
);
width = 600;
}
);
unicode = 112;
},
{
color = (153, 254, 255, 255);
glyphname = q;
layers = (
{
layerId = "2C4CF9A7-491C-47AB-B6C9-58D3194EBCE0";
shapes = (
{
closed = 1;
nodes = (
(535,560,o),
(554,536,o),
(545,487,cs),
(439,-115,ls),
(430,-165,o),
(400,-190,o),
(350,-190,cs),
(300,-190,o),
(280,-165,o),
(289,-115,cs),
(322,71,l),
(298,30,o),
(250,-10,o),
(181,-10,cs),
(6,-10,o),
(-10,144,o),
(14,276,cs),
(36,402,o),
(104,560,o),
(264,560,cs),
(341,560,o),
(391,523,o),
(399,481,c),
(400,487,ls),
(409,536,o),
(435,560,o),
(485,560,cs)
);
},
{
closed = 1;
nodes = (
(199,410,o),
(175,343,o),
(164,277,cs),
(152,209,o),
(151,130,o),
(232,130,cs),
(294,130,o),
(340,177,o),
(350,235,cs),
(365,315,ls),
(374,369,o),
(335,410,o),
(275,410,cs)
);
}
);
width = 600;
},
{
layerId = "4F1D95E0-B484-471A-8565-C56541B9E33E";
shapes = (
{
closed = 1;
nodes = (
(514,560,o),
(526,545,o),
(521,514,cs),
(404,-145,ls),
(399,-175,o),
(381,-190,o),
(351,-190,cs),
(321,-190,o),
(309,-175,o),
(314,-145,cs),
(353,74,l),
(331,28,o),
(283,-10,o),
(204,-10,cs),
(32,-10,o),
(26,150,o),
(48,274,cs),
(70,398,o),
(133,560,o),
(292,560,cs),
(362,560,o),
(398,529,o),
(423,470,c),
(431,514,ls),
(436,545,o),
(454,560,o),
(484,560,cs)
);
},
{
closed = 1;
nodes = (
(189,475,o),
(152,353,o),
(137,268,cs),
(123,186,o),
(117,75,o),
(231,75,cs),
(303,75,o),
(370,170,o),
(381,234,cs),
(401,344,ls),
(412,407,o),
(359,475,o),
(286,475,cs)
);
}
);
width = 600;
},
{
layerId = "65670A5D-CCC8-4389-B3B7-F9F0C6F62714";
shapes = (
{
closed = 1;
nodes = (
(501,560,o),
(507,552,o),
(504,535,cs),
(381,-165,ls),
(378,-182,o),
(368,-190,o),
(351,-190,cs),
(334,-190,o),
(328,-182,o),
(331,-165,cs),
(374,81,l),
(336,19,o),
(271,-10,o),
(208,-10,cs),
(57,-10,o),
(43,156,o),
(63,275,cs),
(85,395,o),
(158,560,o),
(306,560,cs),
(424,560,o),
(441,493,o),
(443,472,c),
(454,535,ls),
(457,552,o),
(467,560,o),
(484,560,cs)
);
},
{
closed = 1;
nodes = (
(182,512,o),
(131,373,o),
(113,275,cs),
(96,177,o),
(99,38,o),
(224,38,cs),
(298,38,o),
(382,125,o),
(394,195,cs),
(423,356,ls),
(436,431,o),
(386,512,o),
(298,512,cs)
);
}
);
width = 600;
}
);
unicode = 113;
},
{
color = (153, 254, 255, 255);
glyphname = r;
layers = (
{
layerId = "2C4CF9A7-491C-47AB-B6C9-58D3194EBCE0";
shapes = (
{
closed = 1;
nodes = (
(29,-10,o),
(8,15,o),
(18,65,cs),
(93,487,ls),
(101,536,o),
(129,560,o),
(180,560,cs),
(235,560,o),
(245,532,o),
(237,483,cs),
(235,477,l),
(269,533,o),
(347,560,o),
(428,560,cs),
(526,560,o),
(577,479,o),
(560,387,cs),
(550,330,o),
(520,305,o),
(461,305,cs),
(412,305,o),
(403,323,o),
(406,362,cs),
(412,409,o),
(396,425,o),
(362,425,cs),
(296,425,o),
(221,367,o),
(209,298,cs),
(168,65,ls),
(158,15,o),
(129,-10,o),
(79,-10,cs)
);
}
);
width = 600;
},
{
layerId = "4F1D95E0-B484-471A-8565-C56541B9E33E";
shapes = (
{
closed = 1;
nodes = (
(45,-10,o),
(33,5,o),
(38,35,cs),
(123,515,ls),
(129,545,o),
(146,560,o),
(176,560,cs),
(208,560,o),
(219,545,o),
(213,515,cs),
(208,483,l),
(244,531,o),
(327,560,o),
(400,560,cs),
(515,560,o),
(546,486,o),
(528,380,cs),
(522,350,o),
(504,335,o),
(475,335,cs),
(441,335,o),
(437,355,o),
(440,390,cs),
(444,436,o),
(436,475,o),
(378,475,cs),
(301,475,o),
(194,405,o),
(180,330,cs),
(128,35,ls),
(123,5,o),
(105,-10,o),
(75,-10,cs)
);
}
);
width = 600;
},
{
layerId = "65670A5D-CCC8-4389-B3B7-F9F0C6F62714";
shapes = (
{
closed = 1;
nodes = (
(58,-10,o),
(52,-2,o),
(54,15,cs),
(147,535,ls),
(150,552,o),
(159,560,o),
(176,560,cs),
(192,560,o),
(200,552,o),
(197,535,cs),
(186,473,l),
(227,525,o),
(312,560,o),
(387,560,cs),
(499,560,o),
(523,481,o),
(506,380,cs),
(502,363,o),
(493,355,o),
(476,355,cs),
(459,355,o),
(453,363,o),
(456,380,cs),
(464,453,o),
(452,510,o),
(372,510,cs),
(283,510,o),
(181,440,o),
(164,350,cs),
(104,15,ls),
(102,-2,o),
(92,-10,o),
(75,-10,cs)
);
}
);
width = 600;
}
);
unicode = 114;
},
{
color = (153, 254, 255, 255);
glyphname = s;
layers = (
{
layerId = "2C4CF9A7-491C-47AB-B6C9-58D3194EBCE0";
shapes = (
{
closed = 1;
nodes = (
(137,-10,o),
(69,7,o),
(28,61,cs),
(13,80,o),
(6,98,o),
(10,121,cs),
(18,165,o),
(45,191,o),
(78,191,cs),
(91,191,o),
(107,188,o),
(118,177,cs),
(151,143,o),
(195,120,o),
(243,120,cs),
(292,120,o),
(338,124,o),
(342,145,cs),
(346,169,o),
(338,182,o),
(317,190,cs),
(152,252,ls),
(91,275,o),
(56,315,o),
(70,392,cs),
(92,520,o),
(189,560,o),
(325,560,cs),
(406,560,o),
(473,536,o),
(504,492,cs),
(512,482,o),
(519,467,o),
(515,444,cs),
(507,397,o),
(479,374,o),
(445,374,cs),
(426,374,o),
(409,380,o),
(402,388,cs),
(384,410,o),
(346,430,o),
(298,430,cs),
(247,430,o),
(224,415,o),
(221,397,cs),
(217,375,o),
(225,371,o),
(242,364,cs),
(383,307,ls),
(457,277,o),
(505,251,o),
(489,161,cs),
(464,21,o),
(351,-10,o),
(222,-10,cs)
);
}
);
width = 600;
},
{
layerId = "4F1D95E0-B484-471A-8565-C56541B9E33E";
shapes = (
{
closed = 1;
nodes = (
(138,-10,o),
(76,10,o),
(34,71,cs),
(23,86,o),
(20,106,o),
(23,124,cs),
(29,153,o),
(48,162,o),
(67,162,cs),
(81,162,o),
(92,157,o),
(105,144,cs),
(143,102,o),
(174,80,o),
(243,80,cs),
(295,80,o),
(366,88,o),
(376,146,cs),
(383,190,o),
(358,209,o),
(321,222,cs),
(181,270,ls),
(129,288,o),
(79,321,o),
(95,410,cs),
(114,517,o),
(215,560,o),
(317,560,cs),
(403,560,o),
(477,530,o),
(501,475,cs),
(508,460,o),
(508,448,o),
(507,439,cs),
(503,418,o),
(486,399,o),
(467,399,cs),
(448,399,o),
(431,403,o),
(419,417,cs),
(392,449,o),
(367,470,o),
(306,470,cs),
(247,470,o),
(192,451,o),
(185,410,cs),
(180,382,o),
(192,363,o),
(216,354,cs),
(355,303,ls),
(425,278,o),
(483,242,o),
(466,145,cs),
(446,31,o),
(335,-10,o),
(221,-10,cs)
);
}
);
width = 600;
},
{
layerId = "65670A5D-CCC8-4389-B3B7-F9F0C6F62714";
shapes = (
{
closed = 1;
nodes = (
(141,-10,o),
(84,-2,o),
(51,52,cs),
(41,70,o),
(31,95,o),
(34,112,cs),
(37,125,o),
(46,135,o),
(62,135,cs),
(73,135,o),
(83,131,o),
(88,119,cs),
(110,61,o),
(150,40,o),
(217,40,cs),
(299,40,o),
(391,65,o),
(405,148,cs),
(413,195,o),
(391,230,o),
(349,241,cs),
(198,280,ls),
(137,296,o),
(88,330,o),
(104,413,cs),
(122,518,o),
(214,560,o),
(315,560,cs),
(405,560,o),
(467,528,o),
(492,472,cs),
(497,461,o),
(498,453,o),
(497,445,cs),
(495,431,o),
(483,425,o),
(470,425,cs),
(460,425,o),
(453,428,o),
(449,437,cs),
(416,496,o),
(376,510,o),
(303,510,cs),
(231,510,o),
(166,482,o),
(155,414,cs),
(145,363,o),
(175,337,o),
(221,325,cs),
(373,285,ls),
(431,270,o),
(470,227,o),
(457,152,cs),
(437,39,o),
(323,-10,o),
(218,-10,cs)
);
}
);
width = 600;
}
);
unicode = 115;
},
{
color = (153, 254, 255, 255);
glyphname = germandbls;
layers = (
{
layerId = "2C4CF9A7-491C-47AB-B6C9-58D3194EBCE0";
shapes = (
{
closed = 1;
nodes = (
(143,75,ls),
(134,25,o),
(105,0,o),
(55,0,cs),
(5,0,o),
(-16,25,o),
(-7,75,cs),
(71,512,ls),
(95,647,o),
(210,740,o),
(355,740,cs),
(496,740,o),
(581,659,o),
(560,541,cs),
(546,462,o),
(488,398,o),
(418,386,c),
(494,368,o),
(537,295,o),
(521,207,cs),
(499,84,o),
(391,0,o),
(257,0,cs),
(256,0,ls),
(212,0,o),
(194,21,o),
(203,65,cs),
(210,109,o),
(235,130,o),
(279,130,cs),
(282,130,ls),
(313,130,o),
(362,170,o),
(372,228,cs),
(383,286,o),
(355,325,o),
(308,325,cs),
(304,325,ls),
(267,325,o),
(252,343,o),
(259,380,cs),
(265,417,o),
(286,435,o),
(323,435,cs),
(327,435,ls),
(371,435,o),
(400,472,o),
(410,525,cs),
(419,578,o),
(387,615,o),
(333,615,cs),
(277,615,o),
(232,573,o),
(221,512,cs)
);
}
);
width = 600;
},
{
layerId = "4F1D95E0-B484-471A-8565-C56541B9E33E";
shapes = (
{
closed = 1;
nodes = (
(110,45,ls),
(104,15,o),
(87,0,o),
(57,0,cs),
(27,0,o),
(14,15,o),
(20,45,cs),
(107,534,ls),
(128,656,o),
(229,740,o),
(354,740,cs),
(479,740,o),
(551,665,o),
(532,556,cs),
(517,477,o),
(458,408,o),
(385,391,c),
(466,376,o),
(510,300,o),
(492,204,cs),
(471,83,o),
(366,0,o),
(235,0,cs),
(218,0,ls),
(191,0,o),
(180,14,o),
(185,41,cs),
(189,68,o),
(205,82,o),
(232,82,cs),
(239,82,ls),
(321,82,o),
(388,135,o),
(402,212,cs),
(415,289,o),
(372,342,o),
(295,342,cs),
(278,342,ls),
(251,342,o),
(240,355,o),
(245,382,cs),
(250,409,o),
(265,422,o),
(292,422,cs),
(298,422,ls),
(369,422,o),
(427,470,o),
(439,541,cs),
(452,612,o),
(411,660,o),
(340,660,cs),
(268,660,o),
(210,609,o),
(197,534,cs)
);
}
);
width = 600;
},
{
layerId = "65670A5D-CCC8-4389-B3B7-F9F0C6F62714";
shapes = (
{
closed = 1;
nodes = (
(84,25,ls),
(82,8,o),
(72,0,o),
(55,0,cs),
(38,0,o),
(32,8,o),
(34,25,cs),
(126,543,ls),
(147,660,o),
(241,740,o),
(358,740,cs),
(474,740,o),
(540,663,o),
(520,550,cs),
(505,468,o),
(444,398,o),
(370,383,c),
(450,367,o),
(494,292,o),
(477,198,cs),
(456,81,o),
(354,0,o),
(227,0,cs),
(208,0,ls),
(193,0,o),
(187,8,o),
(189,23,cs),
(192,38,o),
(201,45,o),
(216,45,cs),
(235,45,ls),
(332,45,o),
(409,109,o),
(426,202,cs),
(443,295,o),
(387,359,o),
(290,359,cs),
(271,359,ls),
(256,359,o),
(250,367,o),
(253,382,cs),
(255,397,o),
(265,404,o),
(280,404,cs),
(299,404,ls),
(385,404,o),
(454,463,o),
(470,550,cs),
(485,636,o),
(437,695,o),
(351,695,cs),
(264,695,o),
(193,633,o),
(176,543,cs)
);
}
);
width = 600;
}
);
unicode = 223;
},
{
color = (153, 254, 255, 255);
glyphname = longs;
layers = (
{
layerId = "2C4CF9A7-491C-47AB-B6C9-58D3194EBCE0";
shapes = (
{
closed = 1;
nodes = (
(217,65,ls),
(207,15,o),
(178,-10,o),
(128,-10,cs),
(78,-10,o),
(57,15,o),
(67,65,cs),
(149,525,ls),
(170,650,o),
(269,730,o),
(400,730,cs),
(520,730,ls),
(564,730,o),
(581,709,o),
(573,665,cs),
(565,621,o),
(541,600,o),
(497,600,cs),
(387,600,ls),
(342,600,o),
(306,570,o),
(299,525,cs)
);
}
);
width = 600;
},
{
layerId = "4F1D95E0-B484-471A-8565-C56541B9E33E";
shapes = (
{
closed = 1;
nodes = (
(181,35,ls),
(176,5,o),
(158,-10,o),
(128,-10,cs),
(98,-10,o),
(86,5,o),
(91,35,cs),
(186,571,ls),
(204,666,o),
(283,730,o),
(384,730,cs),
(520,730,ls),
(547,730,o),
(557,717,o),
(553,690,cs),
(548,663,o),
(532,650,o),
(505,650,cs),
(369,650,ls),
(322,650,o),
(284,618,o),
(276,570,cs)
);
}
);
width = 600;
},
{
layerId = "65670A5D-CCC8-4389-B3B7-F9F0C6F62714";
shapes = (
{
closed = 1;
nodes = (
(152,15,ls),
(150,-2,o),
(140,-10,o),
(123,-10,cs),
(106,-10,o),
(100,-2,o),
(102,15,cs),
(205,595,ls),
(220,678,o),
(283,730,o),
(366,730,cs),
(522,730,ls),
(537,730,o),
(544,723,o),
(540,708,cs),
(538,693,o),
(530,685,o),
(515,685,cs),
(357,685,ls),
(307,685,o),
(265,648,o),
(255,595,cs)
);
}
);
width = 600;
}
);
unicode = 383;
},
{
color = (153, 254, 255, 255);
glyphname = t;
layers = (
{
layerId = "2C4CF9A7-491C-47AB-B6C9-58D3194EBCE0";
shapes = (
{
closed = 1;
nodes = (
(486,530,ls),
(531,530,o),
(550,508,o),
(542,463,cs),
(534,418,o),
(507,395,o),
(462,395,cs),
(93,395,ls),
(49,395,o),
(31,417,o),
(39,461,cs),
(47,507,o),
(74,530,o),
(120,530,cs)
);
},
{
closed = 1;
nodes = (
(217,630,ls),
(227,680,o),
(255,705,o),
(305,705,cs),
(355,705,o),
(377,680,o),
(367,630,cs),
(279,194,ls),
(272,157,o),
(282,134,o),
(308,134,cs),
(332,134,o),
(353,138,o),
(381,172,cs),
(404,200,o),
(438,199,o),
(463,178,cs),
(492,153,o),
(489,124,o),
(471,97,cs),
(408,0,o),
(342,-9,o),
(257,-9,cs),
(147,-9,o),
(104,63,o),
(125,170,cs)
);
}
);
width = 600;
},
{
layerId = "4F1D95E0-B484-471A-8565-C56541B9E33E";
shapes = (
{
closed = 1;
nodes = (
(493,530,ls),
(520,530,o),
(531,512,o),
(526,485,cs),
(521,458,o),
(505,440,o),
(478,440,cs),
(97,440,ls),
(70,440,o),
(58,458,o),
(63,485,cs),
(68,512,o),
(85,530,o),
(112,530,cs)
);
},
{
closed = 1;
nodes = (
(252,660,ls),
(258,690,o),
(275,705,o),
(305,705,cs),
(335,705,o),
(348,690,o),
(342,660,cs),
(255,224,ls),
(235,123,o),
(237,80,o),
(281,80,cs),
(318,80,o),
(355,103,o),
(383,134,cs),
(406,158,o),
(428,155,o),
(444,141,cs),
(461,127,o),
(463,101,o),
(443,79,cs),
(390,24,o),
(339,-10,o),
(266,-10,cs),
(166,-10,o),
(133,57,o),
(153,161,cs)
);
}
);
width = 600;
},
{
layerId = "65670A5D-CCC8-4389-B3B7-F9F0C6F62714";
shapes = (
{
closed = 1;
nodes = (
(496,530,ls),
(511,530,o),
(518,520,o),
(514,505,cs),
(512,490,o),
(502,480,o),
(487,480,cs),
(100,480,ls),
(85,480,o),
(79,490,o),
(81,505,cs),
(85,520,o),
(94,530,o),
(109,530,cs)
);
},
{
closed = 1;
nodes = (
(276,680,l),
(279,697,o),
(288,705,o),
(305,705,cs),
(322,705,o),
(330,697,o),
(326,680,cs),
(231,196,ls),
(207,71,o),
(228,40,o),
(277,40,cs),
(312,40,o),
(353,71,o),
(389,112,cs),
(400,124,o),
(415,124,o),
(424,118,cs),
(434,111,o),
(438,92,o),
(427,81,cs),
(373,23,o),
(333,-10,o),
(260,-10,cs),
(178,-10,o),
(156,60,o),
(174,155,cs)
);
}
);
width = 600;
}
);
unicode = 116;
},
{
color = (153, 254, 255, 255);
glyphname = u;
layers = (
{
layerId = "2C4CF9A7-491C-47AB-B6C9-58D3194EBCE0";
shapes = (
{
closed = 1;
nodes = (
(466,63,ls),
(457,14,o),
(429,-10,o),
(384,-10,cs),
(339,-10,o),
(312,14,o),
(321,63,cs),
(322,67,l),
(313,51,o),
(267,-10,o),
(162,-10,cs),
(43,-10,o),
(-1,81,o),
(19,195,cs),
(71,485,ls),
(79,535,o),
(109,560,o),
(159,560,cs),
(209,560,o),
(229,535,o),
(221,485,cs),
(174,220,ls),
(166,174,o),
(173,125,o),
(218,125,cs),
(277,125,o),
(337,182,o),
(347,240,cs),
(391,485,ls),
(399,535,o),
(429,560,o),
(479,560,cs),
(529,560,o),
(549,535,o),
(541,485,cs)
);
}
);
width = 600;
},
{
layerId = "4F1D95E0-B484-471A-8565-C56541B9E33E";
shapes = (
{
closed = 1;
nodes = (
(431,35,ls),
(426,5,o),
(408,-10,o),
(378,-10,cs),
(348,-10,o),
(336,5,o),
(341,35,cs),
(348,72,l),
(311,15,o),
(238,-10,o),
(180,-10,cs),
(79,-10,o),
(27,66,o),
(47,180,cs),
(106,515,ls),
(111,545,o),
(129,560,o),
(159,560,cs),
(189,560,o),
(201,545,o),
(196,515,cs),
(141,206,ls),
(129,137,o),
(153,80,o),
(216,80,cs),
(292,80,o),
(361,146,o),
(374,220,cs),
(426,515,ls),
(431,545,o),
(449,560,o),
(479,560,cs),
(509,560,o),
(521,545,o),
(516,515,cs)
);
}
);
width = 600;
},
{
layerId = "65670A5D-CCC8-4389-B3B7-F9F0C6F62714";
shapes = (
{
closed = 1;
nodes = (
(408,15,ls),
(405,-2,o),
(395,-10,o),
(378,-10,cs),
(361,-10,o),
(355,-2,o),
(358,15,cs),
(367,67,l),
(329,17,o),
(262,-10,o),
(188,-10,cs),
(95,-10,o),
(48,74,o),
(67,183,cs),
(129,535,ls),
(132,552,o),
(142,560,o),
(159,560,cs),
(176,560,o),
(182,552,o),
(179,535,cs),
(119,195,ls),
(105,112,o),
(133,40,o),
(209,40,cs),
(296,40,o),
(376,118,o),
(391,205,cs),
(449,535,ls),
(452,552,o),
(462,560,o),
(479,560,cs),
(496,560,o),
(502,552,o),
(499,535,cs)
);
}
);
width = 600;
}
);
unicode = 117;
},
{
color = (153, 254, 255, 255);
glyphname = v;
layers = (
{
layerId = "2C4CF9A7-491C-47AB-B6C9-58D3194EBCE0";
shapes = (
{
closed = 1;
nodes = (
(61,482,ls),
(52,532,o),
(101,560,o),
(135,560,cs),
(171,560,o),
(192,540,o),
(198,508,cs),
(244,243,ls),
(248,220,o),
(267,222,o),
(282,243,cs),
(338,320,o),
(386,411,o),
(422,508,cs),
(434,542,o),
(467,560,o),
(503,560,cs),
(537,560,o),
(572,535,o),
(549,482,cs),
(485,333,o),
(409,191,o),
(325,62,cs),
(296,17,o),
(268,-10,o),
(218,-10,cs),
(168,-10,o),
(146,15,o),
(137,62,cs)
);
}
);
width = 600;
},
{
layerId = "4F1D95E0-B484-471A-8565-C56541B9E33E";
shapes = (
{
closed = 1;
nodes = (
(84,508,ls),
(79,534,o),
(102,560,o),
(133,560,cs),
(157,560,o),
(173,548,o),
(177,525,cs),
(238,185,ls),
(241,165,o),
(255,166,o),
(268,185,cs),
(338,287,o),
(399,403,o),
(449,525,cs),
(459,549,o),
(481,560,o),
(505,560,cs),
(536,560,o),
(547,534,o),
(536,508,cs),
(465,343,o),
(381,183,o),
(290,38,cs),
(271,8,o),
(252,-10,o),
(218,-10,cs),
(185,-10,o),
(169,6,o),
(164,38,cs)
);
}
);
width = 600;
},
{
layerId = "65670A5D-CCC8-4389-B3B7-F9F0C6F62714";
shapes = (
{
closed = 1;
nodes = (
(102,531,ls),
(99,547,o),
(119,560,o),
(129,560,cs),
(142,560,o),
(154,554,o),
(155,541,cs),
(228,100,ls),
(231,83,o),
(238,83,o),
(248,100,cs),
(333,236,o),
(410,385,o),
(475,541,cs),
(481,554,o),
(496,560,o),
(509,560,cs),
(519,560,o),
(533,547,o),
(526,531,cs),
(449,352,o),
(358,178,o),
(261,19,cs),
(250,0,o),
(238,-10,o),
(218,-10,cs),
(198,-10,o),
(189,0,o),
(185,19,cs)
);
}
);
width = 600;
}
);
unicode = 118;
},
{
color = (153, 254, 255, 255);
glyphname = w;
layers = (
{
anchors = (
{
name = bottom;
position = "{220, 0}";
},
{
name = top;
position = "{318, 550}";
}
);
layerId = "2C4CF9A7-491C-47AB-B6C9-58D3194EBCE0";
shapes = (
{
closed = 1;
nodes = (
(35,0,o),
(9,27,o),
(10,80,cs),
(20,481,ls),
(22,527,o),
(45,550,o),
(92,550,cs),
(129,550,o),
(147,532,o),
(146,495,cs),
(136,215,ls),
(135,198,o),
(139,199,o),
(145,215,cs),
(210,385,ls),
(226,428,o),
(256,450,o),
(300,450,cs),
(344,450,o),
(366,428,o),
(368,385,cs),
(371,215,ls),
(371,199,o),
(372,199,o),
(380,215,cs),
(430,307,o),
(460,403,o),
(470,495,cs),
(473,534,o),
(507,550,o),
(544,550,cs),
(591,550,o),
(599,529,o),
(590,481,cs),
(566,348,o),
(522,212,o),
(457,79,cs),
(433,29,o),
(405,0,o),
(351,0,cs),
(297,0,o),
(271,26,o),
(269,78,cs),
(264,221,ls),
(264,237,o),
(260,237,o),
(254,221,cs),
(199,79,ls),
(179,26,o),
(143,0,o),
(89,0,cs)
);
}
);
width = 600;
},
{
anchors = (
{
name = bottom;
position = "{220, 0}";
},
{
name = top;
position = "{318, 550}";
}
);
layerId = "4F1D95E0-B484-471A-8565-C56541B9E33E";
shapes = (
{
closed = 1;
nodes = (
(59,0,o),
(40,19,o),
(41,57,cs),
(47,501,ls),
(48,534,o),
(64,550,o),
(98,550,cs),
(125,550,o),
(137,537,o),
(137,510,cs),
(122,140,ls),
(122,127,o),
(124,127,o),
(129,140,cs),
(228,391,ls),
(241,424,o),
(264,440,o),
(298,440,cs),
(332,440,o),
(349,424,o),
(350,391,cs),
(361,140,ls),
(362,127,o),
(362,127,o),
(368,140,cs),
(427,262,o),
(466,388,o),
(485,510,cs),
(488,537,o),
(511,550,o),
(538,550,cs),
(572,550,o),
(578,534,o),
(571,501,cs),
(541,354,o),
(489,204,o),
(419,57,cs),
(402,21,o),
(382,0,o),
(343,0,cs),
(304,0,o),
(284,18,o),
(283,56,cs),
(276,290,ls),
(275,303,o),
(273,303,o),
(268,290,cs),
(177,56,ls),
(162,18,o),
(137,0,o),
(98,0,cs)
);
}
);
width = 600;
},
{
anchors = (
{
name = bottom;
position = "{220, 0}";
},
{
name = top;
position = "{435, 550}";
}
);
layerId = "65670A5D-CCC8-4389-B3B7-F9F0C6F62714";
shapes = (
{
closed = 1;
nodes = (
(75,0,o),
(63,11,o),
(63,35,cs),
(67,520,ls),
(68,540,o),
(79,550,o),
(99,550,cs),
(115,550,o),
(122,542,o),
(122,526,cs),
(113,85,ls),
(113,75,o),
(115,75,o),
(119,85,cs),
(254,401,ls),
(263,420,o),
(276,430,o),
(296,430,cs),
(316,430,o),
(327,420,o),
(328,401,cs),
(351,85,ls),
(351,75,o),
(352,75,o),
(357,85,cs),
(426,231,o),
(476,380,o),
(504,526,cs),
(507,542,o),
(521,550,o),
(537,550,cs),
(557,550,o),
(562,540,o),
(557,520,cs),
(522,360,o),
(464,195,o),
(388,35,cs),
(377,12,o),
(365,0,o),
(341,0,cs),
(317,0,o),
(304,11,o),
(302,34,cs),
(282,325,ls),
(282,335,o),
(278,335,o),
(274,325,cs),
(150,35,ls),
(140,12,o),
(123,0,o),
(99,0,cs)
);
}
);
width = 600;
}
);
unicode = 119;
},
{
color = (153, 254, 255, 255);
glyphname = x;
layers = (
{
layerId = "2C4CF9A7-491C-47AB-B6C9-58D3194EBCE0";
shapes = (
{
closed = 1;
nodes = (
(157,36,ls),
(131,6,o),
(101,-10,o),
(65,-10,cs),
(20,-10,o),
(-22,22,o),
(31,84,cs),
(397,512,ls),
(423,543,o),
(452,560,o),
(489,560,cs),
(534,560,o),
(577,528,o),
(524,466,cs)
);
},
{
closed = 1;
nodes = (
(118,394,o),
(94,391,o),
(79,398,cs),
(50,411,o),
(31,449,o),
(55,481,cs),
(92,532,o),
(145,560,o),
(203,560,cs),
(265,560,o),
(317,538,o),
(330,467,cs),
(386,160,ls),
(390,138,o),
(401,120,o),
(422,120,cs),
(438,120,o),
(450,125,o),
(463,140,cs),
(472,150,o),
(489,158,o),
(505,149,cs),
(535,132,o),
(544,94,o),
(524,65,cs),
(495,23,o),
(455,-10,o),
(397,-10,cs),
(327,-10,o),
(286,24,o),
(273,93,cs),
(217,400,ls),
(214,417,o),
(203,428,o),
(181,428,cs),
(161,428,o),
(151,424,o),
(129,404,cs)
);
}
);
width = 600;
},
{
layerId = "4F1D95E0-B484-471A-8565-C56541B9E33E";
shapes = (
{
closed = 1;
nodes = (
(108,20,ls),
(92,1,o),
(73,-10,o),
(49,-10,cs),
(22,-10,o),
(-5,11,o),
(27,49,cs),
(437,530,ls),
(454,550,o),
(473,560,o),
(497,560,cs),
(525,560,o),
(553,540,o),
(519,500,cs)
);
},
{
closed = 1;
nodes = (
(141,412,o),
(127,407,o),
(101,413,cs),
(84,417,o),
(69,432,o),
(75,455,cs),
(93,524,o),
(147,560,o),
(203,560,cs),
(264,560,o),
(301,527,o),
(311,457,cs),
(359,115,ls),
(363,90,o),
(377,80,o),
(395,80,cs),
(411,80,o),
(425,90,o),
(438,105,cs),
(456,125,o),
(472,128,o),
(490,117,cs),
(510,105,o),
(515,88,o),
(508,72,cs),
(485,20,o),
(439,-10,o),
(387,-10,cs),
(325,-10,o),
(288,22,o),
(278,93,cs),
(230,435,ls),
(226,462,o),
(210,474,o),
(192,474,cs),
(176,474,o),
(169,463,o),
(157,441,cs)
);
}
);
width = 600;
},
{
layerId = "65670A5D-CCC8-4389-B3B7-F9F0C6F62714";
shapes = (
{
closed = 1;
nodes = (
(80,5,ls),
(71,-5,o),
(55,-10,o),
(42,-10,cs),
(26,-10,o),
(6,0,o),
(25,22,cs),
(464,543,ls),
(474,554,o),
(490,560,o),
(503,560,cs),
(520,560,o),
(540,550,o),
(521,528,cs)
);
},
{
closed = 1;
nodes = (
(129,457,o),
(118,454,o),
(106,458,cs),
(95,462,o),
(91,475,o),
(95,484,cs),
(113,530,o),
(160,558,o),
(203,560,cs),
(257,562,o),
(288,537,o),
(295,477,cs),
(345,75,ls),
(350,50,o),
(367,40,o),
(387,40,cs),
(412,40,o),
(442,58,o),
(453,81,cs),
(460,93,o),
(471,96,o),
(483,92,cs),
(494,88,o),
(497,75,o),
(494,66,cs),
(475,20,o),
(429,-8,o),
(385,-10,cs),
(331,-12,o),
(301,13,o),
(293,73,cs),
(243,475,ls),
(242,499,o),
(225,510,o),
(205,510,cs),
(180,510,o),
(149,494,o),
(136,469,cs)
);
}
);
width = 600;
}
);
unicode = 120;
},
{
color = (153, 254, 255, 255);
glyphname = y;
layers = (
{
layerId = "2C4CF9A7-491C-47AB-B6C9-58D3194EBCE0";
shapes = (
{
closed = 1;
nodes = (
(477,63,ls),
(444,-119,o),
(351,-270,o),
(148,-270,cs),
(69,-270,o),
(3,-241,o),
(-39,-181,cs),
(-49,-167,o),
(-53,-148,o),
(-50,-130,cs),
(-44,-93,o),
(-2,-53,o),
(40,-53,cs),
(53,-53,o),
(66,-57,o),
(75,-67,cs),
(102,-98,o),
(139,-135,o),
(189,-135,cs),
(274,-135,o),
(318,-4,o),
(332,63,cs),
(339,97,l),
(330,81,o),
(284,20,o),
(179,20,cs),
(60,20,o),
(-6,101,o),
(16,225,cs),
(62,485,ls),
(71,535,o),
(100,560,o),
(150,560,cs),
(200,560,o),
(221,535,o),
(212,485,cs),
(171,250,ls),
(163,204,o),
(181,155,o),
(236,155,cs),
(295,155,o),
(355,211,o),
(365,270,cs),
(402,485,ls),
(411,535,o),
(440,560,o),
(490,560,cs),
(540,560,o),
(561,535,o),
(552,485,cs)
);
}
);
width = 600;
},
{
layerId = "4F1D95E0-B484-471A-8565-C56541B9E33E";
shapes = (
{
closed = 1;
nodes = (
(424,-33,ls),
(403,-152,o),
(290,-240,o),
(179,-240,cs),
(76,-240,o),
(29,-198,o),
(0,-152,cs),
(-8,-140,o),
(-11,-132,o),
(-10,-120,cs),
(-6,-98,o),
(17,-64,o),
(47,-64,cs),
(62,-64,o),
(70,-71,o),
(77,-80,cs),
(97,-106,o),
(142,-150,o),
(192,-150,cs),
(246,-150,o),
(321,-111,o),
(332,-47,cs),
(362,122,l),
(325,65,o),
(263,40,o),
(200,40,cs),
(86,40,o),
(34,115,o),
(54,230,cs),
(103,515,ls),
(108,545,o),
(126,560,o),
(156,560,cs),
(186,560,o),
(198,545,o),
(193,515,cs),
(149,256,ls),
(137,187,o),
(160,130,o),
(236,130,cs),
(317,130,o),
(376,195,o),
(389,270,cs),
(431,515,ls),
(436,545,o),
(454,560,o),
(484,560,cs),
(514,560,o),
(527,545,o),
(521,515,cs)
);
}
);
width = 600;
},
{
layerId = "65670A5D-CCC8-4389-B3B7-F9F0C6F62714";
shapes = (
{
closed = 1;
nodes = (
(400,-64,ls),
(382,-167,o),
(274,-220,o),
(188,-220,cs),
(92,-220,o),
(49,-189,o),
(19,-153,cs),
(12,-144,o),
(10,-137,o),
(12,-124,cs),
(15,-107,o),
(26,-95,o),
(41,-95,cs),
(53,-95,o),
(59,-101,o),
(64,-108,cs),
(76,-123,o),
(128,-170,o),
(190,-170,cs),
(248,-170,o),
(338,-135,o),
(350,-68,cs),
(387,137,l),
(349,87,o),
(286,60,o),
(211,60,cs),
(103,60,o),
(57,143,o),
(76,253,cs),
(125,535,ls),
(128,552,o),
(137,560,o),
(154,560,cs),
(171,560,o),
(178,552,o),
(175,535,cs),
(127,265,ls),
(112,182,o),
(142,110,o),
(233,110,cs),
(327,110,o),
(397,187,o),
(412,275,cs),
(457,535,ls),
(460,552,o),
(469,560,o),
(486,560,cs),
(503,560,o),
(510,552,o),
(507,535,cs)
);
}
);
width = 600;
}
);
unicode = 121;
},
{
color = (153, 254, 255, 255);
glyphname = z;
layers = (
{
layerId = "2C4CF9A7-491C-47AB-B6C9-58D3194EBCE0";
shapes = (
{
closed = 1;
nodes = (
(77,0,ls),
(19,0,o),
(-5,29,o),
(5,84,cs),
(11,116,o),
(25,141,o),
(48,162,cs),
(288,376,ls),
(300,388,o),
(308,397,o),
(310,404,cs),
(312,414,o),
(300,420,o),
(276,420,cs),
(139,420,ls),
(95,420,o),
(79,441,o),
(86,485,cs),
(94,529,o),
(119,550,o),
(163,550,cs),
(450,550,ls),
(508,550,o),
(532,521,o),
(522,466,cs),
(516,434,o),
(502,409,o),
(477,388,cs),
(239,174,ls),
(225,162,o),
(219,153,o),
(217,146,cs),
(215,136,o),
(226,130,o),
(250,130,cs),
(408,130,ls),
(452,130,o),
(469,109,o),
(462,65,cs),
(453,21,o),
(429,0,o),
(385,0,cs)
);
}
);
width = 600;
},
{
layerId = "4F1D95E0-B484-471A-8565-C56541B9E33E";
shapes = (
{
closed = 1;
nodes = (
(70,0,ls),
(30,0,o),
(13,20,o),
(21,59,cs),
(24,80,o),
(34,97,o),
(49,113,cs),
(371,437,ls),
(379,445,o),
(383,451,o),
(384,456,cs),
(386,464,o),
(378,468,o),
(361,468,cs),
(142,468,ls),
(115,468,o),
(103,482,o),
(108,509,cs),
(113,536,o),
(130,550,o),
(157,550,cs),
(457,550,ls),
(497,550,o),
(513,530,o),
(506,491,cs),
(503,470,o),
(493,452,o),
(478,437,cs),
(151,113,ls),
(142,105,o),
(139,98,o),
(138,93,cs),
(136,86,o),
(143,82,o),
(159,82,cs),
(403,82,ls),
(430,82,o),
(442,68,o),
(438,41,cs),
(433,14,o),
(416,0,o),
(389,0,cs)
);
}
);
width = 600;
},
{
layerId = "65670A5D-CCC8-4389-B3B7-F9F0C6F62714";
shapes = (
{
closed = 1;
nodes = (
(54,0,ls),
(33,0,o),
(25,10,o),
(29,31,cs),
(31,41,o),
(35,51,o),
(43,59,cs),
(415,480,ls),
(420,485,o),
(423,490,o),
(424,494,cs),
(426,501,o),
(418,505,o),
(406,505,cs),
(144,505,ls),
(129,505,o),
(123,513,o),
(126,528,cs),
(128,543,o),
(137,550,o),
(152,550,cs),
(471,550,ls),
(492,550,o),
(500,540,o),
(496,519,cs),
(494,509,o),
(490,499,o),
(482,490,cs),
(109,69,ls),
(103,63,o),
(101,59,o),
(100,55,cs),
(98,48,o),
(105,45,o),
(117,45,cs),
(402,45,ls),
(417,45,o),
(424,38,o),
(421,23,cs),
(419,8,o),
(409,0,o),
(394,0,cs)
);
}
);
width = 600;
}
);
unicode = 122;
},
{
color = (153, 254, 255, 255);
glyphname = ordfeminine;
layers = (
{
layerId = "2C4CF9A7-491C-47AB-B6C9-58D3194EBCE0";
shapes = (
{
closed = 1;
nodes = (
(361,473,o),
(310,452,o),
(275,452,cs),
(184,452,o),
(186,526,o),
(195,576,cs),
(206,639,o),
(258,742,o),
(367,742,cs),
(391,742,o),
(405,740,o),
(418,724,c),
(429,740,o),
(441,742,o),
(454,742,cs),
(478,742,o),
(483,726,o),
(480,713,cs),
(477,695,o),
(472,684,o),
(469,673,cs),
(452,619,o),
(438,552,o),
(450,500,cs),
(451,493,o),
(451,484,o),
(450,476,cs),
(448,462,o),
(432,452,o),
(413,452,cs),
(395,452,o),
(386,458,o),
(383,467,cs),
(380,473,o),
(380,495,o),
(380,509,c)
);
},
{
closed = 1;
nodes = (
(323,527,o),
(339,543,o),
(352,566,cs),
(364,588,o),
(372,613,o),
(374,628,cs),
(378,648,o),
(377,668,o),
(351,668,cs),
(314,668,o),
(286,610,o),
(281,581,cs),
(277,562,o),
(273,527,o),
(299,527,cs)
);
}
);
width = 600;
},
{
layerId = "4F1D95E0-B484-471A-8565-C56541B9E33E";
shapes = (
{
closed = 1;
nodes = (
(367,470,o),
(326,446,o),
(276,446,cs),
(197,446,o),
(194,517,o),
(204,570,cs),
(216,637,o),
(278,745,o),
(372,745,cs),
(388,745,o),
(408,739,o),
(421,728,c),
(427,742,o),
(440,745,o),
(454,745,cs),
(474,745,o),
(482,732,o),
(479,715,cs),
(476,696,o),
(472,688,o),
(468,679,cs),
(455,633,o),
(431,535,o),
(446,496,cs),
(449,489,o),
(449,481,o),
(448,473,cs),
(444,453,o),
(427,446,o),
(411,446,cs),
(394,446,o),
(389,452,o),
(386,465,cs),
(383,476,o),
(383,496,o),
(382,504,c)
);
},
{
closed = 1;
nodes = (
(325,510,o),
(358,538,o),
(372,567,cs),
(383,586,o),
(390,607,o),
(393,628,cs),
(399,660,o),
(389,681,o),
(357,681,cs),
(315,681,o),
(276,616,o),
(269,574,cs),
(264,548,o),
(260,510,o),
(295,510,cs)
);
}
);
width = 600;
},
{
layerId = "65670A5D-CCC8-4389-B3B7-F9F0C6F62714";
shapes = (
{
closed = 1;
nodes = (
(364,474,o),
(307,446,o),
(273,446,cs),
(197,446,o),
(201,518,o),
(210,568,cs),
(223,640,o),
(278,746,o),
(373,746,cs),
(389,746,o),
(411,742,o),
(423,728,c),
(427,736,o),
(435,746,o),
(450,746,cs),
(464,746,o),
(470,734,o),
(468,722,cs),
(466,712,o),
(462,702,o),
(459,694,cs),
(441,642,o),
(411,535,o),
(429,487,cs),
(432,480,o),
(434,476,o),
(433,468,cs),
(430,454,o),
(421,446,o),
(407,446,cs),
(395,446,o),
(389,454,o),
(386,462,cs),
(383,472,o),
(380,495,o),
(379,508,c)
);
},
{
closed = 1;
nodes = (
(320,491,o),
(365,540,o),
(381,574,cs),
(388,592,o),
(394,610,o),
(397,629,cs),
(405,669,o),
(400,701,o),
(361,701,cs),
(310,701,o),
(263,619,o),
(255,569,cs),
(249,536,o),
(243,491,o),
(288,491,cs)
);
}
);
width = 600;
}
);
unicode = 170;
},
{
color = (153, 254, 255, 255);
glyphname = ordmasculine;
layers = (
{
layerId = "2C4CF9A7-491C-47AB-B6C9-58D3194EBCE0";
shapes = (
{
closed = 1;
nodes = (
(342,490,o),
(360,535,o),
(368,580,cs),
(376,625,o),
(374,670,o),
(339,670,cs),
(305,670,o),
(286,625,o),
(278,580,cs),
(270,535,o),
(272,490,o),
(307,490,cs)
);
},
{
closed = 1;
nodes = (
(200,420,o),
(180,500,o),
(194,580,cs),
(208,659,o),
(257,740,o),
(351,740,cs),
(447,740,o),
(468,660,o),
(454,580,cs),
(440,500,o),
(389,420,o),
(294,420,cs)
);
}
);
width = 600;
},
{
layerId = "4F1D95E0-B484-471A-8565-C56541B9E33E";
shapes = (
{
closed = 1;
nodes = (
(354,506,o),
(374,550,o),
(380,590,cs),
(388,630,o),
(385,675,o),
(340,675,cs),
(299,675,o),
(277,630,o),
(269,590,cs),
(263,550,o),
(269,506,o),
(310,506,cs)
);
},
{
closed = 1;
nodes = (
(208,440,o),
(193,520,o),
(205,590,cs),
(218,660,o),
(261,740,o),
(352,740,cs),
(448,740,o),
(458,660,o),
(445,590,cs),
(433,520,o),
(394,440,o),
(299,440,cs)
);
}
);
width = 600;
},
{
layerId = "65670A5D-CCC8-4389-B3B7-F9F0C6F62714";
shapes = (
{
closed = 1;
nodes = (
(359,500,o),
(382,550,o),
(391,600,cs),
(400,652,o),
(394,700,o),
(345,700,cs),
(294,700,o),
(270,650,o),
(261,600,cs),
(253,550,o),
(259,500,o),
(309,500,cs)
);
},
{
closed = 1;
nodes = (
(217,460,o),
(205,536,o),
(217,600,cs),
(229,665,o),
(266,740,o),
(351,740,cs),
(436,740,o),
(449,667,o),
(437,600,cs),
(425,535,o),
(387,460,o),
(302,460,cs)
);
}
);
width = 600;
}
);
unicode = 186;
},
{
color = (153, 254, 255, 255);
glyphname = "Be-cy";
layers = (
{
layerId = "2C4CF9A7-491C-47AB-B6C9-58D3194EBCE0";
shapes = (
{
closed = 1;
nodes = (
(86,0,ls),
(19,0,o),
(-8,33,o),
(4,100,cs),
(98,630,ls),
(110,697,o),
(149,730,o),
(216,730,cs),
(510,730,ls),
(555,730,o),
(573,708,o),
(566,663,cs),
(557,618,o),
(530,595,o),
(485,595,cs),
(286,595,ls),
(252,595,o),
(234,578,o),
(228,545,cs),
(215,476,ls),
(213,459,o),
(219,451,o),
(236,451,cs),
(309,451,ls),
(385,451,o),
(487,396,o),
(533,296,o),
(520,228,qs),
(508,162,o),
(428,59,o),
(305,0,o),
(230,0,qs)
);
},
{
closed = 1;
nodes = (
(163,180,ls),
(157,147,o),
(171,130,o),
(204,130,cs),
(253,130,ls),
(299,130,o),
(363,184,o),
(370,228,qs),
(378,273,o),
(334,326,o),
(288,326,qs),
(214,326,ls),
(197,326,o),
(188,318,o),
(184,301,cs)
);
}
);
width = 600;
},
{
layerId = "4F1D95E0-B484-471A-8565-C56541B9E33E";
shapes = (
{
closed = 1;
nodes = (
(94,0,ls),
(40,0,o),
(19,26,o),
(28,80,cs),
(129,650,ls),
(139,704,o),
(170,730,o),
(224,730,cs),
(509,730,ls),
(536,730,o),
(547,716,o),
(542,689,cs),
(538,662,o),
(521,648,o),
(494,648,cs),
(259,648,ls),
(232,648,o),
(217,635,o),
(212,608,cs),
(184,452,ls),
(182,439,o),
(188,432,o),
(201,432,cs),
(302,432,ls),
(372,432,o),
(462,378,o),
(500,281,o),
(488,216,qs),
(477,151,o),
(404,54,o),
(295,0,o),
(225,0,qs)
);
},
{
closed = 1;
nodes = (
(126,122,ls),
(121,95,o),
(131,82,o),
(158,82,cs),
(239,82,ls),
(301,82,o),
(385,155,o),
(395,216,qs),
(406,278,o),
(349,350,o),
(287,350,qs),
(186,350,ls),
(173,350,o),
(165,343,o),
(162,330,cs)
);
}
);
width = 600;
},
{
layerId = "65670A5D-CCC8-4389-B3B7-F9F0C6F62714";
shapes = (
{
closed = 1;
nodes = (
(90,0,ls),
(50,0,o),
(33,20,o),
(41,60,cs),
(149,670,ls),
(156,710,o),
(180,730,o),
(220,730,cs),
(513,730,ls),
(528,730,o),
(535,723,o),
(531,708,cs),
(529,693,o),
(520,685,o),
(505,685,cs),
(232,685,ls),
(212,685,o),
(199,675,o),
(196,655,cs),
(157,435,ls),
(155,425,o),
(159,420,o),
(169,420,cs),
(300,420,ls),
(363,420,o),
(448,367,o),
(484,273,o),
(474,210,qs),
(462,148,o),
(392,53,o),
(289,0,o),
(226,0,qs)
);
},
{
closed = 1;
nodes = (
(93,75,ls),
(90,55,o),
(98,45,o),
(118,45,cs),
(234,45,ls),
(305,45,o),
(410,137,o),
(424,210,qs),
(436,284,o),
(364,375,o),
(293,375,qs),
(162,375,ls),
(152,375,o),
(146,370,o),
(144,360,cs)
);
}
);
width = 600;
}
);
unicode = 1041;
},
{
color = (153, 254, 255, 255);
glyphname = "Ge-cy";
layers = (
{
layerId = "2C4CF9A7-491C-47AB-B6C9-58D3194EBCE0";
shapes = (
{
closed = 1;
nodes = (
(58,-10,o),
(37,15,o),
(47,65,cs),
(147,630,ls),
(159,697,o),
(198,730,o),
(265,730,cs),
(542,730,ls),
(587,730,o),
(606,708,o),
(598,663,cs),
(589,618,o),
(563,595,o),
(518,595,cs),
(340,595,ls),
(307,595,o),
(288,579,o),
(282,545,cs),
(197,65,ls),
(187,15,o),
(158,-10,o),
(108,-10,cs)
);
}
);
width = 600;
},
{
anchors = (
{
name = m.uni0308;
position = "{370, 730}";
}
);
layerId = "4F1D95E0-B484-471A-8565-C56541B9E33E";
shapes = (
{
closed = 1;
nodes = (
(63,-10,o),
(51,5,o),
(56,35,cs),
(165,650,ls),
(175,704,o),
(206,730,o),
(260,730,cs),
(564,730,ls),
(591,730,o),
(602,716,o),
(597,689,cs),
(593,662,o),
(576,648,o),
(549,648,cs),
(295,648,ls),
(268,648,o),
(253,635,o),
(248,608,cs),
(146,35,ls),
(141,5,o),
(123,-10,o),
(93,-10,cs)
);
}
);
width = 600;
},
{
layerId = "65670A5D-CCC8-4389-B3B7-F9F0C6F62714";
shapes = (
{
closed = 1;
nodes = (
(66,-10,o),
(60,-2,o),
(62,15,cs),
(179,670,ls),
(186,710,o),
(210,730,o),
(250,730,cs),
(572,730,ls),
(587,730,o),
(594,723,o),
(591,708,cs),
(588,693,o),
(579,685,o),
(564,685,cs),
(262,685,ls),
(242,685,o),
(230,675,o),
(226,655,cs),
(112,15,ls),
(110,-2,o),
(100,-10,o),
(83,-10,cs)
);
}
);
width = 600;
}
);
unicode = 1043;
},
{
color = (153, 254, 255, 255);
glyphname = "Gheupturn-cy";
layers = (
{
layerId = "2C4CF9A7-491C-47AB-B6C9-58D3194EBCE0";
shapes = (
{
closed = 1;
nodes = (
(58,-10,o),
(37,15,o),
(47,65,cs),
(147,630,ls),
(159,697,o),
(198,730,o),
(265,730,cs),
(438,730,ls),
(456,730,o),
(466,739,o),
(470,757,cs),
(470,758,ls),
(478,803,o),
(503,825,o),
(548,825,cs),
(601,825,o),
(622,800,o),
(613,747,cs),
(603,690,ls),
(590,623,o),
(551,590,o),
(484,590,cs),
(339,590,ls),
(306,590,o),
(287,574,o),
(281,540,cs),
(197,65,ls),
(187,15,o),
(158,-10,o),
(108,-10,cs)
);
}
);
width = 600;
},
{
layerId = "4F1D95E0-B484-471A-8565-C56541B9E33E";
shapes = (
{
closed = 1;
nodes = (
(63,-10,o),
(51,5,o),
(56,35,cs),
(165,650,ls),
(175,704,o),
(206,730,o),
(260,730,cs),
(488,730,ls),
(509,730,o),
(522,741,o),
(525,762,cs),
(530,787,ls),
(535,812,o),
(549,825,o),
(574,825,cs),
(606,825,o),
(619,810,o),
(613,778,cs),
(605,728,ls),
(594,674,o),
(564,648,o),
(510,648,cs),
(295,648,ls),
(268,648,o),
(253,635,o),
(248,608,cs),
(146,35,ls),
(141,5,o),
(123,-10,o),
(93,-10,cs)
);
}
);
width = 600;
},
{
layerId = "65670A5D-CCC8-4389-B3B7-F9F0C6F62714";
shapes = (
{
closed = 1;
nodes = (
(66,-10,o),
(60,-2,o),
(62,15,cs),
(179,670,ls),
(186,710,o),
(210,730,o),
(250,730,cs),
(515,730,ls),
(535,730,o),
(546,740,o),
(550,760,cs),
(557,800,ls),
(560,817,o),
(569,825,o),
(586,825,cs),
(603,825,o),
(610,817,o),
(607,800,cs),
(597,745,ls),
(590,705,o),
(567,685,o),
(527,685,cs),
(262,685,ls),
(242,685,o),
(229,675,o),
(226,655,cs),
(112,15,ls),
(110,-2,o),
(100,-10,o),
(83,-10,cs)
);
}
);
width = 600;
}
);
unicode = 1168;
},
{
color = (153, 254, 255, 255);
glyphname = "De-cy";
layers = (
{
layerId = "2C4CF9A7-491C-47AB-B6C9-58D3194EBCE0";
shapes = (
{
closed = 1;
nodes = (
(-41,96,ls),
(-38,115,o),
(-25,125,o),
(-6,125,cs),
(-1,125,o),
(3,127,o),
(5,131,cs),
(18,148,o),
(33,175,qs),
(52,207,o),
(79,292,o),
(87,340,qs),
(143,630,ls),
(156,697,o),
(196,730,o),
(263,730,cs),
(468,730,ls),
(535,730,o),
(562,697,o),
(550,630,cs),
(462,137,ls),
(460,129,o),
(465,125,o),
(473,125,cs),
(505,125,o),
(517,109,o),
(511,77,cs),
(485,-70,ls),
(477,-117,o),
(450,-140,o),
(403,-140,cs),
(356,-140,o),
(337,-117,o),
(345,-70,cs),
(349,-50,ls),
(355,-17,o),
(342,0,o),
(308,0,cs),
(132,0,ls),
(98,0,o),
(79,-17,o),
(73,-50,cs),
(69,-70,ls),
(61,-117,o),
(34,-140,o),
(-13,-140,cs),
(-60,-140,o),
(-79,-117,o),
(-71,-70,cs)
);
},
{
closed = 1;
nodes = (
(152,132,o),
(157,125,o),
(173,125,cs),
(296,125,ls),
(313,125,o),
(321,133,o),
(325,150,cs),
(397,555,ls),
(402,589,o),
(390,605,o),
(356,605,cs),
(329,605,ls),
(295,605,o),
(275,588,o),
(269,555,cs),
(227,341,ls),
(220,295,o),
(195,210,o),
(178,177,qs),
(169,161,o),
(161,148,qs)
);
}
);
width = 600;
},
{
layerId = "4F1D95E0-B484-471A-8565-C56541B9E33E";
shapes = (
{
closed = 1;
nodes = (
(-47,41,ls),
(-43,65,o),
(-30,77,o),
(-6,77,cs),
(0,77,o),
(5,80,o),
(9,85,cs),
(21,103,o),
(36,131,qs),
(54,165,o),
(87,251,o),
(97,298,qs),
(165,650,ls),
(176,704,o),
(207,730,o),
(261,730,cs),
(475,730,ls),
(529,730,o),
(550,704,o),
(540,650,cs),
(441,91,ls),
(439,82,o),
(443,77,o),
(452,77,cs),
(490,77,o),
(506,59,o),
(498,21,cs),
(477,-100,ls),
(472,-127,o),
(457,-140,o),
(430,-140,cs),
(403,-140,o),
(392,-127,o),
(397,-100,cs),
(407,-40,ls),
(412,-13,o),
(402,0,o),
(375,0,cs),
(65,0,ls),
(38,0,o),
(22,-13,o),
(17,-40,cs),
(7,-100,ls),
(2,-127,o),
(-13,-140,o),
(-40,-140,cs),
(-67,-140,o),
(-78,-127,o),
(-73,-100,cs)
);
},
{
closed = 1;
nodes = (
(103,83,o),
(104,77,o),
(117,77,cs),
(328,77,ls),
(341,77,o),
(350,84,o),
(353,97,cs),
(444,610,ls),
(448,637,o),
(437,650,o),
(410,650,cs),
(292,650,ls),
(265,650,o),
(249,637,o),
(245,610,cs),
(185,298,ls),
(176,247,o),
(144,160,o),
(128,127,qs),
(118,109,o),
(110,95,qs)
);
}
);
width = 600;
},
{
layerId = "65670A5D-CCC8-4389-B3B7-F9F0C6F62714";
shapes = (
{
closed = 1;
nodes = (
(-29,18,ls),
(-25,36,o),
(-15,45,o),
(3,45,cs),
(8,45,o),
(11,46,o),
(15,50,cs),
(31,67,o),
(50,97,qs),
(71,131,o),
(109,222,o),
(120,276,qs),
(199,670,ls),
(207,710,o),
(231,730,o),
(271,730,cs),
(468,730,ls),
(508,730,o),
(524,710,o),
(517,670,cs),
(409,59,ls),
(406,49,o),
(410,45,o),
(420,45,cs),
(459,45,o),
(475,26,o),
(467,-13,cs),
(449,-118,ls),
(447,-133,o),
(438,-140,o),
(423,-140,cs),
(408,-140,o),
(402,-132,o),
(404,-117,cs),
(420,-30,ls),
(423,-10,o),
(415,0,o),
(395,0,cs),
(43,0,ls),
(23,0,o),
(11,-10,o),
(8,-30,cs),
(-8,-117,ls),
(-10,-132,o),
(-19,-140,o),
(-34,-140,cs),
(-49,-140,o),
(-55,-133,o),
(-53,-118,cs)
);
},
{
closed = 1;
nodes = (
(67,48,o),
(68,45,o),
(78,45,cs),
(341,45,ls),
(351,45,o),
(357,50,o),
(359,60,cs),
(464,655,ls),
(467,675,o),
(460,685,o),
(440,685,cs),
(283,685,ls),
(263,685,o),
(249,675,o),
(246,655,cs),
(170,276,ls),
(159,222,o),
(122,131,o),
(102,97,qs),
(87,73,o),
(74,57,qs)
);
}
);
width = 600;
}
);
unicode = 1044;
},
{
color = (153, 254, 255, 255);
glyphname = "Zhe-cy";
layers = (
{
anchors = (
{
name = bottomright;
position = "{500, 0}";
},
{
name = top;
position = "{350, 730}";
}
);
layerId = "2C4CF9A7-491C-47AB-B6C9-58D3194EBCE0";
shapes = (
{
closed = 1;
nodes = (
(52,29,ls),
(41,3,o),
(21,-10,o),
(-6,-10,cs),
(-60,-10,o),
(-75,16,o),
(-51,68,cs),
(79,353,ls),
(85,369,o),
(89,385,o),
(87,401,cs),
(61,663,ls),
(55,715,o),
(79,740,o),
(133,740,cs),
(160,740,o),
(176,727,o),
(178,701,cs),
(204,450,ls),
(205,438,o),
(212,432,o),
(225,432,cs),
(225,432,ls),
(238,432,o),
(245,438,o),
(247,451,cs),
(289,689,ls),
(296,723,o),
(315,740,o),
(349,740,cs),
(383,740,o),
(398,723,o),
(391,689,cs),
(349,452,ls),
(347,439,o),
(353,432,o),
(366,432,cs),
(366,432,ls),
(379,432,o),
(389,438,o),
(395,451,cs),
(510,702,ls),
(523,727,o),
(541,740,o),
(567,740,cs),
(620,740,o),
(634,715,o),
(610,665,cs),
(488,404,ls),
(479,388,o),
(477,372,o),
(480,356,cs),
(514,67,ls),
(519,16,o),
(497,-10,o),
(443,-10,cs),
(416,-10,o),
(401,2,o),
(398,28,cs),
(366,307,ls),
(365,319,o),
(359,325,o),
(346,325,cs),
(346,325,ls),
(333,325,o),
(326,319,o),
(323,306,cs),
(281,41,ls),
(275,7,o),
(255,-10,o),
(221,-10,cs),
(187,-10,o),
(173,7,o),
(179,41,cs),
(221,305,ls),
(224,318,o),
(218,325,o),
(205,325,cs),
(205,325,ls),
(192,325,o),
(183,319,o),
(176,306,cs)
);
}
);
width = 600;
},
{
anchors = (
{
name = bottomright;
position = "{500, 0}";
},
{
name = top;
position = "{350, 730}";
}
);
layerId = "4F1D95E0-B484-471A-8565-C56541B9E33E";
shapes = (
{
closed = 1;
nodes = (
(31,19,ls),
(22,0,o),
(6,-10,o),
(-15,-10,cs),
(-56,-10,o),
(-65,9,o),
(-46,48,cs),
(117,360,ls),
(123,373,o),
(126,385,o),
(124,398,cs),
(78,681,ls),
(71,721,o),
(88,740,o),
(130,740,cs),
(151,740,o),
(164,730,o),
(166,710,cs),
(206,430,ls),
(208,417,o),
(216,411,o),
(229,411,cs),
(235,411,ls),
(248,411,o),
(256,418,o),
(259,431,cs),
(306,702,ls),
(312,727,o),
(326,740,o),
(351,740,cs),
(376,740,o),
(388,727,o),
(382,702,cs),
(335,431,ls),
(332,418,o),
(338,411,o),
(351,411,cs),
(359,411,ls),
(372,411,o),
(382,417,o),
(388,430,cs),
(526,710,ls),
(536,730,o),
(551,740,o),
(572,740,cs),
(614,740,o),
(625,721,o),
(604,681,cs),
(456,397,ls),
(451,384,o),
(447,372,o),
(449,359,cs),
(501,48,ls),
(508,9,o),
(492,-10,o),
(450,-10,cs),
(429,-10,o),
(418,-1,o),
(414,19,cs),
(368,324,ls),
(366,337,o),
(358,343,o),
(345,343,cs),
(339,343,ls),
(326,343,o),
(317,336,o),
(316,323,cs),
(263,28,ls),
(259,3,o),
(243,-10,o),
(218,-10,cs),
(193,-10,o),
(183,3,o),
(187,28,cs),
(240,323,ls),
(241,336,o),
(236,343,o),
(223,343,cs),
(215,343,ls),
(202,343,o),
(192,337,o),
(186,324,cs)
);
}
);
width = 600;
},
{
anchors = (
{
name = bottomright;
position = "{500, 0}";
},
{
name = top;
position = "{350, 730}";
}
);
layerId = "65670A5D-CCC8-4389-B3B7-F9F0C6F62714";
shapes = (
{
closed = 1;
nodes = (
(-6,6,ls),
(-12,-5,o),
(-20,-10,o),
(-32,-10,cs),
(-55,-10,o),
(-61,0,o),
(-49,22,cs),
(144,370,ls),
(149,379,o),
(150,389,o),
(148,398,cs),
(83,708,ls),
(78,730,o),
(87,740,o),
(110,740,cs),
(122,740,o),
(128,735,o),
(131,724,cs),
(194,415,ls),
(196,406,o),
(202,401,o),
(212,401,cs),
(253,401,ls),
(263,401,o),
(269,406,o),
(270,416,cs),
(325,718,ls),
(327,733,o),
(335,740,o),
(350,740,cs),
(365,740,o),
(371,733,o),
(369,718,cs),
(314,416,ls),
(313,406,o),
(317,401,o),
(327,401,cs),
(368,401,ls),
(378,401,o),
(386,406,o),
(392,415,cs),
(567,724,ls),
(572,735,o),
(581,740,o),
(592,740,cs),
(615,740,o),
(620,729,o),
(608,708,cs),
(432,398,ls),
(426,389,o),
(424,379,o),
(426,370,cs),
(496,23,ls),
(500,1,o),
(492,-10,o),
(468,-10,cs),
(456,-10,o),
(449,-5,o),
(447,6,cs),
(378,344,ls),
(376,353,o),
(370,358,o),
(360,358,cs),
(319,358,ls),
(309,358,o),
(304,353,o),
(302,343,cs),
(244,12,ls),
(240,-3,o),
(232,-10,o),
(217,-10,cs),
(202,-10,o),
(196,-3,o),
(200,12,cs),
(258,343,ls),
(260,353,o),
(255,358,o),
(245,358,cs),
(204,358,ls),
(194,358,o),
(187,353,o),
(182,344,cs)
);
}
);
width = 600;
}
);
unicode = 1046;
},
{
color = (153, 254, 255, 255);
glyphname = "Ze-cy";
layers = (
{
layerId = "2C4CF9A7-491C-47AB-B6C9-58D3194EBCE0";
shapes = (
{
closed = 1;
nodes = (
(153,696,o),
(248,740,o),
(346,740,cs),
(467,740,o),
(576,676,o),
(552,541,cs),
(540,469,o),
(486,399,o),
(410,386,c),
(490,368,o),
(528,291,o),
(513,207,cs),
(487,59,o),
(341,-10,o),
(209,-10,cs),
(109,-10,o),
(21,31,o),
(-7,114,cs),
(-25,168,o),
(16,210,o),
(87,210,cs),
(110,210,o),
(123,198,o),
(140,163,cs),
(154,132,o),
(193,118,o),
(232,118,cs),
(292,118,o),
(351,152,o),
(362,217,cs),
(375,288,o),
(330,316,o),
(275,316,cs),
(247,316,ls),
(205,316,o),
(188,336,o),
(196,378,cs),
(203,420,o),
(228,440,o),
(270,440,cs),
(298,440,ls),
(345,440,o),
(389,465,o),
(400,529,cs),
(410,583,o),
(374,616,o),
(322,616,cs),
(283,616,o),
(250,598,o),
(230,568,cs),
(204,531,o),
(189,520,o),
(162,520,cs),
(91,520,o),
(64,561,o),
(100,616,cs)
);
}
);
width = 600;
},
{
anchors = (
{
name = m.uni0308;
position = "{350, 730}";
},
{
name = m.uni0325_2;
position = "{220, 0}";
}
);
layerId = "4F1D95E0-B484-471A-8565-C56541B9E33E";
shapes = (
{
closed = 1;
nodes = (
(146,685,o),
(240,740,o),
(346,740,cs),
(460,740,o),
(550,674,o),
(529,551,cs),
(515,477,o),
(461,403,o),
(383,384,c),
(469,368,o),
(505,286,o),
(489,199,cs),
(465,61,o),
(335,-10,o),
(209,-10,cs),
(102,-10,o),
(16,43,o),
(6,141,cs),
(2,178,o),
(26,200,o),
(68,200,cs),
(87,200,o),
(94,191,o),
(95,170,cs),
(98,104,o),
(156,70,o),
(225,70,cs),
(307,70,o),
(383,118,o),
(399,205,cs),
(414,292,o),
(354,340,o),
(272,340,cs),
(226,340,ls),
(199,340,o),
(189,353,o),
(194,380,cs),
(199,407,o),
(213,420,o),
(240,420,cs),
(286,420,ls),
(344,420,o),
(420,448,o),
(437,542,cs),
(450,616,o),
(403,660,o),
(332,660,cs),
(264,660,o),
(207,622,o),
(184,560,cs),
(177,539,o),
(165,530,o),
(146,530,cs),
(104,530,o),
(88,553,o),
(103,590,cs)
);
}
);
width = 600;
},
{
layerId = "65670A5D-CCC8-4389-B3B7-F9F0C6F62714";
shapes = (
{
closed = 1;
nodes = (
(137,670,o),
(230,740,o),
(345,740,cs),
(460,740,o),
(535,665,o),
(514,547,cs),
(501,471,o),
(443,397,o),
(364,381,c),
(447,360,o),
(487,282,o),
(471,194,cs),
(448,63,o),
(331,-10,o),
(208,-10,cs),
(94,-10,o),
(10,52,o),
(14,163,cs),
(15,184,o),
(28,196,o),
(51,196,cs),
(62,196,o),
(66,190,o),
(66,179,cs),
(57,86,o),
(124,35,o),
(216,35,cs),
(313,35,o),
(404,93,o),
(422,196,cs),
(441,299,o),
(371,356,o),
(274,356,cs),
(232,356,ls),
(217,356,o),
(209,364,o),
(213,379,cs),
(215,394,o),
(223,401,o),
(238,401,cs),
(285,401,ls),
(374,401,o),
(448,458,o),
(465,549,cs),
(481,639,o),
(426,696,o),
(338,696,cs),
(246,696,o),
(173,635,o),
(150,547,cs),
(147,536,o),
(140,530,o),
(129,530,cs),
(106,530,o),
(97,541,o),
(104,563,cs)
);
}
);
width = 600;
}
);
unicode = 1047;
},
{
color = (153, 254, 255, 255);
glyphname = "Ii-cy";
layers = (
{
layerId = "2C4CF9A7-491C-47AB-B6C9-58D3194EBCE0";
shapes = (
{
closed = 1;
nodes = (
(582,629,ls),
(594,703,o),
(564,740,o),
(490,740,cs),
(440,740,o),
(406,716,o),
(382,669,cs),
(163,240,ls),
(161,236,o),
(159,234,o),
(156,234,cs),
(153,234,o),
(152,236,o),
(153,240,cs),
(229,670,ls),
(237,717,o),
(218,740,o),
(171,740,cs),
(124,740,o),
(97,717,o),
(89,670,cs),
(-13,101,ls),
(-25,27,o),
(5,-10,o),
(79,-10,cs),
(129,-10,o),
(164,14,o),
(188,61,cs),
(407,490,ls),
(409,494,o),
(411,496,o),
(414,496,cs),
(417,496,o),
(418,494,o),
(417,490,cs),
(341,60,ls),
(333,13,o),
(351,-10,o),
(398,-10,cs),
(445,-10,o),
(473,13,o),
(481,60,cs)
);
}
);
width = 600;
},
{
anchors = (
{
name = m.uni0308;
position = "{350, 730}";
}
);
layerId = "4F1D95E0-B484-471A-8565-C56541B9E33E";
shapes = (
{
closed = 1;
nodes = (
(558,662,ls),
(567,714,o),
(545,740,o),
(493,740,cs),
(458,740,o),
(435,723,o),
(417,690,cs),
(126,150,ls),
(124,146,o),
(123,144,o),
(120,144,cs),
(117,144,o),
(116,146,o),
(117,150,cs),
(214,695,ls),
(219,725,o),
(206,740,o),
(176,740,cs),
(146,740,o),
(129,725,o),
(124,695,cs),
(12,68,ls),
(2,16,o),
(24,-10,o),
(76,-10,cs),
(111,-10,o),
(135,7,o),
(154,40,cs),
(444,580,ls),
(446,584,o),
(448,586,o),
(451,586,cs),
(454,586,o),
(454,584,o),
(453,580,cs),
(356,35,ls),
(351,5,o),
(363,-10,o),
(393,-10,cs),
(423,-10,o),
(441,5,o),
(446,35,cs)
);
}
);
width = 600;
},
{
layerId = "65670A5D-CCC8-4389-B3B7-F9F0C6F62714";
shapes = (
{
closed = 1;
nodes = (
(533,693,ls),
(539,724,o),
(525,740,o),
(494,740,cs),
(470,740,o),
(454,729,o),
(441,707,cs),
(104,80,ls),
(102,76,o),
(100,74,o),
(97,74,cs),
(94,74,o),
(93,76,o),
(94,80,cs),
(207,715,ls),
(210,732,o),
(203,740,o),
(186,740,cs),
(169,740,o),
(160,732,o),
(157,715,cs),
(37,37,ls),
(31,6,o),
(44,-10,o),
(75,-10,cs),
(99,-10,o),
(116,1,o),
(128,23,cs),
(465,650,ls),
(467,654,o),
(469,656,o),
(472,656,cs),
(475,656,o),
(476,654,o),
(475,650,cs),
(362,15,ls),
(360,-2,o),
(366,-10,o),
(383,-10,cs),
(400,-10,o),
(410,-2,o),
(412,15,cs)
);
}
);
width = 600;
}
);
unicode = 1048;
},
{
color = (153, 254, 255, 255);
glyphname = "El-cy";
layers = (
{
layerId = "2C4CF9A7-491C-47AB-B6C9-58D3194EBCE0";
shapes = (
{
closed = 1;
nodes = (
(144,630,ls),
(157,697,o),
(197,730,o),
(264,730,cs),
(484,730,ls),
(551,730,o),
(578,697,o),
(566,630,cs),
(466,65,ls),
(456,15,o),
(427,-10,o),
(377,-10,cs),
(327,-10,o),
(306,15,o),
(316,65,cs),
(401,545,ls),
(407,579,o),
(393,595,o),
(359,595,cs),
(336,595,ls),
(302,595,o),
(284,578,o),
(277,545,cs),
(214,220,ls),
(189,90,o),
(126,18,o),
(23,-6,cs),
(-35,-20,o),
(-63,11,o),
(-52,75,cs),
(-48,101,o),
(-33,115,o),
(3,126,cs),
(39,138,o),
(55,168,o),
(65,220,cs)
);
}
);
width = 600;
},
{
layerId = "4F1D95E0-B484-471A-8565-C56541B9E33E";
shapes = (
{
closed = 1;
nodes = (
(164,650,ls),
(175,704,o),
(206,730,o),
(260,730,cs),
(476,730,ls),
(530,730,o),
(551,704,o),
(541,650,cs),
(432,35,ls),
(427,5,o),
(409,-10,o),
(379,-10,cs),
(349,-10,o),
(337,5,o),
(342,35,cs),
(444,608,ls),
(449,635,o),
(438,648,o),
(411,648,cs),
(294,648,ls),
(267,648,o),
(251,635,o),
(246,608,cs),
(175,246,ls),
(152,120,o),
(117,12,o),
(-14,-9,cs),
(-46,-14,o),
(-60,2,o),
(-54,35,cs),
(-50,57,o),
(-38,68,o),
(-11,76,cs),
(61,96,o),
(72,176,o),
(85,246,cs)
);
}
);
width = 600;
},
{
layerId = "65670A5D-CCC8-4389-B3B7-F9F0C6F62714";
shapes = (
{
closed = 1;
nodes = (
(185,670,ls),
(193,710,o),
(217,730,o),
(257,730,cs),
(480,730,ls),
(520,730,o),
(536,710,o),
(529,670,cs),
(412,15,ls),
(410,-2,o),
(400,-10,o),
(383,-10,cs),
(366,-10,o),
(360,-2,o),
(362,15,cs),
(476,654,ls),
(479,674,o),
(471,684,o),
(451,684,cs),
(268,684,ls),
(248,684,o),
(236,674,o),
(233,654,cs),
(137,158,ls),
(116,52,o),
(65,-10,o),
(-32,-10,cs),
(-48,-10,o),
(-56,-3,o),
(-52,14,cs),
(-50,30,o),
(-39,40,o),
(-22,40,cs),
(43,40,o),
(72,82,o),
(87,158,cs)
);
}
);
width = 600;
}
);
unicode = 1051;
},
{
color = (153, 254, 255, 255);
glyphname = "Pe-cy";
layers = (
{
layerId = "2C4CF9A7-491C-47AB-B6C9-58D3194EBCE0";
shapes = (
{
closed = 1;
nodes = (
(9,-10,o),
(-12,15,o),
(-2,65,cs),
(98,630,ls),
(110,697,o),
(149,730,o),
(216,730,cs),
(484,730,ls),
(551,730,o),
(578,697,o),
(566,630,cs),
(466,65,ls),
(456,15,o),
(427,-10,o),
(377,-10,cs),
(327,-10,o),
(306,15,o),
(316,65,cs),
(401,545,ls),
(407,579,o),
(393,595,o),
(359,595,cs),
(291,595,ls),
(257,595,o),
(239,579,o),
(233,545,cs),
(148,65,ls),
(138,15,o),
(109,-10,o),
(59,-10,cs)
);
}
);
width = 600;
},
{
layerId = "4F1D95E0-B484-471A-8565-C56541B9E33E";
shapes = (
{
closed = 1;
nodes = (
(27,-10,o),
(15,5,o),
(20,35,cs),
(129,650,ls),
(139,704,o),
(170,730,o),
(224,730,cs),
(476,730,ls),
(530,730,o),
(551,704,o),
(541,650,cs),
(432,35,ls),
(427,5,o),
(409,-10,o),
(379,-10,cs),
(349,-10,o),
(337,5,o),
(342,35,cs),
(444,608,ls),
(449,635,o),
(438,648,o),
(411,648,cs),
(259,648,ls),
(232,648,o),
(217,635,o),
(212,608,cs),
(110,35,ls),
(105,5,o),
(87,-10,o),
(57,-10,cs)
);
}
);
width = 600;
},
{
layerId = "65670A5D-CCC8-4389-B3B7-F9F0C6F62714";
shapes = (
{
closed = 1;
nodes = (
(36,-10,o),
(30,-2,o),
(32,15,cs),
(149,670,ls),
(156,710,o),
(180,730,o),
(220,730,cs),
(480,730,ls),
(520,730,o),
(536,710,o),
(529,670,cs),
(412,15,ls),
(410,-2,o),
(400,-10,o),
(383,-10,cs),
(366,-10,o),
(360,-2,o),
(362,15,cs),
(476,655,ls),
(480,675,o),
(472,685,o),
(452,685,cs),
(232,685,ls),
(212,685,o),
(200,675,o),
(196,655,cs),
(82,15,ls),
(80,-2,o),
(70,-10,o),
(53,-10,cs)
);
}
);
width = 600;
}
);
unicode = 1055;
},
{
color = (153, 254, 255, 255);
glyphname = "U-cy";
layers = (
{
anchors = (
{
name = top;
position = "{350, 730}";
}
);
layerId = "2C4CF9A7-491C-47AB-B6C9-58D3194EBCE0";
shapes = (
{
closed = 1;
nodes = (
(117,-10,o),
(97,12,o),
(132,83,cs),
(173,165,ls),
(181,181,o),
(184,195,o),
(182,211,cs),
(96,647,ls),
(83,710,o),
(109,740,o),
(176,740,cs),
(215,740,o),
(240,734,o),
(246,693,cs),
(288,391,ls),
(291,375,o),
(296,375,o),
(303,391,cs),
(446,692,ls),
(464,730,o),
(489,740,o),
(526,740,cs),
(593,740,o),
(609,709,o),
(576,646,cs),
(262,37,ls),
(245,5,o),
(219,-10,o),
(186,-10,cs)
);
}
);
width = 600;
},
{
anchors = (
{
name = top;
position = "{350, 730}";
}
);
layerId = "4F1D95E0-B484-471A-8565-C56541B9E33E";
shapes = (
{
closed = 1;
nodes = (
(130,-10,o),
(121,10,o),
(143,50,cs),
(208,170,ls),
(215,182,o),
(218,196,o),
(215,208,cs),
(114,679,ls),
(106,720,o),
(122,740,o),
(166,740,cs),
(188,740,o),
(202,730,o),
(205,709,cs),
(276,307,ls),
(280,294,o),
(284,294,o),
(289,307,cs),
(488,709,ls),
(499,730,o),
(514,740,o),
(536,740,cs),
(580,740,o),
(590,720,o),
(568,679,cs),
(221,20,ls),
(211,0,o),
(194,-10,o),
(173,-10,cs)
);
}
);
width = 600;
},
{
anchors = (
{
name = top;
position = "{350, 730}";
}
);
layerId = "65670A5D-CCC8-4389-B3B7-F9F0C6F62714";
shapes = (
{
closed = 1;
nodes = (
(140,-10,o),
(134,1,o),
(147,25,cs),
(231,177,ls),
(236,186,o),
(237,196,o),
(235,205,cs),
(127,705,ls),
(123,729,o),
(132,740,o),
(157,740,cs),
(170,740,o),
(177,734,o),
(180,722,cs),
(271,269,ls),
(272,260,o),
(276,260,o),
(281,269,cs),
(521,723,ls),
(526,734,o),
(535,740,o),
(547,740,cs),
(571,740,o),
(578,729,o),
(565,706,cs),
(195,8,ls),
(188,-4,o),
(178,-10,o),
(165,-10,cs)
);
}
);
width = 600;
}
);
unicode = 1059;
},
{
color = (153, 254, 255, 255);
glyphname = "Ef-cy";
layers = (
{
layerId = "2C4CF9A7-491C-47AB-B6C9-58D3194EBCE0";
shapes = (
{
closed = 1;
nodes = (
(165,-25,o),
(144,-5,o),
(153,48,cs),
(155,55,l),
(46,59,o),
(-9,145,o),
(-6,274,cs),
(-4,341,o),
(9,409,o),
(30,476,cs),
(73,606,o),
(158,691,o),
(269,695,c),
(269,697,ls),
(278,750,o),
(306,770,o),
(357,770,cs),
(406,770,o),
(428,746,o),
(419,697,cs),
(419,695,l),
(528,691,o),
(583,605,o),
(578,476,cs),
(577,409,o),
(564,341,o),
(542,274,cs),
(501,145,o),
(416,59,o),
(305,55,c),
(303,48,ls),
(295,-1,o),
(265,-25,o),
(216,-25,cs)
);
},
{
closed = 1;
nodes = (
(266,580,l),
(219,580,o),
(176,539,o),
(155,476,cs),
(134,409,o),
(121,341,o),
(119,274,cs),
(118,212,o),
(146,171,o),
(193,171,c)
);
},
{
closed = 1;
nodes = (
(307,171,l),
(354,171,o),
(398,212,o),
(417,274,cs),
(439,341,o),
(452,409,o),
(453,476,cs),
(456,539,o),
(427,580,o),
(380,580,c)
);
}
);
width = 600;
},
{
layerId = "4F1D95E0-B484-471A-8565-C56541B9E33E";
shapes = (
{
closed = 1;
nodes = (
(186,-25,o),
(173,-10,o),
(178,20,cs),
(185,55,l),
(75,55,o),
(7,138,o),
(13,263,cs),
(15,335,o),
(29,410,o),
(51,482,cs),
(93,610,o),
(188,695,o),
(299,695,c),
(304,725,ls),
(310,755,o),
(327,770,o),
(357,770,cs),
(387,770,o),
(400,755,o),
(394,725,cs),
(389,695,l),
(500,695,o),
(565,610,o),
(559,482,cs),
(557,410,o),
(543,335,o),
(521,263,cs),
(481,138,o),
(385,55,o),
(275,55,c),
(268,20,ls),
(263,-10,o),
(246,-25,o),
(216,-25,cs)
);
},
{
closed = 1;
nodes = (
(289,619,l),
(224,619,o),
(162,566,o),
(135,482,cs),
(113,410,o),
(99,335,o),
(97,263,cs),
(94,182,o),
(137,131,o),
(202,131,c)
);
},
{
closed = 1;
nodes = (
(284,131,l),
(349,131,o),
(412,182,o),
(437,263,cs),
(459,335,o),
(473,410,o),
(475,482,cs),
(478,566,o),
(436,619,o),
(371,619,c)
);
}
);
width = 600;
},
{
layerId = "65670A5D-CCC8-4389-B3B7-F9F0C6F62714";
shapes = (
{
closed = 1;
nodes = (
(199,-25,o),
(192,-17,o),
(195,0,cs),
(205,55,l),
(86,55,o),
(19,133,o),
(26,257,cs),
(29,336,o),
(44,417,o),
(68,496,cs),
(104,618,o),
(199,695,o),
(319,695,c),
(327,745,ls),
(330,762,o),
(340,770,o),
(357,770,cs),
(374,770,o),
(380,762,o),
(377,745,cs),
(369,695,l),
(489,695,o),
(554,617,o),
(548,496,cs),
(544,417,o),
(529,336,o),
(506,257,cs),
(467,134,o),
(374,55,o),
(255,55,c),
(245,0,ls),
(242,-17,o),
(233,-25,o),
(216,-25,cs)
);
},
{
closed = 1;
nodes = (
(310,651,l),
(226,651,o),
(145,585,o),
(118,496,cs),
(94,417,o),
(79,336,o),
(76,257,cs),
(70,166,o),
(130,100,o),
(213,100,c)
);
},
{
closed = 1;
nodes = (
(263,100,l),
(346,100,o),
(429,167,o),
(456,257,cs),
(479,336,o),
(494,417,o),
(498,496,cs),
(503,584,o),
(444,651,o),
(360,651,c)
);
}
);
width = 600;
}
);
unicode = 1060;
},
{
color = (153, 254, 255, 255);
glyphname = "Che-cy";
layers = (
{
layerId = "2C4CF9A7-491C-47AB-B6C9-58D3194EBCE0";
shapes = (
{
closed = 1;
nodes = (
(340,225,ls),
(343,242,o),
(336,250,o),
(319,250,cs),
(234,250,ls),
(129,250,o),
(33,355,o),
(50,450,qs),
(88,665,ls),
(97,715,o),
(126,740,o),
(176,740,cs),
(226,740,o),
(247,715,o),
(238,665,cs),
(202,460,ls),
(196,426,o),
(237,385,o),
(278,385,qs),
(344,385,ls),
(361,385,o),
(370,393,o),
(373,410,cs),
(418,665,ls),
(427,715,o),
(456,740,o),
(506,740,cs),
(556,740,o),
(577,715,o),
(568,665,cs),
(462,65,ls),
(452,15,o),
(423,-10,o),
(373,-10,cs),
(323,-10,o),
(302,15,o),
(312,65,cs)
);
}
);
width = 600;
},
{
anchors = (
{
name = m.uni0308;
position = "{350, 730}";
}
);
layerId = "4F1D95E0-B484-471A-8565-C56541B9E33E";
shapes = (
{
closed = 1;
nodes = (
(379,251,ls),
(382,264,o),
(377,271,o),
(364,271,cs),
(244,271,ls),
(150,271,o),
(60,367,o),
(75,451,qs),
(119,695,ls),
(124,725,o),
(141,740,o),
(171,740,cs),
(201,740,o),
(214,725,o),
(209,695,cs),
(165,451,ls),
(157,403,o),
(211,351,o),
(268,351,qs),
(378,351,ls),
(391,351,o),
(398,358,o),
(401,371,cs),
(459,695,ls),
(464,725,o),
(481,740,o),
(511,740,cs),
(541,740,o),
(554,725,o),
(549,695,cs),
(431,35,ls),
(426,5,o),
(408,-10,o),
(378,-10,cs),
(348,-10,o),
(336,5,o),
(341,35,cs)
);
}
);
width = 600;
},
{
layerId = "65670A5D-CCC8-4389-B3B7-F9F0C6F62714";
shapes = (
{
closed = 1;
nodes = (
(409,274,ls),
(411,284,o),
(407,289,o),
(397,289,cs),
(271,289,ls),
(168,289,o),
(79,385,o),
(95,479,qs),
(137,715,ls),
(140,732,o),
(149,740,o),
(166,740,cs),
(183,740,o),
(190,732,o),
(187,715,cs),
(145,479,ls),
(133,408,o),
(200,334,o),
(279,334,qs),
(404,334,ls),
(414,334,o),
(420,339,o),
(422,349,cs),
(487,715,ls),
(490,732,o),
(499,740,o),
(516,740,cs),
(533,740,o),
(540,732,o),
(537,715,cs),
(412,15,ls),
(410,-2,o),
(400,-10,o),
(383,-10,cs),
(366,-10,o),
(360,-2,o),
(362,15,cs)
);
}
);
width = 600;
}
);
unicode = 1063;
},
{
color = (153, 254, 255, 255);
glyphname = "Tse-cy";
layers = (
{
layerId = "2C4CF9A7-491C-47AB-B6C9-58D3194EBCE0";
shapes = (
{
closed = 1;
nodes = (
(485,-70,ls),
(477,-117,o),
(450,-140,o),
(403,-140,cs),
(356,-140,o),
(337,-117,o),
(345,-70,cs),
(350,-40,ls),
(355,-13,o),
(345,0,o),
(318,0,cs),
(86,0,ls),
(19,0,o),
(-8,33,o),
(4,100,cs),
(104,665,ls),
(113,715,o),
(142,740,o),
(192,740,cs),
(242,740,o),
(263,715,o),
(254,665,cs),
(164,160,ls),
(161,143,o),
(168,135,o),
(185,135,cs),
(272,135,ls),
(289,135,o),
(298,143,o),
(301,160,cs),
(391,665,ls),
(400,715,o),
(429,740,o),
(479,740,cs),
(529,740,o),
(550,715,o),
(541,665,cs),
(447,138,ls),
(447,136,o),
(448,135,o),
(450,135,cs),
(498,135,o),
(518,111,o),
(509,63,cs)
);
}
);
width = 600;
},
{
layerId = "4F1D95E0-B484-471A-8565-C56541B9E33E";
shapes = (
{
closed = 1;
nodes = (
(467,-100,ls),
(462,-127,o),
(447,-140,o),
(420,-140,cs),
(393,-140,o),
(382,-127,o),
(387,-100,cs),
(397,-40,ls),
(402,-13,o),
(392,0,o),
(365,0,cs),
(94,0,ls),
(40,0,o),
(19,26,o),
(28,80,cs),
(138,695,ls),
(143,725,o),
(160,740,o),
(190,740,cs),
(220,740,o),
(233,725,o),
(228,695,cs),
(122,100,ls),
(119,87,o),
(125,80,o),
(138,80,cs),
(314,80,ls),
(327,80,o),
(335,87,o),
(338,100,cs),
(444,695,ls),
(449,725,o),
(466,740,o),
(496,740,cs),
(526,740,o),
(539,725,o),
(534,695,cs),
(427,95,ls),
(425,85,o),
(429,80,o),
(439,80,cs),
(479,80,o),
(496,60,o),
(488,20,cs)
);
}
);
width = 600;
},
{
layerId = "65670A5D-CCC8-4389-B3B7-F9F0C6F62714";
shapes = (
{
closed = 1;
nodes = (
(450,-115,ls),
(447,-132,o),
(437,-140,o),
(420,-140,cs),
(403,-140,o),
(397,-132,o),
(400,-115,cs),
(415,-30,ls),
(418,-10,o),
(410,0,o),
(390,0,cs),
(90,0,ls),
(50,0,o),
(33,20,o),
(41,60,cs),
(157,715,ls),
(160,732,o),
(169,740,o),
(186,740,cs),
(203,740,o),
(210,732,o),
(207,715,cs),
(91,60,ls),
(89,50,o),
(93,45,o),
(103,45,cs),
(336,45,ls),
(346,45,o),
(352,50,o),
(354,60,cs),
(470,715,ls),
(473,732,o),
(482,740,o),
(499,740,cs),
(516,740,o),
(523,732,o),
(520,715,cs),
(404,60,ls),
(401,48,o),
(407,45,o),
(418,45,cs),
(458,45,o),
(474,25,o),
(468,-15,cs)
);
}
);
width = 600;
}
);
unicode = 1062;
},
{
color = (153, 254, 255, 255);
glyphname = "Sha-cy";
layers = (
{
layerId = "2C4CF9A7-491C-47AB-B6C9-58D3194EBCE0";
shapes = (
{
closed = 1;
nodes = (
(58,0,ls),
(-9,0,o),
(-36,33,o),
(-24,100,cs),
(78,676,ls),
(86,719,o),
(111,740,o),
(154,740,cs),
(197,740,o),
(215,718,o),
(206,675,cs),
(115,157,ls),
(110,132,o),
(120,120,o),
(145,120,cs),
(146,120,ls),
(171,120,o),
(184,132,o),
(189,157,cs),
(282,681,ls),
(289,721,o),
(311,740,o),
(351,740,cs),
(391,740,o),
(407,721,o),
(400,681,cs),
(307,157,ls),
(302,132,o),
(312,120,o),
(337,120,cs),
(338,120,ls),
(363,120,o),
(376,132,o),
(381,157,cs),
(472,675,ls),
(481,718,o),
(506,740,o),
(549,740,cs),
(592,740,o),
(610,719,o),
(602,676,cs),
(500,100,ls),
(488,33,o),
(449,0,o),
(382,0,cs)
);
}
);
width = 600;
},
{
layerId = "4F1D95E0-B484-471A-8565-C56541B9E33E";
shapes = (
{
closed = 1;
nodes = (
(62,0,ls),
(8,0,o),
(-13,26,o),
(-4,80,cs),
(104,697,ls),
(109,725,o),
(126,740,o),
(154,740,cs),
(182,740,o),
(194,726,o),
(189,698,cs),
(86,118,ls),
(81,91,o),
(92,78,o),
(119,78,cs),
(158,78,ls),
(185,78,o),
(200,91,o),
(205,118,cs),
(308,703,ls),
(314,728,o),
(327,740,o),
(352,740,cs),
(377,740,o),
(388,728,o),
(382,703,cs),
(279,118,ls),
(274,91,o),
(285,78,o),
(312,78,cs),
(350,78,ls),
(377,78,o),
(392,91,o),
(397,118,cs),
(500,698,ls),
(505,726,o),
(521,740,o),
(549,740,cs),
(577,740,o),
(589,726,o),
(584,698,cs),
(474,80,ls),
(465,26,o),
(434,0,o),
(380,0,cs)
);
}
);
width = 600;
},
{
layerId = "65670A5D-CCC8-4389-B3B7-F9F0C6F62714";
shapes = (
{
closed = 1;
nodes = (
(55,0,ls),
(15,0,o),
(-2,20,o),
(6,60,cs),
(122,716,ls),
(125,732,o),
(134,740,o),
(150,740,cs),
(166,740,o),
(173,732,o),
(170,716,cs),
(56,73,ls),
(52,53,o),
(60,43,o),
(80,43,cs),
(173,43,ls),
(193,43,o),
(205,53,o),
(209,73,cs),
(323,716,ls),
(326,732,o),
(335,740,o),
(351,740,cs),
(367,740,o),
(374,732,o),
(371,716,cs),
(257,73,ls),
(253,53,o),
(261,43,o),
(281,43,cs),
(374,43,ls),
(394,43,o),
(406,53,o),
(410,73,cs),
(524,716,ls),
(527,732,o),
(536,740,o),
(552,740,cs),
(568,740,o),
(575,732,o),
(572,716,cs),
(456,60,ls),
(448,20,o),
(425,0,o),
(385,0,cs)
);
}
);
width = 600;
}
);
unicode = 1064;
},
{
color = (153, 254, 255, 255);
glyphname = "Shcha-cy";
layers = (
{
layerId = "2C4CF9A7-491C-47AB-B6C9-58D3194EBCE0";
shapes = (
{
closed = 1;
nodes = (
(386,-140,o),
(369,-119,o),
(377,-75,cs),
(381,-50,ls),
(387,-17,o),
(373,0,o),
(340,0,cs),
(58,0,ls),
(-9,0,o),
(-36,33,o),
(-24,100,cs),
(79,680,ls),
(86,720,o),
(109,740,o),
(149,740,cs),
(189,740,o),
(206,720,o),
(199,680,cs),
(104,145,ls),
(101,128,o),
(108,120,o),
(125,120,cs),
(150,120,ls),
(167,120,o),
(176,128,o),
(179,145,cs),
(276,690,ls),
(282,723,o),
(300,740,o),
(334,740,cs),
(368,740,o),
(382,723,o),
(376,690,cs),
(279,145,ls),
(276,128,o),
(283,120,o),
(300,120,cs),
(325,120,ls),
(342,120,o),
(351,128,o),
(354,145,cs),
(449,680,ls),
(456,720,o),
(479,740,o),
(519,740,cs),
(559,740,o),
(576,720,o),
(569,680,cs),
(470,123,ls),
(470,121,o),
(471,120,o),
(473,120,cs),
(519,120,o),
(538,97,o),
(529,51,cs),
(507,-75,ls),
(499,-119,o),
(474,-140,o),
(430,-140,cs)
);
}
);
width = 600;
},
{
layerId = "4F1D95E0-B484-471A-8565-C56541B9E33E";
shapes = (
{
closed = 1;
nodes = (
(423,-140,o),
(412,-127,o),
(417,-100,cs),
(427,-40,ls),
(432,-13,o),
(422,0,o),
(395,0,cs),
(60,0,ls),
(6,0,o),
(-15,26,o),
(-6,80,cs),
(105,700,ls),
(110,727,o),
(125,740,o),
(152,740,cs),
(179,740,o),
(191,727,o),
(186,700,cs),
(79,98,ls),
(76,85,o),
(82,78,o),
(95,78,cs),
(175,78,ls),
(188,78,o),
(196,85,o),
(199,98,cs),
(306,705,ls),
(311,728,o),
(324,740,o),
(347,740,cs),
(370,740,o),
(381,728,o),
(376,705,cs),
(269,98,ls),
(266,85,o),
(272,78,o),
(285,78,cs),
(365,78,ls),
(378,78,o),
(386,85,o),
(389,98,cs),
(496,700,ls),
(501,727,o),
(516,740,o),
(543,740,cs),
(570,740,o),
(582,727,o),
(577,700,cs),
(468,91,ls),
(467,83,o),
(471,78,o),
(479,78,cs),
(513,78,o),
(526,62,o),
(520,28,cs),
(497,-100,ls),
(492,-127,o),
(477,-140,o),
(450,-140,cs)
);
}
);
width = 600;
},
{
layerId = "65670A5D-CCC8-4389-B3B7-F9F0C6F62714";
shapes = (
{
closed = 1;
nodes = (
(438,-140,o),
(432,-132,o),
(435,-115,cs),
(450,-30,ls),
(453,-10,o),
(445,0,o),
(425,0,cs),
(55,0,ls),
(15,0,o),
(-2,20,o),
(6,60,cs),
(122,716,ls),
(125,732,o),
(134,740,o),
(150,740,cs),
(166,740,o),
(173,732,o),
(170,716,cs),
(53,58,ls),
(51,48,o),
(55,43,o),
(65,43,cs),
(185,43,ls),
(195,43,o),
(201,48,o),
(203,58,cs),
(320,716,ls),
(323,732,o),
(332,740,o),
(348,740,cs),
(364,740,o),
(371,732,o),
(368,716,cs),
(251,58,ls),
(249,48,o),
(253,43,o),
(263,43,cs),
(383,43,ls),
(393,43,o),
(399,48,o),
(401,58,cs),
(518,716,ls),
(521,732,o),
(530,740,o),
(546,740,cs),
(562,740,o),
(569,732,o),
(566,716,cs),
(449,56,ls),
(447,47,o),
(450,43,o),
(459,43,cs),
(494,43,o),
(509,25,o),
(503,-10,cs),
(485,-115,ls),
(482,-132,o),
(472,-140,o),
(455,-140,cs)
);
}
);
width = 600;
}
);
unicode = 1065;
},
